<?xml version="1.0" encoding="utf-8" standalone="no"?>
<!DOCTYPE svg PUBLIC "-//W3C//DTD SVG 1.1//EN"
  "http://www.w3.org/Graphics/SVG/1.1/DTD/svg11.dtd">
<svg xmlns:xlink="http://www.w3.org/1999/xlink" width="432pt" height="259.2pt" viewBox="0 0 432 259.2" xmlns="http://www.w3.org/2000/svg" version="1.1">
 <metadata>
  <rdf:RDF xmlns:dc="http://purl.org/dc/elements/1.1/" xmlns:cc="http://creativecommons.org/ns#" xmlns:rdf="http://www.w3.org/1999/02/22-rdf-syntax-ns#">
   <cc:Work>
    <dc:type rdf:resource="http://purl.org/dc/dcmitype/StillImage"/>
    <dc:date>2026-06-16T15:43:53.384534</dc:date>
    <dc:format>image/svg+xml</dc:format>
    <dc:creator>
     <cc:Agent>
      <dc:title>Matplotlib v3.10.7, https://matplotlib.org/</dc:title>
     </cc:Agent>
    </dc:creator>
   </cc:Work>
  </rdf:RDF>
 </metadata>
 <defs>
  <style type="text/css">*{stroke-linejoin: round; stroke-linecap: butt}</style>
 </defs>
 <g id="figure_1">
  <g id="patch_1">
   <path d="M 0 259.2 
L 432 259.2 
L 432 0 
L 0 0 
z
" style="fill: #ffffff"/>
  </g>
  <g id="axes_1">
   <g id="patch_2">
    <path d="M 88.775 215.2 
L 423.035 215.2 
L 423.035 4.96 
L 88.775 4.96 
z
" style="fill: #ffffff"/>
   </g>
   <g id="matplotlib.axis_1">
    <g id="xtick_1">
     <g id="line2d_1">
      <defs>
       <path id="mfeb9cd8b88" d="M 0 0 
L 0 3.5 
" style="stroke: #000000; stroke-width: 0.8"/>
      </defs>
      <g>
       <use xlink:href="#mfeb9cd8b88" x="136.526429" y="215.2" style="stroke: #000000; stroke-width: 0.8"/>
      </g>
     </g>
     <g id="text_1">
      <!-- 0.5 -->
      <g transform="translate(124.599085 233.597656) scale(0.15 -0.15)">
       <defs>
        <path id="DejaVuSans-30" d="M 2034 4250 
Q 1547 4250 1301 3770 
Q 1056 3291 1056 2328 
Q 1056 1369 1301 889 
Q 1547 409 2034 409 
Q 2525 409 2770 889 
Q 3016 1369 3016 2328 
Q 3016 3291 2770 3770 
Q 2525 4250 2034 4250 
z
M 2034 4750 
Q 2819 4750 3233 4129 
Q 3647 3509 3647 2328 
Q 3647 1150 3233 529 
Q 2819 -91 2034 -91 
Q 1250 -91 836 529 
Q 422 1150 422 2328 
Q 422 3509 836 4129 
Q 1250 4750 2034 4750 
z
" transform="scale(0.015625)"/>
        <path id="DejaVuSans-2e" d="M 684 794 
L 1344 794 
L 1344 0 
L 684 0 
L 684 794 
z
" transform="scale(0.015625)"/>
        <path id="DejaVuSans-35" d="M 691 4666 
L 3169 4666 
L 3169 4134 
L 1269 4134 
L 1269 2991 
Q 1406 3038 1543 3061 
Q 1681 3084 1819 3084 
Q 2600 3084 3056 2656 
Q 3513 2228 3513 1497 
Q 3513 744 3044 326 
Q 2575 -91 1722 -91 
Q 1428 -91 1123 -41 
Q 819 9 494 109 
L 494 744 
Q 775 591 1075 516 
Q 1375 441 1709 441 
Q 2250 441 2565 725 
Q 2881 1009 2881 1497 
Q 2881 1984 2565 2268 
Q 2250 2553 1709 2553 
Q 1456 2553 1204 2497 
Q 953 2441 691 2322 
L 691 4666 
z
" transform="scale(0.015625)"/>
       </defs>
       <use xlink:href="#DejaVuSans-30"/>
       <use xlink:href="#DejaVuSans-2e" transform="translate(63.623047 0)"/>
       <use xlink:href="#DejaVuSans-35" transform="translate(95.410156 0)"/>
      </g>
     </g>
    </g>
    <g id="xtick_2">
     <g id="line2d_2">
      <g>
       <use xlink:href="#mfeb9cd8b88" x="190.789416" y="215.2" style="stroke: #000000; stroke-width: 0.8"/>
      </g>
     </g>
     <g id="text_2">
      <!-- 1.0 -->
      <g transform="translate(178.862072 233.597656) scale(0.15 -0.15)">
       <defs>
        <path id="DejaVuSans-31" d="M 794 531 
L 1825 531 
L 1825 4091 
L 703 3866 
L 703 4441 
L 1819 4666 
L 2450 4666 
L 2450 531 
L 3481 531 
L 3481 0 
L 794 0 
L 794 531 
z
" transform="scale(0.015625)"/>
       </defs>
       <use xlink:href="#DejaVuSans-31"/>
       <use xlink:href="#DejaVuSans-2e" transform="translate(63.623047 0)"/>
       <use xlink:href="#DejaVuSans-30" transform="translate(95.410156 0)"/>
      </g>
     </g>
    </g>
    <g id="xtick_3">
     <g id="line2d_3">
      <g>
       <use xlink:href="#mfeb9cd8b88" x="245.052403" y="215.2" style="stroke: #000000; stroke-width: 0.8"/>
      </g>
     </g>
     <g id="text_3">
      <!-- 1.5 -->
      <g transform="translate(233.125059 233.597656) scale(0.15 -0.15)">
       <use xlink:href="#DejaVuSans-31"/>
       <use xlink:href="#DejaVuSans-2e" transform="translate(63.623047 0)"/>
       <use xlink:href="#DejaVuSans-35" transform="translate(95.410156 0)"/>
      </g>
     </g>
    </g>
    <g id="xtick_4">
     <g id="line2d_4">
      <g>
       <use xlink:href="#mfeb9cd8b88" x="299.31539" y="215.2" style="stroke: #000000; stroke-width: 0.8"/>
      </g>
     </g>
     <g id="text_4">
      <!-- 2.0 -->
      <g transform="translate(287.388046 233.597656) scale(0.15 -0.15)">
       <defs>
        <path id="DejaVuSans-32" d="M 1228 531 
L 3431 531 
L 3431 0 
L 469 0 
L 469 531 
Q 828 903 1448 1529 
Q 2069 2156 2228 2338 
Q 2531 2678 2651 2914 
Q 2772 3150 2772 3378 
Q 2772 3750 2511 3984 
Q 2250 4219 1831 4219 
Q 1534 4219 1204 4116 
Q 875 4013 500 3803 
L 500 4441 
Q 881 4594 1212 4672 
Q 1544 4750 1819 4750 
Q 2544 4750 2975 4387 
Q 3406 4025 3406 3419 
Q 3406 3131 3298 2873 
Q 3191 2616 2906 2266 
Q 2828 2175 2409 1742 
Q 1991 1309 1228 531 
z
" transform="scale(0.015625)"/>
       </defs>
       <use xlink:href="#DejaVuSans-32"/>
       <use xlink:href="#DejaVuSans-2e" transform="translate(63.623047 0)"/>
       <use xlink:href="#DejaVuSans-30" transform="translate(95.410156 0)"/>
      </g>
     </g>
    </g>
    <g id="xtick_5">
     <g id="line2d_5">
      <g>
       <use xlink:href="#mfeb9cd8b88" x="353.578377" y="215.2" style="stroke: #000000; stroke-width: 0.8"/>
      </g>
     </g>
     <g id="text_5">
      <!-- 2.5 -->
      <g transform="translate(341.651033 233.597656) scale(0.15 -0.15)">
       <use xlink:href="#DejaVuSans-32"/>
       <use xlink:href="#DejaVuSans-2e" transform="translate(63.623047 0)"/>
       <use xlink:href="#DejaVuSans-35" transform="translate(95.410156 0)"/>
      </g>
     </g>
    </g>
    <g id="xtick_6">
     <g id="line2d_6">
      <g>
       <use xlink:href="#mfeb9cd8b88" x="407.841364" y="215.2" style="stroke: #000000; stroke-width: 0.8"/>
      </g>
     </g>
     <g id="text_6">
      <!-- 3.0 -->
      <g transform="translate(395.91402 233.597656) scale(0.15 -0.15)">
       <defs>
        <path id="DejaVuSans-33" d="M 2597 2516 
Q 3050 2419 3304 2112 
Q 3559 1806 3559 1356 
Q 3559 666 3084 287 
Q 2609 -91 1734 -91 
Q 1441 -91 1130 -33 
Q 819 25 488 141 
L 488 750 
Q 750 597 1062 519 
Q 1375 441 1716 441 
Q 2309 441 2620 675 
Q 2931 909 2931 1356 
Q 2931 1769 2642 2001 
Q 2353 2234 1838 2234 
L 1294 2234 
L 1294 2753 
L 1863 2753 
Q 2328 2753 2575 2939 
Q 2822 3125 2822 3475 
Q 2822 3834 2567 4026 
Q 2313 4219 1838 4219 
Q 1578 4219 1281 4162 
Q 984 4106 628 3988 
L 628 4550 
Q 988 4650 1302 4700 
Q 1616 4750 1894 4750 
Q 2613 4750 3031 4423 
Q 3450 4097 3450 3541 
Q 3450 3153 3228 2886 
Q 3006 2619 2597 2516 
z
" transform="scale(0.015625)"/>
       </defs>
       <use xlink:href="#DejaVuSans-33"/>
       <use xlink:href="#DejaVuSans-2e" transform="translate(63.623047 0)"/>
       <use xlink:href="#DejaVuSans-30" transform="translate(95.410156 0)"/>
      </g>
     </g>
    </g>
    <g id="text_7">
     <!-- Comb Spacing [GHz] -->
     <g transform="translate(178.163984 252.114844) scale(0.15 -0.15)">
      <defs>
       <path id="DejaVuSans-43" d="M 4122 4306 
L 4122 3641 
Q 3803 3938 3442 4084 
Q 3081 4231 2675 4231 
Q 1875 4231 1450 3742 
Q 1025 3253 1025 2328 
Q 1025 1406 1450 917 
Q 1875 428 2675 428 
Q 3081 428 3442 575 
Q 3803 722 4122 1019 
L 4122 359 
Q 3791 134 3420 21 
Q 3050 -91 2638 -91 
Q 1578 -91 968 557 
Q 359 1206 359 2328 
Q 359 3453 968 4101 
Q 1578 4750 2638 4750 
Q 3056 4750 3426 4639 
Q 3797 4528 4122 4306 
z
" transform="scale(0.015625)"/>
       <path id="DejaVuSans-6f" d="M 1959 3097 
Q 1497 3097 1228 2736 
Q 959 2375 959 1747 
Q 959 1119 1226 758 
Q 1494 397 1959 397 
Q 2419 397 2687 759 
Q 2956 1122 2956 1747 
Q 2956 2369 2687 2733 
Q 2419 3097 1959 3097 
z
M 1959 3584 
Q 2709 3584 3137 3096 
Q 3566 2609 3566 1747 
Q 3566 888 3137 398 
Q 2709 -91 1959 -91 
Q 1206 -91 779 398 
Q 353 888 353 1747 
Q 353 2609 779 3096 
Q 1206 3584 1959 3584 
z
" transform="scale(0.015625)"/>
       <path id="DejaVuSans-6d" d="M 3328 2828 
Q 3544 3216 3844 3400 
Q 4144 3584 4550 3584 
Q 5097 3584 5394 3201 
Q 5691 2819 5691 2113 
L 5691 0 
L 5113 0 
L 5113 2094 
Q 5113 2597 4934 2840 
Q 4756 3084 4391 3084 
Q 3944 3084 3684 2787 
Q 3425 2491 3425 1978 
L 3425 0 
L 2847 0 
L 2847 2094 
Q 2847 2600 2669 2842 
Q 2491 3084 2119 3084 
Q 1678 3084 1418 2786 
Q 1159 2488 1159 1978 
L 1159 0 
L 581 0 
L 581 3500 
L 1159 3500 
L 1159 2956 
Q 1356 3278 1631 3431 
Q 1906 3584 2284 3584 
Q 2666 3584 2933 3390 
Q 3200 3197 3328 2828 
z
" transform="scale(0.015625)"/>
       <path id="DejaVuSans-62" d="M 3116 1747 
Q 3116 2381 2855 2742 
Q 2594 3103 2138 3103 
Q 1681 3103 1420 2742 
Q 1159 2381 1159 1747 
Q 1159 1113 1420 752 
Q 1681 391 2138 391 
Q 2594 391 2855 752 
Q 3116 1113 3116 1747 
z
M 1159 2969 
Q 1341 3281 1617 3432 
Q 1894 3584 2278 3584 
Q 2916 3584 3314 3078 
Q 3713 2572 3713 1747 
Q 3713 922 3314 415 
Q 2916 -91 2278 -91 
Q 1894 -91 1617 61 
Q 1341 213 1159 525 
L 1159 0 
L 581 0 
L 581 4863 
L 1159 4863 
L 1159 2969 
z
" transform="scale(0.015625)"/>
       <path id="DejaVuSans-20" transform="scale(0.015625)"/>
       <path id="DejaVuSans-53" d="M 3425 4513 
L 3425 3897 
Q 3066 4069 2747 4153 
Q 2428 4238 2131 4238 
Q 1616 4238 1336 4038 
Q 1056 3838 1056 3469 
Q 1056 3159 1242 3001 
Q 1428 2844 1947 2747 
L 2328 2669 
Q 3034 2534 3370 2195 
Q 3706 1856 3706 1288 
Q 3706 609 3251 259 
Q 2797 -91 1919 -91 
Q 1588 -91 1214 -16 
Q 841 59 441 206 
L 441 856 
Q 825 641 1194 531 
Q 1563 422 1919 422 
Q 2459 422 2753 634 
Q 3047 847 3047 1241 
Q 3047 1584 2836 1778 
Q 2625 1972 2144 2069 
L 1759 2144 
Q 1053 2284 737 2584 
Q 422 2884 422 3419 
Q 422 4038 858 4394 
Q 1294 4750 2059 4750 
Q 2388 4750 2728 4690 
Q 3069 4631 3425 4513 
z
" transform="scale(0.015625)"/>
       <path id="DejaVuSans-70" d="M 1159 525 
L 1159 -1331 
L 581 -1331 
L 581 3500 
L 1159 3500 
L 1159 2969 
Q 1341 3281 1617 3432 
Q 1894 3584 2278 3584 
Q 2916 3584 3314 3078 
Q 3713 2572 3713 1747 
Q 3713 922 3314 415 
Q 2916 -91 2278 -91 
Q 1894 -91 1617 61 
Q 1341 213 1159 525 
z
M 3116 1747 
Q 3116 2381 2855 2742 
Q 2594 3103 2138 3103 
Q 1681 3103 1420 2742 
Q 1159 2381 1159 1747 
Q 1159 1113 1420 752 
Q 1681 391 2138 391 
Q 2594 391 2855 752 
Q 3116 1113 3116 1747 
z
" transform="scale(0.015625)"/>
       <path id="DejaVuSans-61" d="M 2194 1759 
Q 1497 1759 1228 1600 
Q 959 1441 959 1056 
Q 959 750 1161 570 
Q 1363 391 1709 391 
Q 2188 391 2477 730 
Q 2766 1069 2766 1631 
L 2766 1759 
L 2194 1759 
z
M 3341 1997 
L 3341 0 
L 2766 0 
L 2766 531 
Q 2569 213 2275 61 
Q 1981 -91 1556 -91 
Q 1019 -91 701 211 
Q 384 513 384 1019 
Q 384 1609 779 1909 
Q 1175 2209 1959 2209 
L 2766 2209 
L 2766 2266 
Q 2766 2663 2505 2880 
Q 2244 3097 1772 3097 
Q 1472 3097 1187 3025 
Q 903 2953 641 2809 
L 641 3341 
Q 956 3463 1253 3523 
Q 1550 3584 1831 3584 
Q 2591 3584 2966 3190 
Q 3341 2797 3341 1997 
z
" transform="scale(0.015625)"/>
       <path id="DejaVuSans-63" d="M 3122 3366 
L 3122 2828 
Q 2878 2963 2633 3030 
Q 2388 3097 2138 3097 
Q 1578 3097 1268 2742 
Q 959 2388 959 1747 
Q 959 1106 1268 751 
Q 1578 397 2138 397 
Q 2388 397 2633 464 
Q 2878 531 3122 666 
L 3122 134 
Q 2881 22 2623 -34 
Q 2366 -91 2075 -91 
Q 1284 -91 818 406 
Q 353 903 353 1747 
Q 353 2603 823 3093 
Q 1294 3584 2113 3584 
Q 2378 3584 2631 3529 
Q 2884 3475 3122 3366 
z
" transform="scale(0.015625)"/>
       <path id="DejaVuSans-69" d="M 603 3500 
L 1178 3500 
L 1178 0 
L 603 0 
L 603 3500 
z
M 603 4863 
L 1178 4863 
L 1178 4134 
L 603 4134 
L 603 4863 
z
" transform="scale(0.015625)"/>
       <path id="DejaVuSans-6e" d="M 3513 2113 
L 3513 0 
L 2938 0 
L 2938 2094 
Q 2938 2591 2744 2837 
Q 2550 3084 2163 3084 
Q 1697 3084 1428 2787 
Q 1159 2491 1159 1978 
L 1159 0 
L 581 0 
L 581 3500 
L 1159 3500 
L 1159 2956 
Q 1366 3272 1645 3428 
Q 1925 3584 2291 3584 
Q 2894 3584 3203 3211 
Q 3513 2838 3513 2113 
z
" transform="scale(0.015625)"/>
       <path id="DejaVuSans-67" d="M 2906 1791 
Q 2906 2416 2648 2759 
Q 2391 3103 1925 3103 
Q 1463 3103 1205 2759 
Q 947 2416 947 1791 
Q 947 1169 1205 825 
Q 1463 481 1925 481 
Q 2391 481 2648 825 
Q 2906 1169 2906 1791 
z
M 3481 434 
Q 3481 -459 3084 -895 
Q 2688 -1331 1869 -1331 
Q 1566 -1331 1297 -1286 
Q 1028 -1241 775 -1147 
L 775 -588 
Q 1028 -725 1275 -790 
Q 1522 -856 1778 -856 
Q 2344 -856 2625 -561 
Q 2906 -266 2906 331 
L 2906 616 
Q 2728 306 2450 153 
Q 2172 0 1784 0 
Q 1141 0 747 490 
Q 353 981 353 1791 
Q 353 2603 747 3093 
Q 1141 3584 1784 3584 
Q 2172 3584 2450 3431 
Q 2728 3278 2906 2969 
L 2906 3500 
L 3481 3500 
L 3481 434 
z
" transform="scale(0.015625)"/>
       <path id="DejaVuSans-5b" d="M 550 4863 
L 1875 4863 
L 1875 4416 
L 1125 4416 
L 1125 -397 
L 1875 -397 
L 1875 -844 
L 550 -844 
L 550 4863 
z
" transform="scale(0.015625)"/>
       <path id="DejaVuSans-47" d="M 3809 666 
L 3809 1919 
L 2778 1919 
L 2778 2438 
L 4434 2438 
L 4434 434 
Q 4069 175 3628 42 
Q 3188 -91 2688 -91 
Q 1594 -91 976 548 
Q 359 1188 359 2328 
Q 359 3472 976 4111 
Q 1594 4750 2688 4750 
Q 3144 4750 3555 4637 
Q 3966 4525 4313 4306 
L 4313 3634 
Q 3963 3931 3569 4081 
Q 3175 4231 2741 4231 
Q 1884 4231 1454 3753 
Q 1025 3275 1025 2328 
Q 1025 1384 1454 906 
Q 1884 428 2741 428 
Q 3075 428 3337 486 
Q 3600 544 3809 666 
z
" transform="scale(0.015625)"/>
       <path id="DejaVuSans-48" d="M 628 4666 
L 1259 4666 
L 1259 2753 
L 3553 2753 
L 3553 4666 
L 4184 4666 
L 4184 0 
L 3553 0 
L 3553 2222 
L 1259 2222 
L 1259 0 
L 628 0 
L 628 4666 
z
" transform="scale(0.015625)"/>
       <path id="DejaVuSans-7a" d="M 353 3500 
L 3084 3500 
L 3084 2975 
L 922 459 
L 3084 459 
L 3084 0 
L 275 0 
L 275 525 
L 2438 3041 
L 353 3041 
L 353 3500 
z
" transform="scale(0.015625)"/>
       <path id="DejaVuSans-5d" d="M 1947 4863 
L 1947 -844 
L 622 -844 
L 622 -397 
L 1369 -397 
L 1369 4416 
L 622 4416 
L 622 4863 
L 1947 4863 
z
" transform="scale(0.015625)"/>
      </defs>
      <use xlink:href="#DejaVuSans-43"/>
      <use xlink:href="#DejaVuSans-6f" transform="translate(69.824219 0)"/>
      <use xlink:href="#DejaVuSans-6d" transform="translate(131.005859 0)"/>
      <use xlink:href="#DejaVuSans-62" transform="translate(228.417969 0)"/>
      <use xlink:href="#DejaVuSans-20" transform="translate(291.894531 0)"/>
      <use xlink:href="#DejaVuSans-53" transform="translate(323.681641 0)"/>
      <use xlink:href="#DejaVuSans-70" transform="translate(387.158203 0)"/>
      <use xlink:href="#DejaVuSans-61" transform="translate(450.634766 0)"/>
      <use xlink:href="#DejaVuSans-63" transform="translate(511.914062 0)"/>
      <use xlink:href="#DejaVuSans-69" transform="translate(566.894531 0)"/>
      <use xlink:href="#DejaVuSans-6e" transform="translate(594.677734 0)"/>
      <use xlink:href="#DejaVuSans-67" transform="translate(658.056641 0)"/>
      <use xlink:href="#DejaVuSans-20" transform="translate(721.533203 0)"/>
      <use xlink:href="#DejaVuSans-5b" transform="translate(753.320312 0)"/>
      <use xlink:href="#DejaVuSans-47" transform="translate(792.333984 0)"/>
      <use xlink:href="#DejaVuSans-48" transform="translate(869.824219 0)"/>
      <use xlink:href="#DejaVuSans-7a" transform="translate(945.019531 0)"/>
      <use xlink:href="#DejaVuSans-5d" transform="translate(997.509766 0)"/>
     </g>
    </g>
   </g>
   <g id="matplotlib.axis_2">
    <g id="ytick_1">
     <g id="line2d_7">
      <defs>
       <path id="mb45dcedd54" d="M 0 0 
L -3.5 0 
" style="stroke: #000000; stroke-width: 0.8"/>
      </defs>
      <g>
       <use xlink:href="#mb45dcedd54" x="88.775" y="186.157804" style="stroke: #000000; stroke-width: 0.8"/>
      </g>
     </g>
     <g id="text_8">
      <!-- 0.0050 -->
      <g transform="translate(29.289063 191.856632) scale(0.15 -0.15)">
       <use xlink:href="#DejaVuSans-30"/>
       <use xlink:href="#DejaVuSans-2e" transform="translate(63.623047 0)"/>
       <use xlink:href="#DejaVuSans-30" transform="translate(95.410156 0)"/>
       <use xlink:href="#DejaVuSans-30" transform="translate(159.033203 0)"/>
       <use xlink:href="#DejaVuSans-35" transform="translate(222.65625 0)"/>
       <use xlink:href="#DejaVuSans-30" transform="translate(286.279297 0)"/>
      </g>
     </g>
    </g>
    <g id="ytick_2">
     <g id="line2d_8">
      <g>
       <use xlink:href="#mb45dcedd54" x="88.775" y="149.7784" style="stroke: #000000; stroke-width: 0.8"/>
      </g>
     </g>
     <g id="text_9">
      <!-- 0.0075 -->
      <g transform="translate(29.289063 155.477228) scale(0.15 -0.15)">
       <defs>
        <path id="DejaVuSans-37" d="M 525 4666 
L 3525 4666 
L 3525 4397 
L 1831 0 
L 1172 0 
L 2766 4134 
L 525 4134 
L 525 4666 
z
" transform="scale(0.015625)"/>
       </defs>
       <use xlink:href="#DejaVuSans-30"/>
       <use xlink:href="#DejaVuSans-2e" transform="translate(63.623047 0)"/>
       <use xlink:href="#DejaVuSans-30" transform="translate(95.410156 0)"/>
       <use xlink:href="#DejaVuSans-30" transform="translate(159.033203 0)"/>
       <use xlink:href="#DejaVuSans-37" transform="translate(222.65625 0)"/>
       <use xlink:href="#DejaVuSans-35" transform="translate(286.279297 0)"/>
      </g>
     </g>
    </g>
    <g id="ytick_3">
     <g id="line2d_9">
      <g>
       <use xlink:href="#mb45dcedd54" x="88.775" y="113.398995" style="stroke: #000000; stroke-width: 0.8"/>
      </g>
     </g>
     <g id="text_10">
      <!-- 0.0100 -->
      <g transform="translate(29.289063 119.097824) scale(0.15 -0.15)">
       <use xlink:href="#DejaVuSans-30"/>
       <use xlink:href="#DejaVuSans-2e" transform="translate(63.623047 0)"/>
       <use xlink:href="#DejaVuSans-30" transform="translate(95.410156 0)"/>
       <use xlink:href="#DejaVuSans-31" transform="translate(159.033203 0)"/>
       <use xlink:href="#DejaVuSans-30" transform="translate(222.65625 0)"/>
       <use xlink:href="#DejaVuSans-30" transform="translate(286.279297 0)"/>
      </g>
     </g>
    </g>
    <g id="ytick_4">
     <g id="line2d_10">
      <g>
       <use xlink:href="#mb45dcedd54" x="88.775" y="77.019591" style="stroke: #000000; stroke-width: 0.8"/>
      </g>
     </g>
     <g id="text_11">
      <!-- 0.0125 -->
      <g transform="translate(29.289063 82.718419) scale(0.15 -0.15)">
       <use xlink:href="#DejaVuSans-30"/>
       <use xlink:href="#DejaVuSans-2e" transform="translate(63.623047 0)"/>
       <use xlink:href="#DejaVuSans-30" transform="translate(95.410156 0)"/>
       <use xlink:href="#DejaVuSans-31" transform="translate(159.033203 0)"/>
       <use xlink:href="#DejaVuSans-32" transform="translate(222.65625 0)"/>
       <use xlink:href="#DejaVuSans-35" transform="translate(286.279297 0)"/>
      </g>
     </g>
    </g>
    <g id="ytick_5">
     <g id="line2d_11">
      <g>
       <use xlink:href="#mb45dcedd54" x="88.775" y="40.640187" style="stroke: #000000; stroke-width: 0.8"/>
      </g>
     </g>
     <g id="text_12">
      <!-- 0.0150 -->
      <g transform="translate(29.289063 46.339015) scale(0.15 -0.15)">
       <use xlink:href="#DejaVuSans-30"/>
       <use xlink:href="#DejaVuSans-2e" transform="translate(63.623047 0)"/>
       <use xlink:href="#DejaVuSans-30" transform="translate(95.410156 0)"/>
       <use xlink:href="#DejaVuSans-31" transform="translate(159.033203 0)"/>
       <use xlink:href="#DejaVuSans-35" transform="translate(222.65625 0)"/>
       <use xlink:href="#DejaVuSans-30" transform="translate(286.279297 0)"/>
      </g>
     </g>
    </g>
    <g id="text_13">
     <!-- $\mathrm{H_{2}O}$ Concentration [VMR] -->
     <g transform="translate(22.169531 205.78) rotate(-90) scale(0.15 -0.15)">
      <defs>
       <path id="DejaVuSans-4f" d="M 2522 4238 
Q 1834 4238 1429 3725 
Q 1025 3213 1025 2328 
Q 1025 1447 1429 934 
Q 1834 422 2522 422 
Q 3209 422 3611 934 
Q 4013 1447 4013 2328 
Q 4013 3213 3611 3725 
Q 3209 4238 2522 4238 
z
M 2522 4750 
Q 3503 4750 4090 4092 
Q 4678 3434 4678 2328 
Q 4678 1225 4090 567 
Q 3503 -91 2522 -91 
Q 1538 -91 948 565 
Q 359 1222 359 2328 
Q 359 3434 948 4092 
Q 1538 4750 2522 4750 
z
" transform="scale(0.015625)"/>
       <path id="DejaVuSans-65" d="M 3597 1894 
L 3597 1613 
L 953 1613 
Q 991 1019 1311 708 
Q 1631 397 2203 397 
Q 2534 397 2845 478 
Q 3156 559 3463 722 
L 3463 178 
Q 3153 47 2828 -22 
Q 2503 -91 2169 -91 
Q 1331 -91 842 396 
Q 353 884 353 1716 
Q 353 2575 817 3079 
Q 1281 3584 2069 3584 
Q 2775 3584 3186 3129 
Q 3597 2675 3597 1894 
z
M 3022 2063 
Q 3016 2534 2758 2815 
Q 2500 3097 2075 3097 
Q 1594 3097 1305 2825 
Q 1016 2553 972 2059 
L 3022 2063 
z
" transform="scale(0.015625)"/>
       <path id="DejaVuSans-74" d="M 1172 4494 
L 1172 3500 
L 2356 3500 
L 2356 3053 
L 1172 3053 
L 1172 1153 
Q 1172 725 1289 603 
Q 1406 481 1766 481 
L 2356 481 
L 2356 0 
L 1766 0 
Q 1100 0 847 248 
Q 594 497 594 1153 
L 594 3053 
L 172 3053 
L 172 3500 
L 594 3500 
L 594 4494 
L 1172 4494 
z
" transform="scale(0.015625)"/>
       <path id="DejaVuSans-72" d="M 2631 2963 
Q 2534 3019 2420 3045 
Q 2306 3072 2169 3072 
Q 1681 3072 1420 2755 
Q 1159 2438 1159 1844 
L 1159 0 
L 581 0 
L 581 3500 
L 1159 3500 
L 1159 2956 
Q 1341 3275 1631 3429 
Q 1922 3584 2338 3584 
Q 2397 3584 2469 3576 
Q 2541 3569 2628 3553 
L 2631 2963 
z
" transform="scale(0.015625)"/>
       <path id="DejaVuSans-56" d="M 1831 0 
L 50 4666 
L 709 4666 
L 2188 738 
L 3669 4666 
L 4325 4666 
L 2547 0 
L 1831 0 
z
" transform="scale(0.015625)"/>
       <path id="DejaVuSans-4d" d="M 628 4666 
L 1569 4666 
L 2759 1491 
L 3956 4666 
L 4897 4666 
L 4897 0 
L 4281 0 
L 4281 4097 
L 3078 897 
L 2444 897 
L 1241 4097 
L 1241 0 
L 628 0 
L 628 4666 
z
" transform="scale(0.015625)"/>
       <path id="DejaVuSans-52" d="M 2841 2188 
Q 3044 2119 3236 1894 
Q 3428 1669 3622 1275 
L 4263 0 
L 3584 0 
L 2988 1197 
Q 2756 1666 2539 1819 
Q 2322 1972 1947 1972 
L 1259 1972 
L 1259 0 
L 628 0 
L 628 4666 
L 2053 4666 
Q 2853 4666 3247 4331 
Q 3641 3997 3641 3322 
Q 3641 2881 3436 2590 
Q 3231 2300 2841 2188 
z
M 1259 4147 
L 1259 2491 
L 2053 2491 
Q 2509 2491 2742 2702 
Q 2975 2913 2975 3322 
Q 2975 3731 2742 3939 
Q 2509 4147 2053 4147 
L 1259 4147 
z
" transform="scale(0.015625)"/>
      </defs>
      <use xlink:href="#DejaVuSans-48" transform="translate(0 0.015625)"/>
      <use xlink:href="#DejaVuSans-32" transform="translate(76.152344 -16.390625) scale(0.7)"/>
      <use xlink:href="#DejaVuSans-4f" transform="translate(123.422852 0.015625)"/>
      <use xlink:href="#DejaVuSans-20" transform="translate(202.133789 0.015625)"/>
      <use xlink:href="#DejaVuSans-43" transform="translate(233.920898 0.015625)"/>
      <use xlink:href="#DejaVuSans-6f" transform="translate(303.745117 0.015625)"/>
      <use xlink:href="#DejaVuSans-6e" transform="translate(364.926758 0.015625)"/>
      <use xlink:href="#DejaVuSans-63" transform="translate(428.305664 0.015625)"/>
      <use xlink:href="#DejaVuSans-65" transform="translate(483.286133 0.015625)"/>
      <use xlink:href="#DejaVuSans-6e" transform="translate(544.80957 0.015625)"/>
      <use xlink:href="#DejaVuSans-74" transform="translate(608.188477 0.015625)"/>
      <use xlink:href="#DejaVuSans-72" transform="translate(647.397461 0.015625)"/>
      <use xlink:href="#DejaVuSans-61" transform="translate(688.510742 0.015625)"/>
      <use xlink:href="#DejaVuSans-74" transform="translate(749.790039 0.015625)"/>
      <use xlink:href="#DejaVuSans-69" transform="translate(788.999023 0.015625)"/>
      <use xlink:href="#DejaVuSans-6f" transform="translate(816.782227 0.015625)"/>
      <use xlink:href="#DejaVuSans-6e" transform="translate(877.963867 0.015625)"/>
      <use xlink:href="#DejaVuSans-20" transform="translate(941.342773 0.015625)"/>
      <use xlink:href="#DejaVuSans-5b" transform="translate(973.129883 0.015625)"/>
      <use xlink:href="#DejaVuSans-56" transform="translate(1012.143555 0.015625)"/>
      <use xlink:href="#DejaVuSans-4d" transform="translate(1080.551758 0.015625)"/>
      <use xlink:href="#DejaVuSans-52" transform="translate(1166.831055 0.015625)"/>
      <use xlink:href="#DejaVuSans-5d" transform="translate(1236.313477 0.015625)"/>
     </g>
    </g>
   </g>
   <g id="line2d_12">
    <path d="M 223.347208 126.027424 
L 234.199805 127.500789 
L 245.052403 135.055882 
L 255.905 147.562326 
L 266.757597 145.024635 
L 277.610195 149.590477 
L 288.462792 157.9491 
L 299.31539 160.178362 
L 310.167987 159.158602 
L 321.020584 155.813516 
L 331.873182 169.133493 
L 342.725779 169.041408 
L 353.578377 170.474984 
L 364.430974 173.901014 
L 375.283571 174.140323 
L 386.136169 181.24397 
L 396.988766 175.41849 
L 407.841364 179.731382 
" clip-path="url(#pd169d8d4f1)" style="fill: none; stroke: #0000ff; stroke-width: 1.5; stroke-linecap: square"/>
    <defs>
     <path id="mf8518a8f55" d="M 0 3 
C 0.795609 3 1.55874 2.683901 2.12132 2.12132 
C 2.683901 1.55874 3 0.795609 3 0 
C 3 -0.795609 2.683901 -1.55874 2.12132 -2.12132 
C 1.55874 -2.683901 0.795609 -3 0 -3 
C -0.795609 -3 -1.55874 -2.683901 -2.12132 -2.12132 
C -2.683901 -1.55874 -3 -0.795609 -3 0 
C -3 0.795609 -2.683901 1.55874 -2.12132 2.12132 
C -1.55874 2.683901 -0.795609 3 0 3 
z
" style="stroke: #0000ff"/>
    </defs>
    <g clip-path="url(#pd169d8d4f1)">
     <use xlink:href="#mf8518a8f55" x="223.347208" y="126.027424" style="fill: #0000ff; stroke: #0000ff"/>
     <use xlink:href="#mf8518a8f55" x="234.199805" y="127.500789" style="fill: #0000ff; stroke: #0000ff"/>
     <use xlink:href="#mf8518a8f55" x="245.052403" y="135.055882" style="fill: #0000ff; stroke: #0000ff"/>
     <use xlink:href="#mf8518a8f55" x="255.905" y="147.562326" style="fill: #0000ff; stroke: #0000ff"/>
     <use xlink:href="#mf8518a8f55" x="266.757597" y="145.024635" style="fill: #0000ff; stroke: #0000ff"/>
     <use xlink:href="#mf8518a8f55" x="277.610195" y="149.590477" style="fill: #0000ff; stroke: #0000ff"/>
     <use xlink:href="#mf8518a8f55" x="288.462792" y="157.9491" style="fill: #0000ff; stroke: #0000ff"/>
     <use xlink:href="#mf8518a8f55" x="299.31539" y="160.178362" style="fill: #0000ff; stroke: #0000ff"/>
     <use xlink:href="#mf8518a8f55" x="310.167987" y="159.158602" style="fill: #0000ff; stroke: #0000ff"/>
     <use xlink:href="#mf8518a8f55" x="321.020584" y="155.813516" style="fill: #0000ff; stroke: #0000ff"/>
     <use xlink:href="#mf8518a8f55" x="331.873182" y="169.133493" style="fill: #0000ff; stroke: #0000ff"/>
     <use xlink:href="#mf8518a8f55" x="342.725779" y="169.041408" style="fill: #0000ff; stroke: #0000ff"/>
     <use xlink:href="#mf8518a8f55" x="353.578377" y="170.474984" style="fill: #0000ff; stroke: #0000ff"/>
     <use xlink:href="#mf8518a8f55" x="364.430974" y="173.901014" style="fill: #0000ff; stroke: #0000ff"/>
     <use xlink:href="#mf8518a8f55" x="375.283571" y="174.140323" style="fill: #0000ff; stroke: #0000ff"/>
     <use xlink:href="#mf8518a8f55" x="386.136169" y="181.24397" style="fill: #0000ff; stroke: #0000ff"/>
     <use xlink:href="#mf8518a8f55" x="396.988766" y="175.41849" style="fill: #0000ff; stroke: #0000ff"/>
     <use xlink:href="#mf8518a8f55" x="407.841364" y="179.731382" style="fill: #0000ff; stroke: #0000ff"/>
    </g>
   </g>
   <g id="line2d_13">
    <path d="M 190.789416 157.866337 
L 201.642013 161.574422 
L 212.49461 157.82416 
L 223.347208 176.739404 
L 234.199805 174.411918 
L 245.052403 178.732995 
L 255.905 171.342633 
L 266.757597 184.613612 
L 277.610195 196.836524 
L 288.462792 191.248079 
L 299.31539 195.032787 
L 310.167987 195.56495 
L 321.020584 199.310209 
L 331.873182 198.173467 
L 342.725779 203.068202 
L 353.578377 201.010037 
L 364.430974 196.279805 
L 375.283571 188.499387 
L 386.136169 193.835564 
L 396.988766 205.643636 
L 407.841364 192.134713 
" clip-path="url(#pd169d8d4f1)" style="fill: none; stroke: #0a00f5; stroke-width: 1.5; stroke-linecap: square"/>
    <defs>
     <path id="m8df4c78933" d="M 0 3 
C 0.795609 3 1.55874 2.683901 2.12132 2.12132 
C 2.683901 1.55874 3 0.795609 3 0 
C 3 -0.795609 2.683901 -1.55874 2.12132 -2.12132 
C 1.55874 -2.683901 0.795609 -3 0 -3 
C -0.795609 -3 -1.55874 -2.683901 -2.12132 -2.12132 
C -2.683901 -1.55874 -3 -0.795609 -3 0 
C -3 0.795609 -2.683901 1.55874 -2.12132 2.12132 
C -1.55874 2.683901 -0.795609 3 0 3 
z
" style="stroke: #0a00f5"/>
    </defs>
    <g clip-path="url(#pd169d8d4f1)">
     <use xlink:href="#m8df4c78933" x="190.789416" y="157.866337" style="fill: #0a00f5; stroke: #0a00f5"/>
     <use xlink:href="#m8df4c78933" x="201.642013" y="161.574422" style="fill: #0a00f5; stroke: #0a00f5"/>
     <use xlink:href="#m8df4c78933" x="212.49461" y="157.82416" style="fill: #0a00f5; stroke: #0a00f5"/>
     <use xlink:href="#m8df4c78933" x="223.347208" y="176.739404" style="fill: #0a00f5; stroke: #0a00f5"/>
     <use xlink:href="#m8df4c78933" x="234.199805" y="174.411918" style="fill: #0a00f5; stroke: #0a00f5"/>
     <use xlink:href="#m8df4c78933" x="245.052403" y="178.732995" style="fill: #0a00f5; stroke: #0a00f5"/>
     <use xlink:href="#m8df4c78933" x="255.905" y="171.342633" style="fill: #0a00f5; stroke: #0a00f5"/>
     <use xlink:href="#m8df4c78933" x="266.757597" y="184.613612" style="fill: #0a00f5; stroke: #0a00f5"/>
     <use xlink:href="#m8df4c78933" x="277.610195" y="196.836524" style="fill: #0a00f5; stroke: #0a00f5"/>
     <use xlink:href="#m8df4c78933" x="288.462792" y="191.248079" style="fill: #0a00f5; stroke: #0a00f5"/>
     <use xlink:href="#m8df4c78933" x="299.31539" y="195.032787" style="fill: #0a00f5; stroke: #0a00f5"/>
     <use xlink:href="#m8df4c78933" x="310.167987" y="195.56495" style="fill: #0a00f5; stroke: #0a00f5"/>
     <use xlink:href="#m8df4c78933" x="321.020584" y="199.310209" style="fill: #0a00f5; stroke: #0a00f5"/>
     <use xlink:href="#m8df4c78933" x="331.873182" y="198.173467" style="fill: #0a00f5; stroke: #0a00f5"/>
     <use xlink:href="#m8df4c78933" x="342.725779" y="203.068202" style="fill: #0a00f5; stroke: #0a00f5"/>
     <use xlink:href="#m8df4c78933" x="353.578377" y="201.010037" style="fill: #0a00f5; stroke: #0a00f5"/>
     <use xlink:href="#m8df4c78933" x="364.430974" y="196.279805" style="fill: #0a00f5; stroke: #0a00f5"/>
     <use xlink:href="#m8df4c78933" x="375.283571" y="188.499387" style="fill: #0a00f5; stroke: #0a00f5"/>
     <use xlink:href="#m8df4c78933" x="386.136169" y="193.835564" style="fill: #0a00f5; stroke: #0a00f5"/>
     <use xlink:href="#m8df4c78933" x="396.988766" y="205.643636" style="fill: #0a00f5; stroke: #0a00f5"/>
     <use xlink:href="#m8df4c78933" x="407.841364" y="192.134713" style="fill: #0a00f5; stroke: #0a00f5"/>
    </g>
   </g>
   <g id="line2d_14">
    <path d="M 179.936818 135.196625 
L 190.789416 149.590932 
L 201.642013 159.272401 
L 212.49461 154.798417 
L 223.347208 164.64905 
L 234.199805 166.044541 
L 245.052403 167.974127 
L 255.905 174.614164 
L 266.757597 182.060005 
L 277.610195 188.324198 
L 288.462792 180.743639 
L 299.31539 185.152368 
L 310.167987 181.266821 
L 321.020584 190.198192 
L 331.873182 189.537906 
L 342.725779 194.963553 
L 353.578377 192.672901 
L 364.430974 180.065391 
L 375.283571 172.411164 
L 386.136169 174.62235 
L 396.988766 162.92819 
L 407.841364 169.59267 
" clip-path="url(#pd169d8d4f1)" style="fill: none; stroke: #1400eb; stroke-width: 1.5; stroke-linecap: square"/>
    <defs>
     <path id="mda48cf4c9f" d="M 0 3 
C 0.795609 3 1.55874 2.683901 2.12132 2.12132 
C 2.683901 1.55874 3 0.795609 3 0 
C 3 -0.795609 2.683901 -1.55874 2.12132 -2.12132 
C 1.55874 -2.683901 0.795609 -3 0 -3 
C -0.795609 -3 -1.55874 -2.683901 -2.12132 -2.12132 
C -2.683901 -1.55874 -3 -0.795609 -3 0 
C -3 0.795609 -2.683901 1.55874 -2.12132 2.12132 
C -1.55874 2.683901 -0.795609 3 0 3 
z
" style="stroke: #1400eb"/>
    </defs>
    <g clip-path="url(#pd169d8d4f1)">
     <use xlink:href="#mda48cf4c9f" x="179.936818" y="135.196625" style="fill: #1400eb; stroke: #1400eb"/>
     <use xlink:href="#mda48cf4c9f" x="190.789416" y="149.590932" style="fill: #1400eb; stroke: #1400eb"/>
     <use xlink:href="#mda48cf4c9f" x="201.642013" y="159.272401" style="fill: #1400eb; stroke: #1400eb"/>
     <use xlink:href="#mda48cf4c9f" x="212.49461" y="154.798417" style="fill: #1400eb; stroke: #1400eb"/>
     <use xlink:href="#mda48cf4c9f" x="223.347208" y="164.64905" style="fill: #1400eb; stroke: #1400eb"/>
     <use xlink:href="#mda48cf4c9f" x="234.199805" y="166.044541" style="fill: #1400eb; stroke: #1400eb"/>
     <use xlink:href="#mda48cf4c9f" x="245.052403" y="167.974127" style="fill: #1400eb; stroke: #1400eb"/>
     <use xlink:href="#mda48cf4c9f" x="255.905" y="174.614164" style="fill: #1400eb; stroke: #1400eb"/>
     <use xlink:href="#mda48cf4c9f" x="266.757597" y="182.060005" style="fill: #1400eb; stroke: #1400eb"/>
     <use xlink:href="#mda48cf4c9f" x="277.610195" y="188.324198" style="fill: #1400eb; stroke: #1400eb"/>
     <use xlink:href="#mda48cf4c9f" x="288.462792" y="180.743639" style="fill: #1400eb; stroke: #1400eb"/>
     <use xlink:href="#mda48cf4c9f" x="299.31539" y="185.152368" style="fill: #1400eb; stroke: #1400eb"/>
     <use xlink:href="#mda48cf4c9f" x="310.167987" y="181.266821" style="fill: #1400eb; stroke: #1400eb"/>
     <use xlink:href="#mda48cf4c9f" x="321.020584" y="190.198192" style="fill: #1400eb; stroke: #1400eb"/>
     <use xlink:href="#mda48cf4c9f" x="331.873182" y="189.537906" style="fill: #1400eb; stroke: #1400eb"/>
     <use xlink:href="#mda48cf4c9f" x="342.725779" y="194.963553" style="fill: #1400eb; stroke: #1400eb"/>
     <use xlink:href="#mda48cf4c9f" x="353.578377" y="192.672901" style="fill: #1400eb; stroke: #1400eb"/>
     <use xlink:href="#mda48cf4c9f" x="364.430974" y="180.065391" style="fill: #1400eb; stroke: #1400eb"/>
     <use xlink:href="#mda48cf4c9f" x="375.283571" y="172.411164" style="fill: #1400eb; stroke: #1400eb"/>
     <use xlink:href="#mda48cf4c9f" x="386.136169" y="174.62235" style="fill: #1400eb; stroke: #1400eb"/>
     <use xlink:href="#mda48cf4c9f" x="396.988766" y="162.92819" style="fill: #1400eb; stroke: #1400eb"/>
     <use xlink:href="#mda48cf4c9f" x="407.841364" y="169.59267" style="fill: #1400eb; stroke: #1400eb"/>
    </g>
   </g>
   <g id="line2d_15">
    <path d="M 169.084221 127.386422 
L 179.936818 131.146233 
L 190.789416 113.547696 
L 201.642013 116.330039 
L 212.49461 119.13455 
L 223.347208 124.334872 
L 234.199805 129.131724 
L 245.052403 124.232782 
L 255.905 130.967974 
L 266.757597 136.601438 
L 277.610195 143.532397 
L 288.462792 143.903467 
L 299.31539 146.317127 
L 310.167987 157.023358 
L 321.020584 154.242721 
L 331.873182 158.197049 
L 342.725779 157.583033 
L 353.578377 159.540927 
L 364.430974 169.498083 
L 375.283571 155.261799 
" clip-path="url(#pd169d8d4f1)" style="fill: none; stroke: #1e00e1; stroke-width: 1.5; stroke-linecap: square"/>
    <defs>
     <path id="md44fae0e3f" d="M 0 3 
C 0.795609 3 1.55874 2.683901 2.12132 2.12132 
C 2.683901 1.55874 3 0.795609 3 0 
C 3 -0.795609 2.683901 -1.55874 2.12132 -2.12132 
C 1.55874 -2.683901 0.795609 -3 0 -3 
C -0.795609 -3 -1.55874 -2.683901 -2.12132 -2.12132 
C -2.683901 -1.55874 -3 -0.795609 -3 0 
C -3 0.795609 -2.683901 1.55874 -2.12132 2.12132 
C -1.55874 2.683901 -0.795609 3 0 3 
z
" style="stroke: #1e00e1"/>
    </defs>
    <g clip-path="url(#pd169d8d4f1)">
     <use xlink:href="#md44fae0e3f" x="169.084221" y="127.386422" style="fill: #1e00e1; stroke: #1e00e1"/>
     <use xlink:href="#md44fae0e3f" x="179.936818" y="131.146233" style="fill: #1e00e1; stroke: #1e00e1"/>
     <use xlink:href="#md44fae0e3f" x="190.789416" y="113.547696" style="fill: #1e00e1; stroke: #1e00e1"/>
     <use xlink:href="#md44fae0e3f" x="201.642013" y="116.330039" style="fill: #1e00e1; stroke: #1e00e1"/>
     <use xlink:href="#md44fae0e3f" x="212.49461" y="119.13455" style="fill: #1e00e1; stroke: #1e00e1"/>
     <use xlink:href="#md44fae0e3f" x="223.347208" y="124.334872" style="fill: #1e00e1; stroke: #1e00e1"/>
     <use xlink:href="#md44fae0e3f" x="234.199805" y="129.131724" style="fill: #1e00e1; stroke: #1e00e1"/>
     <use xlink:href="#md44fae0e3f" x="245.052403" y="124.232782" style="fill: #1e00e1; stroke: #1e00e1"/>
     <use xlink:href="#md44fae0e3f" x="255.905" y="130.967974" style="fill: #1e00e1; stroke: #1e00e1"/>
     <use xlink:href="#md44fae0e3f" x="266.757597" y="136.601438" style="fill: #1e00e1; stroke: #1e00e1"/>
     <use xlink:href="#md44fae0e3f" x="277.610195" y="143.532397" style="fill: #1e00e1; stroke: #1e00e1"/>
     <use xlink:href="#md44fae0e3f" x="288.462792" y="143.903467" style="fill: #1e00e1; stroke: #1e00e1"/>
     <use xlink:href="#md44fae0e3f" x="299.31539" y="146.317127" style="fill: #1e00e1; stroke: #1e00e1"/>
     <use xlink:href="#md44fae0e3f" x="310.167987" y="157.023358" style="fill: #1e00e1; stroke: #1e00e1"/>
     <use xlink:href="#md44fae0e3f" x="321.020584" y="154.242721" style="fill: #1e00e1; stroke: #1e00e1"/>
     <use xlink:href="#md44fae0e3f" x="331.873182" y="158.197049" style="fill: #1e00e1; stroke: #1e00e1"/>
     <use xlink:href="#md44fae0e3f" x="342.725779" y="157.583033" style="fill: #1e00e1; stroke: #1e00e1"/>
     <use xlink:href="#md44fae0e3f" x="353.578377" y="159.540927" style="fill: #1e00e1; stroke: #1e00e1"/>
     <use xlink:href="#md44fae0e3f" x="364.430974" y="169.498083" style="fill: #1e00e1; stroke: #1e00e1"/>
     <use xlink:href="#md44fae0e3f" x="375.283571" y="155.261799" style="fill: #1e00e1; stroke: #1e00e1"/>
    </g>
   </g>
   <g id="line2d_16">
    <path d="M 158.231623 117.963587 
L 169.084221 126.56311 
L 179.936818 134.124228 
L 190.789416 116.692127 
L 201.642013 114.151708 
L 212.49461 122.982581 
L 223.347208 126.46625 
L 234.199805 132.348004 
L 245.052403 125.618837 
L 255.905 136.753664 
L 266.757597 140.827929 
L 277.610195 145.346251 
L 288.462792 144.227926 
L 299.31539 153.189765 
L 310.167987 157.953079 
L 321.020584 155.370824 
L 331.873182 162.307467 
L 342.725779 163.064272 
" clip-path="url(#pd169d8d4f1)" style="fill: none; stroke: #2800d7; stroke-width: 1.5; stroke-linecap: square"/>
    <defs>
     <path id="m123603ca35" d="M 0 3 
C 0.795609 3 1.55874 2.683901 2.12132 2.12132 
C 2.683901 1.55874 3 0.795609 3 0 
C 3 -0.795609 2.683901 -1.55874 2.12132 -2.12132 
C 1.55874 -2.683901 0.795609 -3 0 -3 
C -0.795609 -3 -1.55874 -2.683901 -2.12132 -2.12132 
C -2.683901 -1.55874 -3 -0.795609 -3 0 
C -3 0.795609 -2.683901 1.55874 -2.12132 2.12132 
C -1.55874 2.683901 -0.795609 3 0 3 
z
" style="stroke: #2800d7"/>
    </defs>
    <g clip-path="url(#pd169d8d4f1)">
     <use xlink:href="#m123603ca35" x="158.231623" y="117.963587" style="fill: #2800d7; stroke: #2800d7"/>
     <use xlink:href="#m123603ca35" x="169.084221" y="126.56311" style="fill: #2800d7; stroke: #2800d7"/>
     <use xlink:href="#m123603ca35" x="179.936818" y="134.124228" style="fill: #2800d7; stroke: #2800d7"/>
     <use xlink:href="#m123603ca35" x="190.789416" y="116.692127" style="fill: #2800d7; stroke: #2800d7"/>
     <use xlink:href="#m123603ca35" x="201.642013" y="114.151708" style="fill: #2800d7; stroke: #2800d7"/>
     <use xlink:href="#m123603ca35" x="212.49461" y="122.982581" style="fill: #2800d7; stroke: #2800d7"/>
     <use xlink:href="#m123603ca35" x="223.347208" y="126.46625" style="fill: #2800d7; stroke: #2800d7"/>
     <use xlink:href="#m123603ca35" x="234.199805" y="132.348004" style="fill: #2800d7; stroke: #2800d7"/>
     <use xlink:href="#m123603ca35" x="245.052403" y="125.618837" style="fill: #2800d7; stroke: #2800d7"/>
     <use xlink:href="#m123603ca35" x="255.905" y="136.753664" style="fill: #2800d7; stroke: #2800d7"/>
     <use xlink:href="#m123603ca35" x="266.757597" y="140.827929" style="fill: #2800d7; stroke: #2800d7"/>
     <use xlink:href="#m123603ca35" x="277.610195" y="145.346251" style="fill: #2800d7; stroke: #2800d7"/>
     <use xlink:href="#m123603ca35" x="288.462792" y="144.227926" style="fill: #2800d7; stroke: #2800d7"/>
     <use xlink:href="#m123603ca35" x="299.31539" y="153.189765" style="fill: #2800d7; stroke: #2800d7"/>
     <use xlink:href="#m123603ca35" x="310.167987" y="157.953079" style="fill: #2800d7; stroke: #2800d7"/>
     <use xlink:href="#m123603ca35" x="321.020584" y="155.370824" style="fill: #2800d7; stroke: #2800d7"/>
     <use xlink:href="#m123603ca35" x="331.873182" y="162.307467" style="fill: #2800d7; stroke: #2800d7"/>
     <use xlink:href="#m123603ca35" x="342.725779" y="163.064272" style="fill: #2800d7; stroke: #2800d7"/>
    </g>
   </g>
   <g id="line2d_17">
    <path d="M 147.379026 112.295904 
L 158.231623 101.07263 
L 169.084221 103.045758 
L 179.936818 77.393389 
L 190.789416 98.466273 
L 201.642013 93.505714 
L 212.49461 92.142055 
L 223.347208 76.950697 
L 234.199805 86.204254 
L 245.052403 80.207791 
L 255.905 81.386029 
L 266.757597 98.070647 
L 277.610195 117.780781 
L 288.462792 115.444768 
L 299.31539 115.621436 
L 310.167987 117.087185 
L 321.020584 114.596446 
" clip-path="url(#pd169d8d4f1)" style="fill: none; stroke: #3200cd; stroke-width: 1.5; stroke-linecap: square"/>
    <defs>
     <path id="m9d718106ae" d="M 0 3 
C 0.795609 3 1.55874 2.683901 2.12132 2.12132 
C 2.683901 1.55874 3 0.795609 3 0 
C 3 -0.795609 2.683901 -1.55874 2.12132 -2.12132 
C 1.55874 -2.683901 0.795609 -3 0 -3 
C -0.795609 -3 -1.55874 -2.683901 -2.12132 -2.12132 
C -2.683901 -1.55874 -3 -0.795609 -3 0 
C -3 0.795609 -2.683901 1.55874 -2.12132 2.12132 
C -1.55874 2.683901 -0.795609 3 0 3 
z
" style="stroke: #3200cd"/>
    </defs>
    <g clip-path="url(#pd169d8d4f1)">
     <use xlink:href="#m9d718106ae" x="147.379026" y="112.295904" style="fill: #3200cd; stroke: #3200cd"/>
     <use xlink:href="#m9d718106ae" x="158.231623" y="101.07263" style="fill: #3200cd; stroke: #3200cd"/>
     <use xlink:href="#m9d718106ae" x="169.084221" y="103.045758" style="fill: #3200cd; stroke: #3200cd"/>
     <use xlink:href="#m9d718106ae" x="179.936818" y="77.393389" style="fill: #3200cd; stroke: #3200cd"/>
     <use xlink:href="#m9d718106ae" x="190.789416" y="98.466273" style="fill: #3200cd; stroke: #3200cd"/>
     <use xlink:href="#m9d718106ae" x="201.642013" y="93.505714" style="fill: #3200cd; stroke: #3200cd"/>
     <use xlink:href="#m9d718106ae" x="212.49461" y="92.142055" style="fill: #3200cd; stroke: #3200cd"/>
     <use xlink:href="#m9d718106ae" x="223.347208" y="76.950697" style="fill: #3200cd; stroke: #3200cd"/>
     <use xlink:href="#m9d718106ae" x="234.199805" y="86.204254" style="fill: #3200cd; stroke: #3200cd"/>
     <use xlink:href="#m9d718106ae" x="245.052403" y="80.207791" style="fill: #3200cd; stroke: #3200cd"/>
     <use xlink:href="#m9d718106ae" x="255.905" y="81.386029" style="fill: #3200cd; stroke: #3200cd"/>
     <use xlink:href="#m9d718106ae" x="266.757597" y="98.070647" style="fill: #3200cd; stroke: #3200cd"/>
     <use xlink:href="#m9d718106ae" x="277.610195" y="117.780781" style="fill: #3200cd; stroke: #3200cd"/>
     <use xlink:href="#m9d718106ae" x="288.462792" y="115.444768" style="fill: #3200cd; stroke: #3200cd"/>
     <use xlink:href="#m9d718106ae" x="299.31539" y="115.621436" style="fill: #3200cd; stroke: #3200cd"/>
     <use xlink:href="#m9d718106ae" x="310.167987" y="117.087185" style="fill: #3200cd; stroke: #3200cd"/>
     <use xlink:href="#m9d718106ae" x="321.020584" y="114.596446" style="fill: #3200cd; stroke: #3200cd"/>
    </g>
   </g>
   <g id="line2d_18">
    <path d="M 136.526429 84.42837 
L 147.379026 98.212072 
L 158.231623 90.229521 
L 169.084221 87.611 
L 179.936818 80.616491 
L 190.789416 83.053115 
L 201.642013 86.753355 
L 212.49461 89.958267 
L 223.347208 76.247665 
L 234.199805 71.761744 
L 245.052403 81.513812 
L 255.905 96.745755 
L 266.757597 97.684798 
L 277.610195 107.497688 
L 288.462792 89.23534 
L 299.31539 101.921862 
" clip-path="url(#pd169d8d4f1)" style="fill: none; stroke: #3c00c3; stroke-width: 1.5; stroke-linecap: square"/>
    <defs>
     <path id="mcb239d65e0" d="M 0 3 
C 0.795609 3 1.55874 2.683901 2.12132 2.12132 
C 2.683901 1.55874 3 0.795609 3 0 
C 3 -0.795609 2.683901 -1.55874 2.12132 -2.12132 
C 1.55874 -2.683901 0.795609 -3 0 -3 
C -0.795609 -3 -1.55874 -2.683901 -2.12132 -2.12132 
C -2.683901 -1.55874 -3 -0.795609 -3 0 
C -3 0.795609 -2.683901 1.55874 -2.12132 2.12132 
C -1.55874 2.683901 -0.795609 3 0 3 
z
" style="stroke: #3c00c3"/>
    </defs>
    <g clip-path="url(#pd169d8d4f1)">
     <use xlink:href="#mcb239d65e0" x="136.526429" y="84.42837" style="fill: #3c00c3; stroke: #3c00c3"/>
     <use xlink:href="#mcb239d65e0" x="147.379026" y="98.212072" style="fill: #3c00c3; stroke: #3c00c3"/>
     <use xlink:href="#mcb239d65e0" x="158.231623" y="90.229521" style="fill: #3c00c3; stroke: #3c00c3"/>
     <use xlink:href="#mcb239d65e0" x="169.084221" y="87.611" style="fill: #3c00c3; stroke: #3c00c3"/>
     <use xlink:href="#mcb239d65e0" x="179.936818" y="80.616491" style="fill: #3c00c3; stroke: #3c00c3"/>
     <use xlink:href="#mcb239d65e0" x="190.789416" y="83.053115" style="fill: #3c00c3; stroke: #3c00c3"/>
     <use xlink:href="#mcb239d65e0" x="201.642013" y="86.753355" style="fill: #3c00c3; stroke: #3c00c3"/>
     <use xlink:href="#mcb239d65e0" x="212.49461" y="89.958267" style="fill: #3c00c3; stroke: #3c00c3"/>
     <use xlink:href="#mcb239d65e0" x="223.347208" y="76.247665" style="fill: #3c00c3; stroke: #3c00c3"/>
     <use xlink:href="#mcb239d65e0" x="234.199805" y="71.761744" style="fill: #3c00c3; stroke: #3c00c3"/>
     <use xlink:href="#mcb239d65e0" x="245.052403" y="81.513812" style="fill: #3c00c3; stroke: #3c00c3"/>
     <use xlink:href="#mcb239d65e0" x="255.905" y="96.745755" style="fill: #3c00c3; stroke: #3c00c3"/>
     <use xlink:href="#mcb239d65e0" x="266.757597" y="97.684798" style="fill: #3c00c3; stroke: #3c00c3"/>
     <use xlink:href="#mcb239d65e0" x="277.610195" y="107.497688" style="fill: #3c00c3; stroke: #3c00c3"/>
     <use xlink:href="#mcb239d65e0" x="288.462792" y="89.23534" style="fill: #3c00c3; stroke: #3c00c3"/>
     <use xlink:href="#mcb239d65e0" x="299.31539" y="101.921862" style="fill: #3c00c3; stroke: #3c00c3"/>
    </g>
   </g>
   <g id="line2d_19">
    <path d="M 136.526429 103.917045 
L 147.379026 113.476643 
L 158.231623 107.186644 
L 169.084221 91.25974 
L 179.936818 89.570485 
L 190.789416 100.063784 
L 201.642013 103.979344 
L 212.49461 94.61574 
L 223.347208 96.671745 
L 234.199805 99.62166 
L 245.052403 101.566821 
L 255.905 106.918118 
L 266.757597 111.975424 
L 277.610195 104.451253 
L 288.462792 111.144268 
" clip-path="url(#pd169d8d4f1)" style="fill: none; stroke: #4600b9; stroke-width: 1.5; stroke-linecap: square"/>
    <defs>
     <path id="mb9c5a6e22d" d="M 0 3 
C 0.795609 3 1.55874 2.683901 2.12132 2.12132 
C 2.683901 1.55874 3 0.795609 3 0 
C 3 -0.795609 2.683901 -1.55874 2.12132 -2.12132 
C 1.55874 -2.683901 0.795609 -3 0 -3 
C -0.795609 -3 -1.55874 -2.683901 -2.12132 -2.12132 
C -2.683901 -1.55874 -3 -0.795609 -3 0 
C -3 0.795609 -2.683901 1.55874 -2.12132 2.12132 
C -1.55874 2.683901 -0.795609 3 0 3 
z
" style="stroke: #4600b9"/>
    </defs>
    <g clip-path="url(#pd169d8d4f1)">
     <use xlink:href="#mb9c5a6e22d" x="136.526429" y="103.917045" style="fill: #4600b9; stroke: #4600b9"/>
     <use xlink:href="#mb9c5a6e22d" x="147.379026" y="113.476643" style="fill: #4600b9; stroke: #4600b9"/>
     <use xlink:href="#mb9c5a6e22d" x="158.231623" y="107.186644" style="fill: #4600b9; stroke: #4600b9"/>
     <use xlink:href="#mb9c5a6e22d" x="169.084221" y="91.25974" style="fill: #4600b9; stroke: #4600b9"/>
     <use xlink:href="#mb9c5a6e22d" x="179.936818" y="89.570485" style="fill: #4600b9; stroke: #4600b9"/>
     <use xlink:href="#mb9c5a6e22d" x="190.789416" y="100.063784" style="fill: #4600b9; stroke: #4600b9"/>
     <use xlink:href="#mb9c5a6e22d" x="201.642013" y="103.979344" style="fill: #4600b9; stroke: #4600b9"/>
     <use xlink:href="#mb9c5a6e22d" x="212.49461" y="94.61574" style="fill: #4600b9; stroke: #4600b9"/>
     <use xlink:href="#mb9c5a6e22d" x="223.347208" y="96.671745" style="fill: #4600b9; stroke: #4600b9"/>
     <use xlink:href="#mb9c5a6e22d" x="234.199805" y="99.62166" style="fill: #4600b9; stroke: #4600b9"/>
     <use xlink:href="#mb9c5a6e22d" x="245.052403" y="101.566821" style="fill: #4600b9; stroke: #4600b9"/>
     <use xlink:href="#mb9c5a6e22d" x="255.905" y="106.918118" style="fill: #4600b9; stroke: #4600b9"/>
     <use xlink:href="#mb9c5a6e22d" x="266.757597" y="111.975424" style="fill: #4600b9; stroke: #4600b9"/>
     <use xlink:href="#mb9c5a6e22d" x="277.610195" y="104.451253" style="fill: #4600b9; stroke: #4600b9"/>
     <use xlink:href="#mb9c5a6e22d" x="288.462792" y="111.144268" style="fill: #4600b9; stroke: #4600b9"/>
    </g>
   </g>
   <g id="line2d_20">
    <path d="M 136.526429 106.802273 
L 147.379026 114.657495 
L 158.231623 112.238833 
L 169.084221 106.486909 
L 179.936818 95.693253 
L 190.789416 108.870896 
L 201.642013 102.798833 
L 212.49461 107.182324 
L 223.347208 90.722689 
L 234.199805 99.753877 
L 245.052403 109.776175 
L 255.905 116.331289 
L 266.757597 122.380161 
" clip-path="url(#pd169d8d4f1)" style="fill: none; stroke: #5000af; stroke-width: 1.5; stroke-linecap: square"/>
    <defs>
     <path id="m18991772af" d="M 0 3 
C 0.795609 3 1.55874 2.683901 2.12132 2.12132 
C 2.683901 1.55874 3 0.795609 3 0 
C 3 -0.795609 2.683901 -1.55874 2.12132 -2.12132 
C 1.55874 -2.683901 0.795609 -3 0 -3 
C -0.795609 -3 -1.55874 -2.683901 -2.12132 -2.12132 
C -2.683901 -1.55874 -3 -0.795609 -3 0 
C -3 0.795609 -2.683901 1.55874 -2.12132 2.12132 
C -1.55874 2.683901 -0.795609 3 0 3 
z
" style="stroke: #5000af"/>
    </defs>
    <g clip-path="url(#pd169d8d4f1)">
     <use xlink:href="#m18991772af" x="136.526429" y="106.802273" style="fill: #5000af; stroke: #5000af"/>
     <use xlink:href="#m18991772af" x="147.379026" y="114.657495" style="fill: #5000af; stroke: #5000af"/>
     <use xlink:href="#m18991772af" x="158.231623" y="112.238833" style="fill: #5000af; stroke: #5000af"/>
     <use xlink:href="#m18991772af" x="169.084221" y="106.486909" style="fill: #5000af; stroke: #5000af"/>
     <use xlink:href="#m18991772af" x="179.936818" y="95.693253" style="fill: #5000af; stroke: #5000af"/>
     <use xlink:href="#m18991772af" x="190.789416" y="108.870896" style="fill: #5000af; stroke: #5000af"/>
     <use xlink:href="#m18991772af" x="201.642013" y="102.798833" style="fill: #5000af; stroke: #5000af"/>
     <use xlink:href="#m18991772af" x="212.49461" y="107.182324" style="fill: #5000af; stroke: #5000af"/>
     <use xlink:href="#m18991772af" x="223.347208" y="90.722689" style="fill: #5000af; stroke: #5000af"/>
     <use xlink:href="#m18991772af" x="234.199805" y="99.753877" style="fill: #5000af; stroke: #5000af"/>
     <use xlink:href="#m18991772af" x="245.052403" y="109.776175" style="fill: #5000af; stroke: #5000af"/>
     <use xlink:href="#m18991772af" x="255.905" y="116.331289" style="fill: #5000af; stroke: #5000af"/>
     <use xlink:href="#m18991772af" x="266.757597" y="122.380161" style="fill: #5000af; stroke: #5000af"/>
    </g>
   </g>
   <g id="line2d_21">
    <path d="M 125.673831 102.689695 
L 136.526429 107.432887 
L 147.379026 122.019891 
L 158.231623 115.418166 
L 169.084221 96.862964 
L 179.936818 99.482168 
L 190.789416 91.603412 
L 201.642013 110.637912 
L 212.49461 103.525511 
L 223.347208 109.20445 
L 234.199805 96.001341 
L 245.052403 104.186821 
L 255.905 111.742709 
" clip-path="url(#pd169d8d4f1)" style="fill: none; stroke: #5a00a5; stroke-width: 1.5; stroke-linecap: square"/>
    <defs>
     <path id="m7af95d1bf6" d="M 0 3 
C 0.795609 3 1.55874 2.683901 2.12132 2.12132 
C 2.683901 1.55874 3 0.795609 3 0 
C 3 -0.795609 2.683901 -1.55874 2.12132 -2.12132 
C 1.55874 -2.683901 0.795609 -3 0 -3 
C -0.795609 -3 -1.55874 -2.683901 -2.12132 -2.12132 
C -2.683901 -1.55874 -3 -0.795609 -3 0 
C -3 0.795609 -2.683901 1.55874 -2.12132 2.12132 
C -1.55874 2.683901 -0.795609 3 0 3 
z
" style="stroke: #5a00a5"/>
    </defs>
    <g clip-path="url(#pd169d8d4f1)">
     <use xlink:href="#m7af95d1bf6" x="125.673831" y="102.689695" style="fill: #5a00a5; stroke: #5a00a5"/>
     <use xlink:href="#m7af95d1bf6" x="136.526429" y="107.432887" style="fill: #5a00a5; stroke: #5a00a5"/>
     <use xlink:href="#m7af95d1bf6" x="147.379026" y="122.019891" style="fill: #5a00a5; stroke: #5a00a5"/>
     <use xlink:href="#m7af95d1bf6" x="158.231623" y="115.418166" style="fill: #5a00a5; stroke: #5a00a5"/>
     <use xlink:href="#m7af95d1bf6" x="169.084221" y="96.862964" style="fill: #5a00a5; stroke: #5a00a5"/>
     <use xlink:href="#m7af95d1bf6" x="179.936818" y="99.482168" style="fill: #5a00a5; stroke: #5a00a5"/>
     <use xlink:href="#m7af95d1bf6" x="190.789416" y="91.603412" style="fill: #5a00a5; stroke: #5a00a5"/>
     <use xlink:href="#m7af95d1bf6" x="201.642013" y="110.637912" style="fill: #5a00a5; stroke: #5a00a5"/>
     <use xlink:href="#m7af95d1bf6" x="212.49461" y="103.525511" style="fill: #5a00a5; stroke: #5a00a5"/>
     <use xlink:href="#m7af95d1bf6" x="223.347208" y="109.20445" style="fill: #5a00a5; stroke: #5a00a5"/>
     <use xlink:href="#m7af95d1bf6" x="234.199805" y="96.001341" style="fill: #5a00a5; stroke: #5a00a5"/>
     <use xlink:href="#m7af95d1bf6" x="245.052403" y="104.186821" style="fill: #5a00a5; stroke: #5a00a5"/>
     <use xlink:href="#m7af95d1bf6" x="255.905" y="111.742709" style="fill: #5a00a5; stroke: #5a00a5"/>
    </g>
   </g>
   <g id="line2d_22">
    <path d="M 125.673831 77.700227 
L 136.526429 77.85518 
L 147.379026 65.10761 
L 158.231623 61.884281 
L 169.084221 76.921253 
L 179.936818 77.659982 
L 190.789416 61.333701 
L 201.642013 43.446403 
L 212.49461 58.964379 
L 223.347208 64.043171 
L 234.199805 64.361377 
L 245.052403 72.718636 
" clip-path="url(#pd169d8d4f1)" style="fill: none; stroke: #64009b; stroke-width: 1.5; stroke-linecap: square"/>
    <defs>
     <path id="mfa97463f6c" d="M 0 3 
C 0.795609 3 1.55874 2.683901 2.12132 2.12132 
C 2.683901 1.55874 3 0.795609 3 0 
C 3 -0.795609 2.683901 -1.55874 2.12132 -2.12132 
C 1.55874 -2.683901 0.795609 -3 0 -3 
C -0.795609 -3 -1.55874 -2.683901 -2.12132 -2.12132 
C -2.683901 -1.55874 -3 -0.795609 -3 0 
C -3 0.795609 -2.683901 1.55874 -2.12132 2.12132 
C -1.55874 2.683901 -0.795609 3 0 3 
z
" style="stroke: #64009b"/>
    </defs>
    <g clip-path="url(#pd169d8d4f1)">
     <use xlink:href="#mfa97463f6c" x="125.673831" y="77.700227" style="fill: #64009b; stroke: #64009b"/>
     <use xlink:href="#mfa97463f6c" x="136.526429" y="77.85518" style="fill: #64009b; stroke: #64009b"/>
     <use xlink:href="#mfa97463f6c" x="147.379026" y="65.10761" style="fill: #64009b; stroke: #64009b"/>
     <use xlink:href="#mfa97463f6c" x="158.231623" y="61.884281" style="fill: #64009b; stroke: #64009b"/>
     <use xlink:href="#mfa97463f6c" x="169.084221" y="76.921253" style="fill: #64009b; stroke: #64009b"/>
     <use xlink:href="#mfa97463f6c" x="179.936818" y="77.659982" style="fill: #64009b; stroke: #64009b"/>
     <use xlink:href="#mfa97463f6c" x="190.789416" y="61.333701" style="fill: #64009b; stroke: #64009b"/>
     <use xlink:href="#mfa97463f6c" x="201.642013" y="43.446403" style="fill: #64009b; stroke: #64009b"/>
     <use xlink:href="#mfa97463f6c" x="212.49461" y="58.964379" style="fill: #64009b; stroke: #64009b"/>
     <use xlink:href="#mfa97463f6c" x="223.347208" y="64.043171" style="fill: #64009b; stroke: #64009b"/>
     <use xlink:href="#mfa97463f6c" x="234.199805" y="64.361377" style="fill: #64009b; stroke: #64009b"/>
     <use xlink:href="#mfa97463f6c" x="245.052403" y="72.718636" style="fill: #64009b; stroke: #64009b"/>
    </g>
   </g>
   <g id="line2d_23">
    <path d="M 125.673831 102.434357 
L 136.526429 108.270295 
L 147.379026 106.473835 
L 158.231623 103.53381 
L 169.084221 103.051101 
L 179.936818 103.499591 
L 190.789416 105.228977 
L 201.642013 102.953104 
L 212.49461 100.974406 
L 223.347208 110.858803 
L 234.199805 105.742268 
" clip-path="url(#pd169d8d4f1)" style="fill: none; stroke: #6e0091; stroke-width: 1.5; stroke-linecap: square"/>
    <defs>
     <path id="m270edec814" d="M 0 3 
C 0.795609 3 1.55874 2.683901 2.12132 2.12132 
C 2.683901 1.55874 3 0.795609 3 0 
C 3 -0.795609 2.683901 -1.55874 2.12132 -2.12132 
C 1.55874 -2.683901 0.795609 -3 0 -3 
C -0.795609 -3 -1.55874 -2.683901 -2.12132 -2.12132 
C -2.683901 -1.55874 -3 -0.795609 -3 0 
C -3 0.795609 -2.683901 1.55874 -2.12132 2.12132 
C -1.55874 2.683901 -0.795609 3 0 3 
z
" style="stroke: #6e0091"/>
    </defs>
    <g clip-path="url(#pd169d8d4f1)">
     <use xlink:href="#m270edec814" x="125.673831" y="102.434357" style="fill: #6e0091; stroke: #6e0091"/>
     <use xlink:href="#m270edec814" x="136.526429" y="108.270295" style="fill: #6e0091; stroke: #6e0091"/>
     <use xlink:href="#m270edec814" x="147.379026" y="106.473835" style="fill: #6e0091; stroke: #6e0091"/>
     <use xlink:href="#m270edec814" x="158.231623" y="103.53381" style="fill: #6e0091; stroke: #6e0091"/>
     <use xlink:href="#m270edec814" x="169.084221" y="103.051101" style="fill: #6e0091; stroke: #6e0091"/>
     <use xlink:href="#m270edec814" x="179.936818" y="103.499591" style="fill: #6e0091; stroke: #6e0091"/>
     <use xlink:href="#m270edec814" x="190.789416" y="105.228977" style="fill: #6e0091; stroke: #6e0091"/>
     <use xlink:href="#m270edec814" x="201.642013" y="102.953104" style="fill: #6e0091; stroke: #6e0091"/>
     <use xlink:href="#m270edec814" x="212.49461" y="100.974406" style="fill: #6e0091; stroke: #6e0091"/>
     <use xlink:href="#m270edec814" x="223.347208" y="110.858803" style="fill: #6e0091; stroke: #6e0091"/>
     <use xlink:href="#m270edec814" x="234.199805" y="105.742268" style="fill: #6e0091; stroke: #6e0091"/>
    </g>
   </g>
   <g id="line2d_24">
    <path d="M 125.673831 109.300855 
L 136.526429 106.497254 
L 147.379026 110.997727 
L 158.231623 103.783009 
L 169.084221 110.586754 
L 179.936818 106.751682 
L 190.789416 103.1433 
L 201.642013 104.402596 
L 212.49461 102.842829 
L 223.347208 112.012713 
" clip-path="url(#pd169d8d4f1)" style="fill: none; stroke: #780087; stroke-width: 1.5; stroke-linecap: square"/>
    <defs>
     <path id="mcc3ceed557" d="M 0 3 
C 0.795609 3 1.55874 2.683901 2.12132 2.12132 
C 2.683901 1.55874 3 0.795609 3 0 
C 3 -0.795609 2.683901 -1.55874 2.12132 -2.12132 
C 1.55874 -2.683901 0.795609 -3 0 -3 
C -0.795609 -3 -1.55874 -2.683901 -2.12132 -2.12132 
C -2.683901 -1.55874 -3 -0.795609 -3 0 
C -3 0.795609 -2.683901 1.55874 -2.12132 2.12132 
C -1.55874 2.683901 -0.795609 3 0 3 
z
" style="stroke: #780087"/>
    </defs>
    <g clip-path="url(#pd169d8d4f1)">
     <use xlink:href="#mcc3ceed557" x="125.673831" y="109.300855" style="fill: #780087; stroke: #780087"/>
     <use xlink:href="#mcc3ceed557" x="136.526429" y="106.497254" style="fill: #780087; stroke: #780087"/>
     <use xlink:href="#mcc3ceed557" x="147.379026" y="110.997727" style="fill: #780087; stroke: #780087"/>
     <use xlink:href="#mcc3ceed557" x="158.231623" y="103.783009" style="fill: #780087; stroke: #780087"/>
     <use xlink:href="#mcc3ceed557" x="169.084221" y="110.586754" style="fill: #780087; stroke: #780087"/>
     <use xlink:href="#mcc3ceed557" x="179.936818" y="106.751682" style="fill: #780087; stroke: #780087"/>
     <use xlink:href="#mcc3ceed557" x="190.789416" y="103.1433" style="fill: #780087; stroke: #780087"/>
     <use xlink:href="#mcc3ceed557" x="201.642013" y="104.402596" style="fill: #780087; stroke: #780087"/>
     <use xlink:href="#mcc3ceed557" x="212.49461" y="102.842829" style="fill: #780087; stroke: #780087"/>
     <use xlink:href="#mcc3ceed557" x="223.347208" y="112.012713" style="fill: #780087; stroke: #780087"/>
    </g>
   </g>
   <g id="line2d_25">
    <path d="M 114.821234 116.018426 
L 125.673831 125.822221 
L 136.526429 114.400225 
L 147.379026 114.227536 
L 158.231623 115.045732 
L 169.084221 113.931499 
L 179.936818 114.902943 
L 190.789416 114.548471 
L 201.642013 119.739016 
L 212.49461 114.406136 
L 223.347208 113.647853 
" clip-path="url(#pd169d8d4f1)" style="fill: none; stroke: #82007d; stroke-width: 1.5; stroke-linecap: square"/>
    <defs>
     <path id="m4ff9e97bc9" d="M 0 3 
C 0.795609 3 1.55874 2.683901 2.12132 2.12132 
C 2.683901 1.55874 3 0.795609 3 0 
C 3 -0.795609 2.683901 -1.55874 2.12132 -2.12132 
C 1.55874 -2.683901 0.795609 -3 0 -3 
C -0.795609 -3 -1.55874 -2.683901 -2.12132 -2.12132 
C -2.683901 -1.55874 -3 -0.795609 -3 0 
C -3 0.795609 -2.683901 1.55874 -2.12132 2.12132 
C -1.55874 2.683901 -0.795609 3 0 3 
z
" style="stroke: #82007d"/>
    </defs>
    <g clip-path="url(#pd169d8d4f1)">
     <use xlink:href="#m4ff9e97bc9" x="114.821234" y="116.018426" style="fill: #82007d; stroke: #82007d"/>
     <use xlink:href="#m4ff9e97bc9" x="125.673831" y="125.822221" style="fill: #82007d; stroke: #82007d"/>
     <use xlink:href="#m4ff9e97bc9" x="136.526429" y="114.400225" style="fill: #82007d; stroke: #82007d"/>
     <use xlink:href="#m4ff9e97bc9" x="147.379026" y="114.227536" style="fill: #82007d; stroke: #82007d"/>
     <use xlink:href="#m4ff9e97bc9" x="158.231623" y="115.045732" style="fill: #82007d; stroke: #82007d"/>
     <use xlink:href="#m4ff9e97bc9" x="169.084221" y="113.931499" style="fill: #82007d; stroke: #82007d"/>
     <use xlink:href="#m4ff9e97bc9" x="179.936818" y="114.902943" style="fill: #82007d; stroke: #82007d"/>
     <use xlink:href="#m4ff9e97bc9" x="190.789416" y="114.548471" style="fill: #82007d; stroke: #82007d"/>
     <use xlink:href="#m4ff9e97bc9" x="201.642013" y="119.739016" style="fill: #82007d; stroke: #82007d"/>
     <use xlink:href="#m4ff9e97bc9" x="212.49461" y="114.406136" style="fill: #82007d; stroke: #82007d"/>
     <use xlink:href="#m4ff9e97bc9" x="223.347208" y="113.647853" style="fill: #82007d; stroke: #82007d"/>
    </g>
   </g>
   <g id="line2d_26">
    <path d="M 114.821234 116.372898 
L 125.673831 118.616029 
L 136.526429 114.557566 
L 147.379026 115.435333 
L 158.231623 115.050393 
L 169.084221 113.997209 
L 179.936818 113.284173 
L 190.789416 113.559633 
L 201.642013 116.128815 
L 212.49461 114.962969 
" clip-path="url(#pd169d8d4f1)" style="fill: none; stroke: #8c0073; stroke-width: 1.5; stroke-linecap: square"/>
    <defs>
     <path id="mc5466d47d1" d="M 0 3 
C 0.795609 3 1.55874 2.683901 2.12132 2.12132 
C 2.683901 1.55874 3 0.795609 3 0 
C 3 -0.795609 2.683901 -1.55874 2.12132 -2.12132 
C 1.55874 -2.683901 0.795609 -3 0 -3 
C -0.795609 -3 -1.55874 -2.683901 -2.12132 -2.12132 
C -2.683901 -1.55874 -3 -0.795609 -3 0 
C -3 0.795609 -2.683901 1.55874 -2.12132 2.12132 
C -1.55874 2.683901 -0.795609 3 0 3 
z
" style="stroke: #8c0073"/>
    </defs>
    <g clip-path="url(#pd169d8d4f1)">
     <use xlink:href="#mc5466d47d1" x="114.821234" y="116.372898" style="fill: #8c0073; stroke: #8c0073"/>
     <use xlink:href="#mc5466d47d1" x="125.673831" y="118.616029" style="fill: #8c0073; stroke: #8c0073"/>
     <use xlink:href="#mc5466d47d1" x="136.526429" y="114.557566" style="fill: #8c0073; stroke: #8c0073"/>
     <use xlink:href="#mc5466d47d1" x="147.379026" y="115.435333" style="fill: #8c0073; stroke: #8c0073"/>
     <use xlink:href="#mc5466d47d1" x="158.231623" y="115.050393" style="fill: #8c0073; stroke: #8c0073"/>
     <use xlink:href="#mc5466d47d1" x="169.084221" y="113.997209" style="fill: #8c0073; stroke: #8c0073"/>
     <use xlink:href="#mc5466d47d1" x="179.936818" y="113.284173" style="fill: #8c0073; stroke: #8c0073"/>
     <use xlink:href="#mc5466d47d1" x="190.789416" y="113.559633" style="fill: #8c0073; stroke: #8c0073"/>
     <use xlink:href="#mc5466d47d1" x="201.642013" y="116.128815" style="fill: #8c0073; stroke: #8c0073"/>
     <use xlink:href="#mc5466d47d1" x="212.49461" y="114.962969" style="fill: #8c0073; stroke: #8c0073"/>
    </g>
   </g>
   <g id="line2d_27">
    <path d="M 114.821234 82.956255 
L 125.673831 84.334921 
L 136.526429 74.615367 
L 147.379026 82.74696 
L 158.231623 66.473656 
L 169.084221 86.236427 
L 179.936818 91.881032 
L 190.789416 78.12723 
L 201.642013 90.63788 
" clip-path="url(#pd169d8d4f1)" style="fill: none; stroke: #960069; stroke-width: 1.5; stroke-linecap: square"/>
    <defs>
     <path id="m7fb0e16bb8" d="M 0 3 
C 0.795609 3 1.55874 2.683901 2.12132 2.12132 
C 2.683901 1.55874 3 0.795609 3 0 
C 3 -0.795609 2.683901 -1.55874 2.12132 -2.12132 
C 1.55874 -2.683901 0.795609 -3 0 -3 
C -0.795609 -3 -1.55874 -2.683901 -2.12132 -2.12132 
C -2.683901 -1.55874 -3 -0.795609 -3 0 
C -3 0.795609 -2.683901 1.55874 -2.12132 2.12132 
C -1.55874 2.683901 -0.795609 3 0 3 
z
" style="stroke: #960069"/>
    </defs>
    <g clip-path="url(#pd169d8d4f1)">
     <use xlink:href="#m7fb0e16bb8" x="114.821234" y="82.956255" style="fill: #960069; stroke: #960069"/>
     <use xlink:href="#m7fb0e16bb8" x="125.673831" y="84.334921" style="fill: #960069; stroke: #960069"/>
     <use xlink:href="#m7fb0e16bb8" x="136.526429" y="74.615367" style="fill: #960069; stroke: #960069"/>
     <use xlink:href="#m7fb0e16bb8" x="147.379026" y="82.74696" style="fill: #960069; stroke: #960069"/>
     <use xlink:href="#m7fb0e16bb8" x="158.231623" y="66.473656" style="fill: #960069; stroke: #960069"/>
     <use xlink:href="#m7fb0e16bb8" x="169.084221" y="86.236427" style="fill: #960069; stroke: #960069"/>
     <use xlink:href="#m7fb0e16bb8" x="179.936818" y="91.881032" style="fill: #960069; stroke: #960069"/>
     <use xlink:href="#m7fb0e16bb8" x="190.789416" y="78.12723" style="fill: #960069; stroke: #960069"/>
     <use xlink:href="#m7fb0e16bb8" x="201.642013" y="90.63788" style="fill: #960069; stroke: #960069"/>
    </g>
   </g>
   <g id="line2d_28">
    <path d="M 114.821234 89.409279 
L 125.673831 85.73314 
L 136.526429 81.625792 
L 147.379026 86.25257 
L 158.231623 81.10875 
L 169.084221 87.925454 
L 179.936818 92.862708 
L 190.789416 86.457659 
L 201.642013 87.441153 
" clip-path="url(#pd169d8d4f1)" style="fill: none; stroke: #a0005f; stroke-width: 1.5; stroke-linecap: square"/>
    <defs>
     <path id="mb0f4bfd675" d="M 0 3 
C 0.795609 3 1.55874 2.683901 2.12132 2.12132 
C 2.683901 1.55874 3 0.795609 3 0 
C 3 -0.795609 2.683901 -1.55874 2.12132 -2.12132 
C 1.55874 -2.683901 0.795609 -3 0 -3 
C -0.795609 -3 -1.55874 -2.683901 -2.12132 -2.12132 
C -2.683901 -1.55874 -3 -0.795609 -3 0 
C -3 0.795609 -2.683901 1.55874 -2.12132 2.12132 
C -1.55874 2.683901 -0.795609 3 0 3 
z
" style="stroke: #a0005f"/>
    </defs>
    <g clip-path="url(#pd169d8d4f1)">
     <use xlink:href="#mb0f4bfd675" x="114.821234" y="89.409279" style="fill: #a0005f; stroke: #a0005f"/>
     <use xlink:href="#mb0f4bfd675" x="125.673831" y="85.73314" style="fill: #a0005f; stroke: #a0005f"/>
     <use xlink:href="#mb0f4bfd675" x="136.526429" y="81.625792" style="fill: #a0005f; stroke: #a0005f"/>
     <use xlink:href="#mb0f4bfd675" x="147.379026" y="86.25257" style="fill: #a0005f; stroke: #a0005f"/>
     <use xlink:href="#mb0f4bfd675" x="158.231623" y="81.10875" style="fill: #a0005f; stroke: #a0005f"/>
     <use xlink:href="#mb0f4bfd675" x="169.084221" y="87.925454" style="fill: #a0005f; stroke: #a0005f"/>
     <use xlink:href="#mb0f4bfd675" x="179.936818" y="92.862708" style="fill: #a0005f; stroke: #a0005f"/>
     <use xlink:href="#mb0f4bfd675" x="190.789416" y="86.457659" style="fill: #a0005f; stroke: #a0005f"/>
     <use xlink:href="#mb0f4bfd675" x="201.642013" y="87.441153" style="fill: #a0005f; stroke: #a0005f"/>
    </g>
   </g>
   <g id="line2d_29">
    <path d="M 114.821234 68.878562 
L 125.673831 48.344549 
L 136.526429 51.426453 
L 147.379026 52.975419 
L 158.231623 54.203906 
L 169.084221 40.509562 
L 179.936818 52.235212 
L 190.789416 49.741518 
" clip-path="url(#pd169d8d4f1)" style="fill: none; stroke: #aa0055; stroke-width: 1.5; stroke-linecap: square"/>
    <defs>
     <path id="m52f4c468f1" d="M 0 3 
C 0.795609 3 1.55874 2.683901 2.12132 2.12132 
C 2.683901 1.55874 3 0.795609 3 0 
C 3 -0.795609 2.683901 -1.55874 2.12132 -2.12132 
C 1.55874 -2.683901 0.795609 -3 0 -3 
C -0.795609 -3 -1.55874 -2.683901 -2.12132 -2.12132 
C -2.683901 -1.55874 -3 -0.795609 -3 0 
C -3 0.795609 -2.683901 1.55874 -2.12132 2.12132 
C -1.55874 2.683901 -0.795609 3 0 3 
z
" style="stroke: #aa0055"/>
    </defs>
    <g clip-path="url(#pd169d8d4f1)">
     <use xlink:href="#m52f4c468f1" x="114.821234" y="68.878562" style="fill: #aa0055; stroke: #aa0055"/>
     <use xlink:href="#m52f4c468f1" x="125.673831" y="48.344549" style="fill: #aa0055; stroke: #aa0055"/>
     <use xlink:href="#m52f4c468f1" x="136.526429" y="51.426453" style="fill: #aa0055; stroke: #aa0055"/>
     <use xlink:href="#m52f4c468f1" x="147.379026" y="52.975419" style="fill: #aa0055; stroke: #aa0055"/>
     <use xlink:href="#m52f4c468f1" x="158.231623" y="54.203906" style="fill: #aa0055; stroke: #aa0055"/>
     <use xlink:href="#m52f4c468f1" x="169.084221" y="40.509562" style="fill: #aa0055; stroke: #aa0055"/>
     <use xlink:href="#m52f4c468f1" x="179.936818" y="52.235212" style="fill: #aa0055; stroke: #aa0055"/>
     <use xlink:href="#m52f4c468f1" x="190.789416" y="49.741518" style="fill: #aa0055; stroke: #aa0055"/>
    </g>
   </g>
   <g id="line2d_30">
    <path d="M 114.821234 73.579122 
L 125.673831 68.169164 
L 136.526429 51.928375 
L 147.379026 70.698442 
L 158.231623 75.71789 
L 169.084221 61.863363 
L 179.936818 65.421382 
L 190.789416 64.491888 
" clip-path="url(#pd169d8d4f1)" style="fill: none; stroke: #b4004b; stroke-width: 1.5; stroke-linecap: square"/>
    <defs>
     <path id="m05df0d31be" d="M 0 3 
C 0.795609 3 1.55874 2.683901 2.12132 2.12132 
C 2.683901 1.55874 3 0.795609 3 0 
C 3 -0.795609 2.683901 -1.55874 2.12132 -2.12132 
C 1.55874 -2.683901 0.795609 -3 0 -3 
C -0.795609 -3 -1.55874 -2.683901 -2.12132 -2.12132 
C -2.683901 -1.55874 -3 -0.795609 -3 0 
C -3 0.795609 -2.683901 1.55874 -2.12132 2.12132 
C -1.55874 2.683901 -0.795609 3 0 3 
z
" style="stroke: #b4004b"/>
    </defs>
    <g clip-path="url(#pd169d8d4f1)">
     <use xlink:href="#m05df0d31be" x="114.821234" y="73.579122" style="fill: #b4004b; stroke: #b4004b"/>
     <use xlink:href="#m05df0d31be" x="125.673831" y="68.169164" style="fill: #b4004b; stroke: #b4004b"/>
     <use xlink:href="#m05df0d31be" x="136.526429" y="51.928375" style="fill: #b4004b; stroke: #b4004b"/>
     <use xlink:href="#m05df0d31be" x="147.379026" y="70.698442" style="fill: #b4004b; stroke: #b4004b"/>
     <use xlink:href="#m05df0d31be" x="158.231623" y="75.71789" style="fill: #b4004b; stroke: #b4004b"/>
     <use xlink:href="#m05df0d31be" x="169.084221" y="61.863363" style="fill: #b4004b; stroke: #b4004b"/>
     <use xlink:href="#m05df0d31be" x="179.936818" y="65.421382" style="fill: #b4004b; stroke: #b4004b"/>
     <use xlink:href="#m05df0d31be" x="190.789416" y="64.491888" style="fill: #b4004b; stroke: #b4004b"/>
    </g>
   </g>
   <g id="line2d_31">
    <path d="M 114.821234 85.328874 
L 125.673831 75.223926 
L 136.526429 74.207463 
L 147.379026 80.027031 
L 158.231623 76.394434 
L 169.084221 69.0907 
L 179.936818 57.970425 
" clip-path="url(#pd169d8d4f1)" style="fill: none; stroke: #be0041; stroke-width: 1.5; stroke-linecap: square"/>
    <defs>
     <path id="me0d836375b" d="M 0 3 
C 0.795609 3 1.55874 2.683901 2.12132 2.12132 
C 2.683901 1.55874 3 0.795609 3 0 
C 3 -0.795609 2.683901 -1.55874 2.12132 -2.12132 
C 1.55874 -2.683901 0.795609 -3 0 -3 
C -0.795609 -3 -1.55874 -2.683901 -2.12132 -2.12132 
C -2.683901 -1.55874 -3 -0.795609 -3 0 
C -3 0.795609 -2.683901 1.55874 -2.12132 2.12132 
C -1.55874 2.683901 -0.795609 3 0 3 
z
" style="stroke: #be0041"/>
    </defs>
    <g clip-path="url(#pd169d8d4f1)">
     <use xlink:href="#me0d836375b" x="114.821234" y="85.328874" style="fill: #be0041; stroke: #be0041"/>
     <use xlink:href="#me0d836375b" x="125.673831" y="75.223926" style="fill: #be0041; stroke: #be0041"/>
     <use xlink:href="#me0d836375b" x="136.526429" y="74.207463" style="fill: #be0041; stroke: #be0041"/>
     <use xlink:href="#me0d836375b" x="147.379026" y="80.027031" style="fill: #be0041; stroke: #be0041"/>
     <use xlink:href="#me0d836375b" x="158.231623" y="76.394434" style="fill: #be0041; stroke: #be0041"/>
     <use xlink:href="#me0d836375b" x="169.084221" y="69.0907" style="fill: #be0041; stroke: #be0041"/>
     <use xlink:href="#me0d836375b" x="179.936818" y="57.970425" style="fill: #be0041; stroke: #be0041"/>
    </g>
   </g>
   <g id="line2d_32">
    <path d="M 114.821234 41.707013 
L 125.673831 18.86302 
L 136.526429 47.877642 
L 147.379026 52.992813 
L 158.231623 48.177885 
L 169.084221 14.516364 
L 179.936818 35.415081 
" clip-path="url(#pd169d8d4f1)" style="fill: none; stroke: #c80037; stroke-width: 1.5; stroke-linecap: square"/>
    <defs>
     <path id="m5e275203cc" d="M 0 3 
C 0.795609 3 1.55874 2.683901 2.12132 2.12132 
C 2.683901 1.55874 3 0.795609 3 0 
C 3 -0.795609 2.683901 -1.55874 2.12132 -2.12132 
C 1.55874 -2.683901 0.795609 -3 0 -3 
C -0.795609 -3 -1.55874 -2.683901 -2.12132 -2.12132 
C -2.683901 -1.55874 -3 -0.795609 -3 0 
C -3 0.795609 -2.683901 1.55874 -2.12132 2.12132 
C -1.55874 2.683901 -0.795609 3 0 3 
z
" style="stroke: #c80037"/>
    </defs>
    <g clip-path="url(#pd169d8d4f1)">
     <use xlink:href="#m5e275203cc" x="114.821234" y="41.707013" style="fill: #c80037; stroke: #c80037"/>
     <use xlink:href="#m5e275203cc" x="125.673831" y="18.86302" style="fill: #c80037; stroke: #c80037"/>
     <use xlink:href="#m5e275203cc" x="136.526429" y="47.877642" style="fill: #c80037; stroke: #c80037"/>
     <use xlink:href="#m5e275203cc" x="147.379026" y="52.992813" style="fill: #c80037; stroke: #c80037"/>
     <use xlink:href="#m5e275203cc" x="158.231623" y="48.177885" style="fill: #c80037; stroke: #c80037"/>
     <use xlink:href="#m5e275203cc" x="169.084221" y="14.516364" style="fill: #c80037; stroke: #c80037"/>
     <use xlink:href="#m5e275203cc" x="179.936818" y="35.415081" style="fill: #c80037; stroke: #c80037"/>
    </g>
   </g>
   <g id="line2d_33">
    <path d="M 103.968636 65.685701 
L 114.821234 59.965381 
L 125.673831 76.558141 
L 136.526429 62.728169 
L 147.379026 60.372603 
L 158.231623 55.765606 
L 169.084221 73.263872 
L 179.936818 59.156849 
" clip-path="url(#pd169d8d4f1)" style="fill: none; stroke: #d2002d; stroke-width: 1.5; stroke-linecap: square"/>
    <defs>
     <path id="ma6a32fcdbe" d="M 0 3 
C 0.795609 3 1.55874 2.683901 2.12132 2.12132 
C 2.683901 1.55874 3 0.795609 3 0 
C 3 -0.795609 2.683901 -1.55874 2.12132 -2.12132 
C 1.55874 -2.683901 0.795609 -3 0 -3 
C -0.795609 -3 -1.55874 -2.683901 -2.12132 -2.12132 
C -2.683901 -1.55874 -3 -0.795609 -3 0 
C -3 0.795609 -2.683901 1.55874 -2.12132 2.12132 
C -1.55874 2.683901 -0.795609 3 0 3 
z
" style="stroke: #d2002d"/>
    </defs>
    <g clip-path="url(#pd169d8d4f1)">
     <use xlink:href="#ma6a32fcdbe" x="103.968636" y="65.685701" style="fill: #d2002d; stroke: #d2002d"/>
     <use xlink:href="#ma6a32fcdbe" x="114.821234" y="59.965381" style="fill: #d2002d; stroke: #d2002d"/>
     <use xlink:href="#ma6a32fcdbe" x="125.673831" y="76.558141" style="fill: #d2002d; stroke: #d2002d"/>
     <use xlink:href="#ma6a32fcdbe" x="136.526429" y="62.728169" style="fill: #d2002d; stroke: #d2002d"/>
     <use xlink:href="#ma6a32fcdbe" x="147.379026" y="60.372603" style="fill: #d2002d; stroke: #d2002d"/>
     <use xlink:href="#ma6a32fcdbe" x="158.231623" y="55.765606" style="fill: #d2002d; stroke: #d2002d"/>
     <use xlink:href="#ma6a32fcdbe" x="169.084221" y="73.263872" style="fill: #d2002d; stroke: #d2002d"/>
     <use xlink:href="#ma6a32fcdbe" x="179.936818" y="59.156849" style="fill: #d2002d; stroke: #d2002d"/>
    </g>
   </g>
   <g id="line2d_34">
    <path d="M 103.968636 73.790805 
L 114.821234 71.931022 
L 125.673831 59.153893 
L 136.526429 61.964088 
L 147.379026 63.18223 
L 158.231623 59.583966 
L 169.084221 56.639621 
" clip-path="url(#pd169d8d4f1)" style="fill: none; stroke: #dc0023; stroke-width: 1.5; stroke-linecap: square"/>
    <defs>
     <path id="mf71bd9e657" d="M 0 3 
C 0.795609 3 1.55874 2.683901 2.12132 2.12132 
C 2.683901 1.55874 3 0.795609 3 0 
C 3 -0.795609 2.683901 -1.55874 2.12132 -2.12132 
C 1.55874 -2.683901 0.795609 -3 0 -3 
C -0.795609 -3 -1.55874 -2.683901 -2.12132 -2.12132 
C -2.683901 -1.55874 -3 -0.795609 -3 0 
C -3 0.795609 -2.683901 1.55874 -2.12132 2.12132 
C -1.55874 2.683901 -0.795609 3 0 3 
z
" style="stroke: #dc0023"/>
    </defs>
    <g clip-path="url(#pd169d8d4f1)">
     <use xlink:href="#mf71bd9e657" x="103.968636" y="73.790805" style="fill: #dc0023; stroke: #dc0023"/>
     <use xlink:href="#mf71bd9e657" x="114.821234" y="71.931022" style="fill: #dc0023; stroke: #dc0023"/>
     <use xlink:href="#mf71bd9e657" x="125.673831" y="59.153893" style="fill: #dc0023; stroke: #dc0023"/>
     <use xlink:href="#mf71bd9e657" x="136.526429" y="61.964088" style="fill: #dc0023; stroke: #dc0023"/>
     <use xlink:href="#mf71bd9e657" x="147.379026" y="63.18223" style="fill: #dc0023; stroke: #dc0023"/>
     <use xlink:href="#mf71bd9e657" x="158.231623" y="59.583966" style="fill: #dc0023; stroke: #dc0023"/>
     <use xlink:href="#mf71bd9e657" x="169.084221" y="56.639621" style="fill: #dc0023; stroke: #dc0023"/>
    </g>
   </g>
   <g id="line2d_35">
    <path d="M 103.968636 41.797279 
L 114.821234 44.121013 
L 125.673831 63.327179 
L 136.526429 39.467406 
L 147.379026 24.265817 
L 158.231623 38.22971 
L 169.084221 31.987118 
" clip-path="url(#pd169d8d4f1)" style="fill: none; stroke: #e60019; stroke-width: 1.5; stroke-linecap: square"/>
    <defs>
     <path id="m8731e54a5d" d="M 0 3 
C 0.795609 3 1.55874 2.683901 2.12132 2.12132 
C 2.683901 1.55874 3 0.795609 3 0 
C 3 -0.795609 2.683901 -1.55874 2.12132 -2.12132 
C 1.55874 -2.683901 0.795609 -3 0 -3 
C -0.795609 -3 -1.55874 -2.683901 -2.12132 -2.12132 
C -2.683901 -1.55874 -3 -0.795609 -3 0 
C -3 0.795609 -2.683901 1.55874 -2.12132 2.12132 
C -1.55874 2.683901 -0.795609 3 0 3 
z
" style="stroke: #e60019"/>
    </defs>
    <g clip-path="url(#pd169d8d4f1)">
     <use xlink:href="#m8731e54a5d" x="103.968636" y="41.797279" style="fill: #e60019; stroke: #e60019"/>
     <use xlink:href="#m8731e54a5d" x="114.821234" y="44.121013" style="fill: #e60019; stroke: #e60019"/>
     <use xlink:href="#m8731e54a5d" x="125.673831" y="63.327179" style="fill: #e60019; stroke: #e60019"/>
     <use xlink:href="#m8731e54a5d" x="136.526429" y="39.467406" style="fill: #e60019; stroke: #e60019"/>
     <use xlink:href="#m8731e54a5d" x="147.379026" y="24.265817" style="fill: #e60019; stroke: #e60019"/>
     <use xlink:href="#m8731e54a5d" x="158.231623" y="38.22971" style="fill: #e60019; stroke: #e60019"/>
     <use xlink:href="#m8731e54a5d" x="169.084221" y="31.987118" style="fill: #e60019; stroke: #e60019"/>
    </g>
   </g>
   <g id="line2d_36">
    <path d="M 103.968636 43.074992 
L 114.821234 60.714115 
L 125.673831 55.702283 
L 136.526429 58.77964 
L 147.379026 41.739413 
L 158.231623 60.410347 
L 169.084221 52.643344 
" clip-path="url(#pd169d8d4f1)" style="fill: none; stroke: #f0000f; stroke-width: 1.5; stroke-linecap: square"/>
    <defs>
     <path id="me1bdb522a3" d="M 0 3 
C 0.795609 3 1.55874 2.683901 2.12132 2.12132 
C 2.683901 1.55874 3 0.795609 3 0 
C 3 -0.795609 2.683901 -1.55874 2.12132 -2.12132 
C 1.55874 -2.683901 0.795609 -3 0 -3 
C -0.795609 -3 -1.55874 -2.683901 -2.12132 -2.12132 
C -2.683901 -1.55874 -3 -0.795609 -3 0 
C -3 0.795609 -2.683901 1.55874 -2.12132 2.12132 
C -1.55874 2.683901 -0.795609 3 0 3 
z
" style="stroke: #f0000f"/>
    </defs>
    <g clip-path="url(#pd169d8d4f1)">
     <use xlink:href="#me1bdb522a3" x="103.968636" y="43.074992" style="fill: #f0000f; stroke: #f0000f"/>
     <use xlink:href="#me1bdb522a3" x="114.821234" y="60.714115" style="fill: #f0000f; stroke: #f0000f"/>
     <use xlink:href="#me1bdb522a3" x="125.673831" y="55.702283" style="fill: #f0000f; stroke: #f0000f"/>
     <use xlink:href="#me1bdb522a3" x="136.526429" y="58.77964" style="fill: #f0000f; stroke: #f0000f"/>
     <use xlink:href="#me1bdb522a3" x="147.379026" y="41.739413" style="fill: #f0000f; stroke: #f0000f"/>
     <use xlink:href="#me1bdb522a3" x="158.231623" y="60.410347" style="fill: #f0000f; stroke: #f0000f"/>
     <use xlink:href="#me1bdb522a3" x="169.084221" y="52.643344" style="fill: #f0000f; stroke: #f0000f"/>
    </g>
   </g>
   <g id="line2d_37">
    <path d="M 103.968636 80.368884 
L 114.821234 84.364706 
L 125.673831 70.422413 
L 136.526429 82.459904 
L 147.379026 70.842823 
L 158.231623 68.921877 
L 169.084221 78.577312 
" clip-path="url(#pd169d8d4f1)" style="fill: none; stroke: #fa0005; stroke-width: 1.5; stroke-linecap: square"/>
    <defs>
     <path id="ma0611ec66f" d="M 0 3 
C 0.795609 3 1.55874 2.683901 2.12132 2.12132 
C 2.683901 1.55874 3 0.795609 3 0 
C 3 -0.795609 2.683901 -1.55874 2.12132 -2.12132 
C 1.55874 -2.683901 0.795609 -3 0 -3 
C -0.795609 -3 -1.55874 -2.683901 -2.12132 -2.12132 
C -2.683901 -1.55874 -3 -0.795609 -3 0 
C -3 0.795609 -2.683901 1.55874 -2.12132 2.12132 
C -1.55874 2.683901 -0.795609 3 0 3 
z
" style="stroke: #fa0005"/>
    </defs>
    <g clip-path="url(#pd169d8d4f1)">
     <use xlink:href="#ma0611ec66f" x="103.968636" y="80.368884" style="fill: #fa0005; stroke: #fa0005"/>
     <use xlink:href="#ma0611ec66f" x="114.821234" y="84.364706" style="fill: #fa0005; stroke: #fa0005"/>
     <use xlink:href="#ma0611ec66f" x="125.673831" y="70.422413" style="fill: #fa0005; stroke: #fa0005"/>
     <use xlink:href="#ma0611ec66f" x="136.526429" y="82.459904" style="fill: #fa0005; stroke: #fa0005"/>
     <use xlink:href="#ma0611ec66f" x="147.379026" y="70.842823" style="fill: #fa0005; stroke: #fa0005"/>
     <use xlink:href="#ma0611ec66f" x="158.231623" y="68.921877" style="fill: #fa0005; stroke: #fa0005"/>
     <use xlink:href="#ma0611ec66f" x="169.084221" y="78.577312" style="fill: #fa0005; stroke: #fa0005"/>
    </g>
   </g>
   <g id="patch_3">
    <path d="M 88.775 215.2 
L 88.775 4.96 
" style="fill: none; stroke: #000000; stroke-width: 0.8; stroke-linejoin: miter; stroke-linecap: square"/>
   </g>
   <g id="patch_4">
    <path d="M 423.035 215.2 
L 423.035 4.96 
" style="fill: none; stroke: #000000; stroke-width: 0.8; stroke-linejoin: miter; stroke-linecap: square"/>
   </g>
   <g id="patch_5">
    <path d="M 88.775 215.2 
L 423.035 215.2 
" style="fill: none; stroke: #000000; stroke-width: 0.8; stroke-linejoin: miter; stroke-linecap: square"/>
   </g>
   <g id="patch_6">
    <path d="M 88.775 4.96 
L 423.035 4.96 
" style="fill: none; stroke: #000000; stroke-width: 0.8; stroke-linejoin: miter; stroke-linecap: square"/>
   </g>
   <g id="line2d_38">
    <path d="M 88.775 113.398995 
L 423.035 113.398995 
" clip-path="url(#pd169d8d4f1)" style="fill: none; stroke-dasharray: 3.7,1.6; stroke-dashoffset: 0; stroke: #000000"/>
   </g>
   <g id="legend_1">
    <g id="patch_7">
     <path d="M 325.314687 210.2 
L 416.035 210.2 
Q 418.035 210.2 418.035 208.2 
L 418.035 121.13125 
Q 418.035 119.13125 416.035 119.13125 
L 325.314687 119.13125 
Q 323.314687 119.13125 323.314687 121.13125 
L 323.314687 208.2 
Q 323.314687 210.2 325.314687 210.2 
z
" style="fill: #ffffff; opacity: 0.8"/>
    </g>
    <g id="line2d_39">
     <path d="M 327.314687 127.229688 
L 337.314687 127.229688 
L 347.314687 127.229688 
" style="fill: none; stroke: #0000ff; stroke-width: 1.5; stroke-linecap: square"/>
     <g>
      <use xlink:href="#mf8518a8f55" x="337.314687" y="127.229688" style="fill: #0000ff; stroke: #0000ff"/>
     </g>
    </g>
    <g id="text_14">
     <!-- 5-9 teeth -->
     <g transform="translate(355.314687 130.729688) scale(0.1 -0.1)">
      <defs>
       <path id="DejaVuSans-2d" d="M 313 2009 
L 1997 2009 
L 1997 1497 
L 313 1497 
L 313 2009 
z
" transform="scale(0.015625)"/>
       <path id="DejaVuSans-39" d="M 703 97 
L 703 672 
Q 941 559 1184 500 
Q 1428 441 1663 441 
Q 2288 441 2617 861 
Q 2947 1281 2994 2138 
Q 2813 1869 2534 1725 
Q 2256 1581 1919 1581 
Q 1219 1581 811 2004 
Q 403 2428 403 3163 
Q 403 3881 828 4315 
Q 1253 4750 1959 4750 
Q 2769 4750 3195 4129 
Q 3622 3509 3622 2328 
Q 3622 1225 3098 567 
Q 2575 -91 1691 -91 
Q 1453 -91 1209 -44 
Q 966 3 703 97 
z
M 1959 2075 
Q 2384 2075 2632 2365 
Q 2881 2656 2881 3163 
Q 2881 3666 2632 3958 
Q 2384 4250 1959 4250 
Q 1534 4250 1286 3958 
Q 1038 3666 1038 3163 
Q 1038 2656 1286 2365 
Q 1534 2075 1959 2075 
z
" transform="scale(0.015625)"/>
       <path id="DejaVuSans-68" d="M 3513 2113 
L 3513 0 
L 2938 0 
L 2938 2094 
Q 2938 2591 2744 2837 
Q 2550 3084 2163 3084 
Q 1697 3084 1428 2787 
Q 1159 2491 1159 1978 
L 1159 0 
L 581 0 
L 581 4863 
L 1159 4863 
L 1159 2956 
Q 1366 3272 1645 3428 
Q 1925 3584 2291 3584 
Q 2894 3584 3203 3211 
Q 3513 2838 3513 2113 
z
" transform="scale(0.015625)"/>
      </defs>
      <use xlink:href="#DejaVuSans-35"/>
      <use xlink:href="#DejaVuSans-2d" transform="translate(63.623047 0)"/>
      <use xlink:href="#DejaVuSans-39" transform="translate(99.707031 0)"/>
      <use xlink:href="#DejaVuSans-20" transform="translate(163.330078 0)"/>
      <use xlink:href="#DejaVuSans-74" transform="translate(195.117188 0)"/>
      <use xlink:href="#DejaVuSans-65" transform="translate(234.326172 0)"/>
      <use xlink:href="#DejaVuSans-65" transform="translate(295.849609 0)"/>
      <use xlink:href="#DejaVuSans-74" transform="translate(357.373047 0)"/>
      <use xlink:href="#DejaVuSans-68" transform="translate(396.582031 0)"/>
     </g>
    </g>
    <g id="line2d_40">
     <path d="M 327.314687 141.907813 
L 337.314687 141.907813 
L 347.314687 141.907813 
" style="fill: none; stroke: #3200cd; stroke-width: 1.5; stroke-linecap: square"/>
     <g>
      <use xlink:href="#m9d718106ae" x="337.314687" y="141.907813" style="fill: #3200cd; stroke: #3200cd"/>
     </g>
    </g>
    <g id="text_15">
     <!-- 10-14 teeth -->
     <g transform="translate(355.314687 145.407813) scale(0.1 -0.1)">
      <defs>
       <path id="DejaVuSans-34" d="M 2419 4116 
L 825 1625 
L 2419 1625 
L 2419 4116 
z
M 2253 4666 
L 3047 4666 
L 3047 1625 
L 3713 1625 
L 3713 1100 
L 3047 1100 
L 3047 0 
L 2419 0 
L 2419 1100 
L 313 1100 
L 313 1709 
L 2253 4666 
z
" transform="scale(0.015625)"/>
      </defs>
      <use xlink:href="#DejaVuSans-31"/>
      <use xlink:href="#DejaVuSans-30" transform="translate(63.623047 0)"/>
      <use xlink:href="#DejaVuSans-2d" transform="translate(127.246094 0)"/>
      <use xlink:href="#DejaVuSans-31" transform="translate(163.330078 0)"/>
      <use xlink:href="#DejaVuSans-34" transform="translate(226.953125 0)"/>
      <use xlink:href="#DejaVuSans-20" transform="translate(290.576172 0)"/>
      <use xlink:href="#DejaVuSans-74" transform="translate(322.363281 0)"/>
      <use xlink:href="#DejaVuSans-65" transform="translate(361.572266 0)"/>
      <use xlink:href="#DejaVuSans-65" transform="translate(423.095703 0)"/>
      <use xlink:href="#DejaVuSans-74" transform="translate(484.619141 0)"/>
      <use xlink:href="#DejaVuSans-68" transform="translate(523.828125 0)"/>
     </g>
    </g>
    <g id="line2d_41">
     <path d="M 327.314687 156.585938 
L 337.314687 156.585938 
L 347.314687 156.585938 
" style="fill: none; stroke: #64009b; stroke-width: 1.5; stroke-linecap: square"/>
     <g>
      <use xlink:href="#mfa97463f6c" x="337.314687" y="156.585938" style="fill: #64009b; stroke: #64009b"/>
     </g>
    </g>
    <g id="text_16">
     <!-- 15-19 teeth -->
     <g transform="translate(355.314687 160.085938) scale(0.1 -0.1)">
      <use xlink:href="#DejaVuSans-31"/>
      <use xlink:href="#DejaVuSans-35" transform="translate(63.623047 0)"/>
      <use xlink:href="#DejaVuSans-2d" transform="translate(127.246094 0)"/>
      <use xlink:href="#DejaVuSans-31" transform="translate(163.330078 0)"/>
      <use xlink:href="#DejaVuSans-39" transform="translate(226.953125 0)"/>
      <use xlink:href="#DejaVuSans-20" transform="translate(290.576172 0)"/>
      <use xlink:href="#DejaVuSans-74" transform="translate(322.363281 0)"/>
      <use xlink:href="#DejaVuSans-65" transform="translate(361.572266 0)"/>
      <use xlink:href="#DejaVuSans-65" transform="translate(423.095703 0)"/>
      <use xlink:href="#DejaVuSans-74" transform="translate(484.619141 0)"/>
      <use xlink:href="#DejaVuSans-68" transform="translate(523.828125 0)"/>
     </g>
    </g>
    <g id="line2d_42">
     <path d="M 327.314687 171.264063 
L 337.314687 171.264063 
L 347.314687 171.264063 
" style="fill: none; stroke: #960069; stroke-width: 1.5; stroke-linecap: square"/>
     <g>
      <use xlink:href="#m7fb0e16bb8" x="337.314687" y="171.264063" style="fill: #960069; stroke: #960069"/>
     </g>
    </g>
    <g id="text_17">
     <!-- 20-24 teeth -->
     <g transform="translate(355.314687 174.764063) scale(0.1 -0.1)">
      <use xlink:href="#DejaVuSans-32"/>
      <use xlink:href="#DejaVuSans-30" transform="translate(63.623047 0)"/>
      <use xlink:href="#DejaVuSans-2d" transform="translate(127.246094 0)"/>
      <use xlink:href="#DejaVuSans-32" transform="translate(163.330078 0)"/>
      <use xlink:href="#DejaVuSans-34" transform="translate(226.953125 0)"/>
      <use xlink:href="#DejaVuSans-20" transform="translate(290.576172 0)"/>
      <use xlink:href="#DejaVuSans-74" transform="translate(322.363281 0)"/>
      <use xlink:href="#DejaVuSans-65" transform="translate(361.572266 0)"/>
      <use xlink:href="#DejaVuSans-65" transform="translate(423.095703 0)"/>
      <use xlink:href="#DejaVuSans-74" transform="translate(484.619141 0)"/>
      <use xlink:href="#DejaVuSans-68" transform="translate(523.828125 0)"/>
     </g>
    </g>
    <g id="line2d_43">
     <path d="M 327.314687 185.942188 
L 337.314687 185.942188 
L 347.314687 185.942188 
" style="fill: none; stroke: #c80037; stroke-width: 1.5; stroke-linecap: square"/>
     <g>
      <use xlink:href="#m5e275203cc" x="337.314687" y="185.942188" style="fill: #c80037; stroke: #c80037"/>
     </g>
    </g>
    <g id="text_18">
     <!-- 25-29 teeth -->
     <g transform="translate(355.314687 189.442188) scale(0.1 -0.1)">
      <use xlink:href="#DejaVuSans-32"/>
      <use xlink:href="#DejaVuSans-35" transform="translate(63.623047 0)"/>
      <use xlink:href="#DejaVuSans-2d" transform="translate(127.246094 0)"/>
      <use xlink:href="#DejaVuSans-32" transform="translate(163.330078 0)"/>
      <use xlink:href="#DejaVuSans-39" transform="translate(226.953125 0)"/>
      <use xlink:href="#DejaVuSans-20" transform="translate(290.576172 0)"/>
      <use xlink:href="#DejaVuSans-74" transform="translate(322.363281 0)"/>
      <use xlink:href="#DejaVuSans-65" transform="translate(361.572266 0)"/>
      <use xlink:href="#DejaVuSans-65" transform="translate(423.095703 0)"/>
      <use xlink:href="#DejaVuSans-74" transform="translate(484.619141 0)"/>
      <use xlink:href="#DejaVuSans-68" transform="translate(523.828125 0)"/>
     </g>
    </g>
    <g id="line2d_44">
     <path d="M 327.314687 200.620313 
L 337.314687 200.620313 
L 347.314687 200.620313 
" style="fill: none; stroke: #fa0005; stroke-width: 1.5; stroke-linecap: square"/>
     <g>
      <use xlink:href="#ma0611ec66f" x="337.314687" y="200.620313" style="fill: #fa0005; stroke: #fa0005"/>
     </g>
    </g>
    <g id="text_19">
     <!-- 30 teeth -->
     <g transform="translate(355.314687 204.120313) scale(0.1 -0.1)">
      <use xlink:href="#DejaVuSans-33"/>
      <use xlink:href="#DejaVuSans-30" transform="translate(63.623047 0)"/>
      <use xlink:href="#DejaVuSans-20" transform="translate(127.246094 0)"/>
      <use xlink:href="#DejaVuSans-74" transform="translate(159.033203 0)"/>
      <use xlink:href="#DejaVuSans-65" transform="translate(198.242188 0)"/>
      <use xlink:href="#DejaVuSans-65" transform="translate(259.765625 0)"/>
      <use xlink:href="#DejaVuSans-74" transform="translate(321.289062 0)"/>
      <use xlink:href="#DejaVuSans-68" transform="translate(360.498047 0)"/>
     </g>
    </g>
   </g>
  </g>
 </g>
 <defs>
  <clipPath id="pd169d8d4f1">
   <rect x="88.775" y="4.96" width="334.26" height="210.24"/>
  </clipPath>
 </defs>
</svg>
