<?xml version="1.0" encoding="utf-8" standalone="no"?>
<!DOCTYPE svg PUBLIC "-//W3C//DTD SVG 1.1//EN"
  "http://www.w3.org/Graphics/SVG/1.1/DTD/svg11.dtd">
<svg xmlns:xlink="http://www.w3.org/1999/xlink" width="432pt" height="259.2pt" viewBox="0 0 432 259.2" xmlns="http://www.w3.org/2000/svg" version="1.1">
 <metadata>
  <rdf:RDF xmlns:dc="http://purl.org/dc/elements/1.1/" xmlns:cc="http://creativecommons.org/ns#" xmlns:rdf="http://www.w3.org/1999/02/22-rdf-syntax-ns#">
   <cc:Work>
    <dc:type rdf:resource="http://purl.org/dc/dcmitype/StillImage"/>
    <dc:date>2026-06-16T15:43:53.624042</dc:date>
    <dc:format>image/svg+xml</dc:format>
    <dc:creator>
     <cc:Agent>
      <dc:title>Matplotlib v3.10.7, https://matplotlib.org/</dc:title>
     </cc:Agent>
    </dc:creator>
   </cc:Work>
  </rdf:RDF>
 </metadata>
 <defs>
  <style type="text/css">*{stroke-linejoin: round; stroke-linecap: butt}</style>
 </defs>
 <g id="figure_1">
  <g id="patch_1">
   <path d="M 0 259.2 
L 432 259.2 
L 432 0 
L 0 0 
z
" style="fill: #ffffff"/>
  </g>
  <g id="axes_1">
   <g id="patch_2">
    <path d="M 88.775 215.2 
L 423.035 215.2 
L 423.035 4.96 
L 88.775 4.96 
z
" style="fill: #ffffff"/>
   </g>
   <g id="matplotlib.axis_1">
    <g id="xtick_1">
     <g id="line2d_1">
      <defs>
       <path id="m1dd954b49e" d="M 0 0 
L 0 3.5 
" style="stroke: #000000; stroke-width: 0.8"/>
      </defs>
      <g>
       <use xlink:href="#m1dd954b49e" x="136.526429" y="215.2" style="stroke: #000000; stroke-width: 0.8"/>
      </g>
     </g>
     <g id="text_1">
      <!-- 0.5 -->
      <g transform="translate(124.599085 233.597656) scale(0.15 -0.15)">
       <defs>
        <path id="DejaVuSans-30" d="M 2034 4250 
Q 1547 4250 1301 3770 
Q 1056 3291 1056 2328 
Q 1056 1369 1301 889 
Q 1547 409 2034 409 
Q 2525 409 2770 889 
Q 3016 1369 3016 2328 
Q 3016 3291 2770 3770 
Q 2525 4250 2034 4250 
z
M 2034 4750 
Q 2819 4750 3233 4129 
Q 3647 3509 3647 2328 
Q 3647 1150 3233 529 
Q 2819 -91 2034 -91 
Q 1250 -91 836 529 
Q 422 1150 422 2328 
Q 422 3509 836 4129 
Q 1250 4750 2034 4750 
z
" transform="scale(0.015625)"/>
        <path id="DejaVuSans-2e" d="M 684 794 
L 1344 794 
L 1344 0 
L 684 0 
L 684 794 
z
" transform="scale(0.015625)"/>
        <path id="DejaVuSans-35" d="M 691 4666 
L 3169 4666 
L 3169 4134 
L 1269 4134 
L 1269 2991 
Q 1406 3038 1543 3061 
Q 1681 3084 1819 3084 
Q 2600 3084 3056 2656 
Q 3513 2228 3513 1497 
Q 3513 744 3044 326 
Q 2575 -91 1722 -91 
Q 1428 -91 1123 -41 
Q 819 9 494 109 
L 494 744 
Q 775 591 1075 516 
Q 1375 441 1709 441 
Q 2250 441 2565 725 
Q 2881 1009 2881 1497 
Q 2881 1984 2565 2268 
Q 2250 2553 1709 2553 
Q 1456 2553 1204 2497 
Q 953 2441 691 2322 
L 691 4666 
z
" transform="scale(0.015625)"/>
       </defs>
       <use xlink:href="#DejaVuSans-30"/>
       <use xlink:href="#DejaVuSans-2e" transform="translate(63.623047 0)"/>
       <use xlink:href="#DejaVuSans-35" transform="translate(95.410156 0)"/>
      </g>
     </g>
    </g>
    <g id="xtick_2">
     <g id="line2d_2">
      <g>
       <use xlink:href="#m1dd954b49e" x="190.789416" y="215.2" style="stroke: #000000; stroke-width: 0.8"/>
      </g>
     </g>
     <g id="text_2">
      <!-- 1.0 -->
      <g transform="translate(178.862072 233.597656) scale(0.15 -0.15)">
       <defs>
        <path id="DejaVuSans-31" d="M 794 531 
L 1825 531 
L 1825 4091 
L 703 3866 
L 703 4441 
L 1819 4666 
L 2450 4666 
L 2450 531 
L 3481 531 
L 3481 0 
L 794 0 
L 794 531 
z
" transform="scale(0.015625)"/>
       </defs>
       <use xlink:href="#DejaVuSans-31"/>
       <use xlink:href="#DejaVuSans-2e" transform="translate(63.623047 0)"/>
       <use xlink:href="#DejaVuSans-30" transform="translate(95.410156 0)"/>
      </g>
     </g>
    </g>
    <g id="xtick_3">
     <g id="line2d_3">
      <g>
       <use xlink:href="#m1dd954b49e" x="245.052403" y="215.2" style="stroke: #000000; stroke-width: 0.8"/>
      </g>
     </g>
     <g id="text_3">
      <!-- 1.5 -->
      <g transform="translate(233.125059 233.597656) scale(0.15 -0.15)">
       <use xlink:href="#DejaVuSans-31"/>
       <use xlink:href="#DejaVuSans-2e" transform="translate(63.623047 0)"/>
       <use xlink:href="#DejaVuSans-35" transform="translate(95.410156 0)"/>
      </g>
     </g>
    </g>
    <g id="xtick_4">
     <g id="line2d_4">
      <g>
       <use xlink:href="#m1dd954b49e" x="299.31539" y="215.2" style="stroke: #000000; stroke-width: 0.8"/>
      </g>
     </g>
     <g id="text_4">
      <!-- 2.0 -->
      <g transform="translate(287.388046 233.597656) scale(0.15 -0.15)">
       <defs>
        <path id="DejaVuSans-32" d="M 1228 531 
L 3431 531 
L 3431 0 
L 469 0 
L 469 531 
Q 828 903 1448 1529 
Q 2069 2156 2228 2338 
Q 2531 2678 2651 2914 
Q 2772 3150 2772 3378 
Q 2772 3750 2511 3984 
Q 2250 4219 1831 4219 
Q 1534 4219 1204 4116 
Q 875 4013 500 3803 
L 500 4441 
Q 881 4594 1212 4672 
Q 1544 4750 1819 4750 
Q 2544 4750 2975 4387 
Q 3406 4025 3406 3419 
Q 3406 3131 3298 2873 
Q 3191 2616 2906 2266 
Q 2828 2175 2409 1742 
Q 1991 1309 1228 531 
z
" transform="scale(0.015625)"/>
       </defs>
       <use xlink:href="#DejaVuSans-32"/>
       <use xlink:href="#DejaVuSans-2e" transform="translate(63.623047 0)"/>
       <use xlink:href="#DejaVuSans-30" transform="translate(95.410156 0)"/>
      </g>
     </g>
    </g>
    <g id="xtick_5">
     <g id="line2d_5">
      <g>
       <use xlink:href="#m1dd954b49e" x="353.578377" y="215.2" style="stroke: #000000; stroke-width: 0.8"/>
      </g>
     </g>
     <g id="text_5">
      <!-- 2.5 -->
      <g transform="translate(341.651033 233.597656) scale(0.15 -0.15)">
       <use xlink:href="#DejaVuSans-32"/>
       <use xlink:href="#DejaVuSans-2e" transform="translate(63.623047 0)"/>
       <use xlink:href="#DejaVuSans-35" transform="translate(95.410156 0)"/>
      </g>
     </g>
    </g>
    <g id="xtick_6">
     <g id="line2d_6">
      <g>
       <use xlink:href="#m1dd954b49e" x="407.841364" y="215.2" style="stroke: #000000; stroke-width: 0.8"/>
      </g>
     </g>
     <g id="text_6">
      <!-- 3.0 -->
      <g transform="translate(395.91402 233.597656) scale(0.15 -0.15)">
       <defs>
        <path id="DejaVuSans-33" d="M 2597 2516 
Q 3050 2419 3304 2112 
Q 3559 1806 3559 1356 
Q 3559 666 3084 287 
Q 2609 -91 1734 -91 
Q 1441 -91 1130 -33 
Q 819 25 488 141 
L 488 750 
Q 750 597 1062 519 
Q 1375 441 1716 441 
Q 2309 441 2620 675 
Q 2931 909 2931 1356 
Q 2931 1769 2642 2001 
Q 2353 2234 1838 2234 
L 1294 2234 
L 1294 2753 
L 1863 2753 
Q 2328 2753 2575 2939 
Q 2822 3125 2822 3475 
Q 2822 3834 2567 4026 
Q 2313 4219 1838 4219 
Q 1578 4219 1281 4162 
Q 984 4106 628 3988 
L 628 4550 
Q 988 4650 1302 4700 
Q 1616 4750 1894 4750 
Q 2613 4750 3031 4423 
Q 3450 4097 3450 3541 
Q 3450 3153 3228 2886 
Q 3006 2619 2597 2516 
z
" transform="scale(0.015625)"/>
       </defs>
       <use xlink:href="#DejaVuSans-33"/>
       <use xlink:href="#DejaVuSans-2e" transform="translate(63.623047 0)"/>
       <use xlink:href="#DejaVuSans-30" transform="translate(95.410156 0)"/>
      </g>
     </g>
    </g>
    <g id="text_7">
     <!-- Comb Spacing [GHz] -->
     <g transform="translate(178.163984 252.114844) scale(0.15 -0.15)">
      <defs>
       <path id="DejaVuSans-43" d="M 4122 4306 
L 4122 3641 
Q 3803 3938 3442 4084 
Q 3081 4231 2675 4231 
Q 1875 4231 1450 3742 
Q 1025 3253 1025 2328 
Q 1025 1406 1450 917 
Q 1875 428 2675 428 
Q 3081 428 3442 575 
Q 3803 722 4122 1019 
L 4122 359 
Q 3791 134 3420 21 
Q 3050 -91 2638 -91 
Q 1578 -91 968 557 
Q 359 1206 359 2328 
Q 359 3453 968 4101 
Q 1578 4750 2638 4750 
Q 3056 4750 3426 4639 
Q 3797 4528 4122 4306 
z
" transform="scale(0.015625)"/>
       <path id="DejaVuSans-6f" d="M 1959 3097 
Q 1497 3097 1228 2736 
Q 959 2375 959 1747 
Q 959 1119 1226 758 
Q 1494 397 1959 397 
Q 2419 397 2687 759 
Q 2956 1122 2956 1747 
Q 2956 2369 2687 2733 
Q 2419 3097 1959 3097 
z
M 1959 3584 
Q 2709 3584 3137 3096 
Q 3566 2609 3566 1747 
Q 3566 888 3137 398 
Q 2709 -91 1959 -91 
Q 1206 -91 779 398 
Q 353 888 353 1747 
Q 353 2609 779 3096 
Q 1206 3584 1959 3584 
z
" transform="scale(0.015625)"/>
       <path id="DejaVuSans-6d" d="M 3328 2828 
Q 3544 3216 3844 3400 
Q 4144 3584 4550 3584 
Q 5097 3584 5394 3201 
Q 5691 2819 5691 2113 
L 5691 0 
L 5113 0 
L 5113 2094 
Q 5113 2597 4934 2840 
Q 4756 3084 4391 3084 
Q 3944 3084 3684 2787 
Q 3425 2491 3425 1978 
L 3425 0 
L 2847 0 
L 2847 2094 
Q 2847 2600 2669 2842 
Q 2491 3084 2119 3084 
Q 1678 3084 1418 2786 
Q 1159 2488 1159 1978 
L 1159 0 
L 581 0 
L 581 3500 
L 1159 3500 
L 1159 2956 
Q 1356 3278 1631 3431 
Q 1906 3584 2284 3584 
Q 2666 3584 2933 3390 
Q 3200 3197 3328 2828 
z
" transform="scale(0.015625)"/>
       <path id="DejaVuSans-62" d="M 3116 1747 
Q 3116 2381 2855 2742 
Q 2594 3103 2138 3103 
Q 1681 3103 1420 2742 
Q 1159 2381 1159 1747 
Q 1159 1113 1420 752 
Q 1681 391 2138 391 
Q 2594 391 2855 752 
Q 3116 1113 3116 1747 
z
M 1159 2969 
Q 1341 3281 1617 3432 
Q 1894 3584 2278 3584 
Q 2916 3584 3314 3078 
Q 3713 2572 3713 1747 
Q 3713 922 3314 415 
Q 2916 -91 2278 -91 
Q 1894 -91 1617 61 
Q 1341 213 1159 525 
L 1159 0 
L 581 0 
L 581 4863 
L 1159 4863 
L 1159 2969 
z
" transform="scale(0.015625)"/>
       <path id="DejaVuSans-20" transform="scale(0.015625)"/>
       <path id="DejaVuSans-53" d="M 3425 4513 
L 3425 3897 
Q 3066 4069 2747 4153 
Q 2428 4238 2131 4238 
Q 1616 4238 1336 4038 
Q 1056 3838 1056 3469 
Q 1056 3159 1242 3001 
Q 1428 2844 1947 2747 
L 2328 2669 
Q 3034 2534 3370 2195 
Q 3706 1856 3706 1288 
Q 3706 609 3251 259 
Q 2797 -91 1919 -91 
Q 1588 -91 1214 -16 
Q 841 59 441 206 
L 441 856 
Q 825 641 1194 531 
Q 1563 422 1919 422 
Q 2459 422 2753 634 
Q 3047 847 3047 1241 
Q 3047 1584 2836 1778 
Q 2625 1972 2144 2069 
L 1759 2144 
Q 1053 2284 737 2584 
Q 422 2884 422 3419 
Q 422 4038 858 4394 
Q 1294 4750 2059 4750 
Q 2388 4750 2728 4690 
Q 3069 4631 3425 4513 
z
" transform="scale(0.015625)"/>
       <path id="DejaVuSans-70" d="M 1159 525 
L 1159 -1331 
L 581 -1331 
L 581 3500 
L 1159 3500 
L 1159 2969 
Q 1341 3281 1617 3432 
Q 1894 3584 2278 3584 
Q 2916 3584 3314 3078 
Q 3713 2572 3713 1747 
Q 3713 922 3314 415 
Q 2916 -91 2278 -91 
Q 1894 -91 1617 61 
Q 1341 213 1159 525 
z
M 3116 1747 
Q 3116 2381 2855 2742 
Q 2594 3103 2138 3103 
Q 1681 3103 1420 2742 
Q 1159 2381 1159 1747 
Q 1159 1113 1420 752 
Q 1681 391 2138 391 
Q 2594 391 2855 752 
Q 3116 1113 3116 1747 
z
" transform="scale(0.015625)"/>
       <path id="DejaVuSans-61" d="M 2194 1759 
Q 1497 1759 1228 1600 
Q 959 1441 959 1056 
Q 959 750 1161 570 
Q 1363 391 1709 391 
Q 2188 391 2477 730 
Q 2766 1069 2766 1631 
L 2766 1759 
L 2194 1759 
z
M 3341 1997 
L 3341 0 
L 2766 0 
L 2766 531 
Q 2569 213 2275 61 
Q 1981 -91 1556 -91 
Q 1019 -91 701 211 
Q 384 513 384 1019 
Q 384 1609 779 1909 
Q 1175 2209 1959 2209 
L 2766 2209 
L 2766 2266 
Q 2766 2663 2505 2880 
Q 2244 3097 1772 3097 
Q 1472 3097 1187 3025 
Q 903 2953 641 2809 
L 641 3341 
Q 956 3463 1253 3523 
Q 1550 3584 1831 3584 
Q 2591 3584 2966 3190 
Q 3341 2797 3341 1997 
z
" transform="scale(0.015625)"/>
       <path id="DejaVuSans-63" d="M 3122 3366 
L 3122 2828 
Q 2878 2963 2633 3030 
Q 2388 3097 2138 3097 
Q 1578 3097 1268 2742 
Q 959 2388 959 1747 
Q 959 1106 1268 751 
Q 1578 397 2138 397 
Q 2388 397 2633 464 
Q 2878 531 3122 666 
L 3122 134 
Q 2881 22 2623 -34 
Q 2366 -91 2075 -91 
Q 1284 -91 818 406 
Q 353 903 353 1747 
Q 353 2603 823 3093 
Q 1294 3584 2113 3584 
Q 2378 3584 2631 3529 
Q 2884 3475 3122 3366 
z
" transform="scale(0.015625)"/>
       <path id="DejaVuSans-69" d="M 603 3500 
L 1178 3500 
L 1178 0 
L 603 0 
L 603 3500 
z
M 603 4863 
L 1178 4863 
L 1178 4134 
L 603 4134 
L 603 4863 
z
" transform="scale(0.015625)"/>
       <path id="DejaVuSans-6e" d="M 3513 2113 
L 3513 0 
L 2938 0 
L 2938 2094 
Q 2938 2591 2744 2837 
Q 2550 3084 2163 3084 
Q 1697 3084 1428 2787 
Q 1159 2491 1159 1978 
L 1159 0 
L 581 0 
L 581 3500 
L 1159 3500 
L 1159 2956 
Q 1366 3272 1645 3428 
Q 1925 3584 2291 3584 
Q 2894 3584 3203 3211 
Q 3513 2838 3513 2113 
z
" transform="scale(0.015625)"/>
       <path id="DejaVuSans-67" d="M 2906 1791 
Q 2906 2416 2648 2759 
Q 2391 3103 1925 3103 
Q 1463 3103 1205 2759 
Q 947 2416 947 1791 
Q 947 1169 1205 825 
Q 1463 481 1925 481 
Q 2391 481 2648 825 
Q 2906 1169 2906 1791 
z
M 3481 434 
Q 3481 -459 3084 -895 
Q 2688 -1331 1869 -1331 
Q 1566 -1331 1297 -1286 
Q 1028 -1241 775 -1147 
L 775 -588 
Q 1028 -725 1275 -790 
Q 1522 -856 1778 -856 
Q 2344 -856 2625 -561 
Q 2906 -266 2906 331 
L 2906 616 
Q 2728 306 2450 153 
Q 2172 0 1784 0 
Q 1141 0 747 490 
Q 353 981 353 1791 
Q 353 2603 747 3093 
Q 1141 3584 1784 3584 
Q 2172 3584 2450 3431 
Q 2728 3278 2906 2969 
L 2906 3500 
L 3481 3500 
L 3481 434 
z
" transform="scale(0.015625)"/>
       <path id="DejaVuSans-5b" d="M 550 4863 
L 1875 4863 
L 1875 4416 
L 1125 4416 
L 1125 -397 
L 1875 -397 
L 1875 -844 
L 550 -844 
L 550 4863 
z
" transform="scale(0.015625)"/>
       <path id="DejaVuSans-47" d="M 3809 666 
L 3809 1919 
L 2778 1919 
L 2778 2438 
L 4434 2438 
L 4434 434 
Q 4069 175 3628 42 
Q 3188 -91 2688 -91 
Q 1594 -91 976 548 
Q 359 1188 359 2328 
Q 359 3472 976 4111 
Q 1594 4750 2688 4750 
Q 3144 4750 3555 4637 
Q 3966 4525 4313 4306 
L 4313 3634 
Q 3963 3931 3569 4081 
Q 3175 4231 2741 4231 
Q 1884 4231 1454 3753 
Q 1025 3275 1025 2328 
Q 1025 1384 1454 906 
Q 1884 428 2741 428 
Q 3075 428 3337 486 
Q 3600 544 3809 666 
z
" transform="scale(0.015625)"/>
       <path id="DejaVuSans-48" d="M 628 4666 
L 1259 4666 
L 1259 2753 
L 3553 2753 
L 3553 4666 
L 4184 4666 
L 4184 0 
L 3553 0 
L 3553 2222 
L 1259 2222 
L 1259 0 
L 628 0 
L 628 4666 
z
" transform="scale(0.015625)"/>
       <path id="DejaVuSans-7a" d="M 353 3500 
L 3084 3500 
L 3084 2975 
L 922 459 
L 3084 459 
L 3084 0 
L 275 0 
L 275 525 
L 2438 3041 
L 353 3041 
L 353 3500 
z
" transform="scale(0.015625)"/>
       <path id="DejaVuSans-5d" d="M 1947 4863 
L 1947 -844 
L 622 -844 
L 622 -397 
L 1369 -397 
L 1369 4416 
L 622 4416 
L 622 4863 
L 1947 4863 
z
" transform="scale(0.015625)"/>
      </defs>
      <use xlink:href="#DejaVuSans-43"/>
      <use xlink:href="#DejaVuSans-6f" transform="translate(69.824219 0)"/>
      <use xlink:href="#DejaVuSans-6d" transform="translate(131.005859 0)"/>
      <use xlink:href="#DejaVuSans-62" transform="translate(228.417969 0)"/>
      <use xlink:href="#DejaVuSans-20" transform="translate(291.894531 0)"/>
      <use xlink:href="#DejaVuSans-53" transform="translate(323.681641 0)"/>
      <use xlink:href="#DejaVuSans-70" transform="translate(387.158203 0)"/>
      <use xlink:href="#DejaVuSans-61" transform="translate(450.634766 0)"/>
      <use xlink:href="#DejaVuSans-63" transform="translate(511.914062 0)"/>
      <use xlink:href="#DejaVuSans-69" transform="translate(566.894531 0)"/>
      <use xlink:href="#DejaVuSans-6e" transform="translate(594.677734 0)"/>
      <use xlink:href="#DejaVuSans-67" transform="translate(658.056641 0)"/>
      <use xlink:href="#DejaVuSans-20" transform="translate(721.533203 0)"/>
      <use xlink:href="#DejaVuSans-5b" transform="translate(753.320312 0)"/>
      <use xlink:href="#DejaVuSans-47" transform="translate(792.333984 0)"/>
      <use xlink:href="#DejaVuSans-48" transform="translate(869.824219 0)"/>
      <use xlink:href="#DejaVuSans-7a" transform="translate(945.019531 0)"/>
      <use xlink:href="#DejaVuSans-5d" transform="translate(997.509766 0)"/>
     </g>
    </g>
   </g>
   <g id="matplotlib.axis_2">
    <g id="ytick_1">
     <g id="line2d_7">
      <defs>
       <path id="m848c8d5a1a" d="M 0 0 
L -3.5 0 
" style="stroke: #000000; stroke-width: 0.8"/>
      </defs>
      <g>
       <use xlink:href="#m848c8d5a1a" x="88.775" y="206.659927" style="stroke: #000000; stroke-width: 0.8"/>
      </g>
     </g>
     <g id="text_8">
      <!-- 0.000 -->
      <g transform="translate(38.832813 212.358755) scale(0.15 -0.15)">
       <use xlink:href="#DejaVuSans-30"/>
       <use xlink:href="#DejaVuSans-2e" transform="translate(63.623047 0)"/>
       <use xlink:href="#DejaVuSans-30" transform="translate(95.410156 0)"/>
       <use xlink:href="#DejaVuSans-30" transform="translate(159.033203 0)"/>
       <use xlink:href="#DejaVuSans-30" transform="translate(222.65625 0)"/>
      </g>
     </g>
    </g>
    <g id="ytick_2">
     <g id="line2d_8">
      <g>
       <use xlink:href="#m848c8d5a1a" x="88.775" y="151.347653" style="stroke: #000000; stroke-width: 0.8"/>
      </g>
     </g>
     <g id="text_9">
      <!-- 0.002 -->
      <g transform="translate(38.832813 157.046481) scale(0.15 -0.15)">
       <use xlink:href="#DejaVuSans-30"/>
       <use xlink:href="#DejaVuSans-2e" transform="translate(63.623047 0)"/>
       <use xlink:href="#DejaVuSans-30" transform="translate(95.410156 0)"/>
       <use xlink:href="#DejaVuSans-30" transform="translate(159.033203 0)"/>
       <use xlink:href="#DejaVuSans-32" transform="translate(222.65625 0)"/>
      </g>
     </g>
    </g>
    <g id="ytick_3">
     <g id="line2d_9">
      <g>
       <use xlink:href="#m848c8d5a1a" x="88.775" y="96.035379" style="stroke: #000000; stroke-width: 0.8"/>
      </g>
     </g>
     <g id="text_10">
      <!-- 0.004 -->
      <g transform="translate(38.832813 101.734208) scale(0.15 -0.15)">
       <defs>
        <path id="DejaVuSans-34" d="M 2419 4116 
L 825 1625 
L 2419 1625 
L 2419 4116 
z
M 2253 4666 
L 3047 4666 
L 3047 1625 
L 3713 1625 
L 3713 1100 
L 3047 1100 
L 3047 0 
L 2419 0 
L 2419 1100 
L 313 1100 
L 313 1709 
L 2253 4666 
z
" transform="scale(0.015625)"/>
       </defs>
       <use xlink:href="#DejaVuSans-30"/>
       <use xlink:href="#DejaVuSans-2e" transform="translate(63.623047 0)"/>
       <use xlink:href="#DejaVuSans-30" transform="translate(95.410156 0)"/>
       <use xlink:href="#DejaVuSans-30" transform="translate(159.033203 0)"/>
       <use xlink:href="#DejaVuSans-34" transform="translate(222.65625 0)"/>
      </g>
     </g>
    </g>
    <g id="ytick_4">
     <g id="line2d_10">
      <g>
       <use xlink:href="#m848c8d5a1a" x="88.775" y="40.723106" style="stroke: #000000; stroke-width: 0.8"/>
      </g>
     </g>
     <g id="text_11">
      <!-- 0.006 -->
      <g transform="translate(38.832813 46.421934) scale(0.15 -0.15)">
       <defs>
        <path id="DejaVuSans-36" d="M 2113 2584 
Q 1688 2584 1439 2293 
Q 1191 2003 1191 1497 
Q 1191 994 1439 701 
Q 1688 409 2113 409 
Q 2538 409 2786 701 
Q 3034 994 3034 1497 
Q 3034 2003 2786 2293 
Q 2538 2584 2113 2584 
z
M 3366 4563 
L 3366 3988 
Q 3128 4100 2886 4159 
Q 2644 4219 2406 4219 
Q 1781 4219 1451 3797 
Q 1122 3375 1075 2522 
Q 1259 2794 1537 2939 
Q 1816 3084 2150 3084 
Q 2853 3084 3261 2657 
Q 3669 2231 3669 1497 
Q 3669 778 3244 343 
Q 2819 -91 2113 -91 
Q 1303 -91 875 529 
Q 447 1150 447 2328 
Q 447 3434 972 4092 
Q 1497 4750 2381 4750 
Q 2619 4750 2861 4703 
Q 3103 4656 3366 4563 
z
" transform="scale(0.015625)"/>
       </defs>
       <use xlink:href="#DejaVuSans-30"/>
       <use xlink:href="#DejaVuSans-2e" transform="translate(63.623047 0)"/>
       <use xlink:href="#DejaVuSans-30" transform="translate(95.410156 0)"/>
       <use xlink:href="#DejaVuSans-30" transform="translate(159.033203 0)"/>
       <use xlink:href="#DejaVuSans-36" transform="translate(222.65625 0)"/>
      </g>
     </g>
    </g>
    <g id="text_12">
     <!-- Standard Deviation [VMR] -->
     <g transform="translate(31.713281 207.508516) rotate(-90) scale(0.15 -0.15)">
      <defs>
       <path id="DejaVuSans-74" d="M 1172 4494 
L 1172 3500 
L 2356 3500 
L 2356 3053 
L 1172 3053 
L 1172 1153 
Q 1172 725 1289 603 
Q 1406 481 1766 481 
L 2356 481 
L 2356 0 
L 1766 0 
Q 1100 0 847 248 
Q 594 497 594 1153 
L 594 3053 
L 172 3053 
L 172 3500 
L 594 3500 
L 594 4494 
L 1172 4494 
z
" transform="scale(0.015625)"/>
       <path id="DejaVuSans-64" d="M 2906 2969 
L 2906 4863 
L 3481 4863 
L 3481 0 
L 2906 0 
L 2906 525 
Q 2725 213 2448 61 
Q 2172 -91 1784 -91 
Q 1150 -91 751 415 
Q 353 922 353 1747 
Q 353 2572 751 3078 
Q 1150 3584 1784 3584 
Q 2172 3584 2448 3432 
Q 2725 3281 2906 2969 
z
M 947 1747 
Q 947 1113 1208 752 
Q 1469 391 1925 391 
Q 2381 391 2643 752 
Q 2906 1113 2906 1747 
Q 2906 2381 2643 2742 
Q 2381 3103 1925 3103 
Q 1469 3103 1208 2742 
Q 947 2381 947 1747 
z
" transform="scale(0.015625)"/>
       <path id="DejaVuSans-72" d="M 2631 2963 
Q 2534 3019 2420 3045 
Q 2306 3072 2169 3072 
Q 1681 3072 1420 2755 
Q 1159 2438 1159 1844 
L 1159 0 
L 581 0 
L 581 3500 
L 1159 3500 
L 1159 2956 
Q 1341 3275 1631 3429 
Q 1922 3584 2338 3584 
Q 2397 3584 2469 3576 
Q 2541 3569 2628 3553 
L 2631 2963 
z
" transform="scale(0.015625)"/>
       <path id="DejaVuSans-44" d="M 1259 4147 
L 1259 519 
L 2022 519 
Q 2988 519 3436 956 
Q 3884 1394 3884 2338 
Q 3884 3275 3436 3711 
Q 2988 4147 2022 4147 
L 1259 4147 
z
M 628 4666 
L 1925 4666 
Q 3281 4666 3915 4102 
Q 4550 3538 4550 2338 
Q 4550 1131 3912 565 
Q 3275 0 1925 0 
L 628 0 
L 628 4666 
z
" transform="scale(0.015625)"/>
       <path id="DejaVuSans-65" d="M 3597 1894 
L 3597 1613 
L 953 1613 
Q 991 1019 1311 708 
Q 1631 397 2203 397 
Q 2534 397 2845 478 
Q 3156 559 3463 722 
L 3463 178 
Q 3153 47 2828 -22 
Q 2503 -91 2169 -91 
Q 1331 -91 842 396 
Q 353 884 353 1716 
Q 353 2575 817 3079 
Q 1281 3584 2069 3584 
Q 2775 3584 3186 3129 
Q 3597 2675 3597 1894 
z
M 3022 2063 
Q 3016 2534 2758 2815 
Q 2500 3097 2075 3097 
Q 1594 3097 1305 2825 
Q 1016 2553 972 2059 
L 3022 2063 
z
" transform="scale(0.015625)"/>
       <path id="DejaVuSans-76" d="M 191 3500 
L 800 3500 
L 1894 563 
L 2988 3500 
L 3597 3500 
L 2284 0 
L 1503 0 
L 191 3500 
z
" transform="scale(0.015625)"/>
       <path id="DejaVuSans-56" d="M 1831 0 
L 50 4666 
L 709 4666 
L 2188 738 
L 3669 4666 
L 4325 4666 
L 2547 0 
L 1831 0 
z
" transform="scale(0.015625)"/>
       <path id="DejaVuSans-4d" d="M 628 4666 
L 1569 4666 
L 2759 1491 
L 3956 4666 
L 4897 4666 
L 4897 0 
L 4281 0 
L 4281 4097 
L 3078 897 
L 2444 897 
L 1241 4097 
L 1241 0 
L 628 0 
L 628 4666 
z
" transform="scale(0.015625)"/>
       <path id="DejaVuSans-52" d="M 2841 2188 
Q 3044 2119 3236 1894 
Q 3428 1669 3622 1275 
L 4263 0 
L 3584 0 
L 2988 1197 
Q 2756 1666 2539 1819 
Q 2322 1972 1947 1972 
L 1259 1972 
L 1259 0 
L 628 0 
L 628 4666 
L 2053 4666 
Q 2853 4666 3247 4331 
Q 3641 3997 3641 3322 
Q 3641 2881 3436 2590 
Q 3231 2300 2841 2188 
z
M 1259 4147 
L 1259 2491 
L 2053 2491 
Q 2509 2491 2742 2702 
Q 2975 2913 2975 3322 
Q 2975 3731 2742 3939 
Q 2509 4147 2053 4147 
L 1259 4147 
z
" transform="scale(0.015625)"/>
      </defs>
      <use xlink:href="#DejaVuSans-53"/>
      <use xlink:href="#DejaVuSans-74" transform="translate(63.476562 0)"/>
      <use xlink:href="#DejaVuSans-61" transform="translate(102.685547 0)"/>
      <use xlink:href="#DejaVuSans-6e" transform="translate(163.964844 0)"/>
      <use xlink:href="#DejaVuSans-64" transform="translate(227.34375 0)"/>
      <use xlink:href="#DejaVuSans-61" transform="translate(290.820312 0)"/>
      <use xlink:href="#DejaVuSans-72" transform="translate(352.099609 0)"/>
      <use xlink:href="#DejaVuSans-64" transform="translate(391.462891 0)"/>
      <use xlink:href="#DejaVuSans-20" transform="translate(454.939453 0)"/>
      <use xlink:href="#DejaVuSans-44" transform="translate(486.726562 0)"/>
      <use xlink:href="#DejaVuSans-65" transform="translate(563.728516 0)"/>
      <use xlink:href="#DejaVuSans-76" transform="translate(625.251953 0)"/>
      <use xlink:href="#DejaVuSans-69" transform="translate(684.431641 0)"/>
      <use xlink:href="#DejaVuSans-61" transform="translate(712.214844 0)"/>
      <use xlink:href="#DejaVuSans-74" transform="translate(773.494141 0)"/>
      <use xlink:href="#DejaVuSans-69" transform="translate(812.703125 0)"/>
      <use xlink:href="#DejaVuSans-6f" transform="translate(840.486328 0)"/>
      <use xlink:href="#DejaVuSans-6e" transform="translate(901.667969 0)"/>
      <use xlink:href="#DejaVuSans-20" transform="translate(965.046875 0)"/>
      <use xlink:href="#DejaVuSans-5b" transform="translate(996.833984 0)"/>
      <use xlink:href="#DejaVuSans-56" transform="translate(1035.847656 0)"/>
      <use xlink:href="#DejaVuSans-4d" transform="translate(1104.255859 0)"/>
      <use xlink:href="#DejaVuSans-52" transform="translate(1190.535156 0)"/>
      <use xlink:href="#DejaVuSans-5d" transform="translate(1260.017578 0)"/>
     </g>
    </g>
   </g>
   <g id="line2d_11">
    <path d="M 223.347208 142.406697 
L 234.199805 153.558611 
L 245.052403 152.171761 
L 255.905 145.146794 
L 266.757597 145.543289 
L 277.610195 130.411079 
L 288.462792 137.152153 
L 299.31539 137.631557 
L 310.167987 135.362224 
L 321.020584 130.372358 
L 331.873182 133.628318 
L 342.725779 139.539591 
L 353.578377 130.197141 
L 364.430974 131.821718 
L 375.283571 130.361251 
L 386.136169 134.495721 
L 396.988766 129.764145 
L 407.841364 127.201841 
" clip-path="url(#p615309a6a6)" style="fill: none; stroke: #0000ff; stroke-width: 1.5; stroke-linecap: square"/>
    <defs>
     <path id="maa2a03abb0" d="M 0 3 
C 0.795609 3 1.55874 2.683901 2.12132 2.12132 
C 2.683901 1.55874 3 0.795609 3 0 
C 3 -0.795609 2.683901 -1.55874 2.12132 -2.12132 
C 1.55874 -2.683901 0.795609 -3 0 -3 
C -0.795609 -3 -1.55874 -2.683901 -2.12132 -2.12132 
C -2.683901 -1.55874 -3 -0.795609 -3 0 
C -3 0.795609 -2.683901 1.55874 -2.12132 2.12132 
C -1.55874 2.683901 -0.795609 3 0 3 
z
" style="stroke: #0000ff"/>
    </defs>
    <g clip-path="url(#p615309a6a6)">
     <use xlink:href="#maa2a03abb0" x="223.347208" y="142.406697" style="fill: #0000ff; stroke: #0000ff"/>
     <use xlink:href="#maa2a03abb0" x="234.199805" y="153.558611" style="fill: #0000ff; stroke: #0000ff"/>
     <use xlink:href="#maa2a03abb0" x="245.052403" y="152.171761" style="fill: #0000ff; stroke: #0000ff"/>
     <use xlink:href="#maa2a03abb0" x="255.905" y="145.146794" style="fill: #0000ff; stroke: #0000ff"/>
     <use xlink:href="#maa2a03abb0" x="266.757597" y="145.543289" style="fill: #0000ff; stroke: #0000ff"/>
     <use xlink:href="#maa2a03abb0" x="277.610195" y="130.411079" style="fill: #0000ff; stroke: #0000ff"/>
     <use xlink:href="#maa2a03abb0" x="288.462792" y="137.152153" style="fill: #0000ff; stroke: #0000ff"/>
     <use xlink:href="#maa2a03abb0" x="299.31539" y="137.631557" style="fill: #0000ff; stroke: #0000ff"/>
     <use xlink:href="#maa2a03abb0" x="310.167987" y="135.362224" style="fill: #0000ff; stroke: #0000ff"/>
     <use xlink:href="#maa2a03abb0" x="321.020584" y="130.372358" style="fill: #0000ff; stroke: #0000ff"/>
     <use xlink:href="#maa2a03abb0" x="331.873182" y="133.628318" style="fill: #0000ff; stroke: #0000ff"/>
     <use xlink:href="#maa2a03abb0" x="342.725779" y="139.539591" style="fill: #0000ff; stroke: #0000ff"/>
     <use xlink:href="#maa2a03abb0" x="353.578377" y="130.197141" style="fill: #0000ff; stroke: #0000ff"/>
     <use xlink:href="#maa2a03abb0" x="364.430974" y="131.821718" style="fill: #0000ff; stroke: #0000ff"/>
     <use xlink:href="#maa2a03abb0" x="375.283571" y="130.361251" style="fill: #0000ff; stroke: #0000ff"/>
     <use xlink:href="#maa2a03abb0" x="386.136169" y="134.495721" style="fill: #0000ff; stroke: #0000ff"/>
     <use xlink:href="#maa2a03abb0" x="396.988766" y="129.764145" style="fill: #0000ff; stroke: #0000ff"/>
     <use xlink:href="#maa2a03abb0" x="407.841364" y="127.201841" style="fill: #0000ff; stroke: #0000ff"/>
    </g>
   </g>
   <g id="line2d_12">
    <path d="M 190.789416 138.931606 
L 201.642013 134.736051 
L 212.49461 126.576371 
L 223.347208 135.239105 
L 234.199805 125.556913 
L 245.052403 124.943051 
L 255.905 126.567886 
L 266.757597 130.401875 
L 277.610195 136.202182 
L 288.462792 136.184736 
L 299.31539 133.451825 
L 310.167987 133.047781 
L 321.020584 136.233152 
L 331.873182 130.882468 
L 342.725779 129.313965 
L 353.578377 132.639101 
L 364.430974 129.104544 
L 375.283571 111.474733 
L 386.136169 115.766622 
L 396.988766 124.264193 
L 407.841364 115.428124 
" clip-path="url(#p615309a6a6)" style="fill: none; stroke: #0a00f5; stroke-width: 1.5; stroke-linecap: square"/>
    <defs>
     <path id="m2b45b6ab51" d="M 0 3 
C 0.795609 3 1.55874 2.683901 2.12132 2.12132 
C 2.683901 1.55874 3 0.795609 3 0 
C 3 -0.795609 2.683901 -1.55874 2.12132 -2.12132 
C 1.55874 -2.683901 0.795609 -3 0 -3 
C -0.795609 -3 -1.55874 -2.683901 -2.12132 -2.12132 
C -2.683901 -1.55874 -3 -0.795609 -3 0 
C -3 0.795609 -2.683901 1.55874 -2.12132 2.12132 
C -1.55874 2.683901 -0.795609 3 0 3 
z
" style="stroke: #0a00f5"/>
    </defs>
    <g clip-path="url(#p615309a6a6)">
     <use xlink:href="#m2b45b6ab51" x="190.789416" y="138.931606" style="fill: #0a00f5; stroke: #0a00f5"/>
     <use xlink:href="#m2b45b6ab51" x="201.642013" y="134.736051" style="fill: #0a00f5; stroke: #0a00f5"/>
     <use xlink:href="#m2b45b6ab51" x="212.49461" y="126.576371" style="fill: #0a00f5; stroke: #0a00f5"/>
     <use xlink:href="#m2b45b6ab51" x="223.347208" y="135.239105" style="fill: #0a00f5; stroke: #0a00f5"/>
     <use xlink:href="#m2b45b6ab51" x="234.199805" y="125.556913" style="fill: #0a00f5; stroke: #0a00f5"/>
     <use xlink:href="#m2b45b6ab51" x="245.052403" y="124.943051" style="fill: #0a00f5; stroke: #0a00f5"/>
     <use xlink:href="#m2b45b6ab51" x="255.905" y="126.567886" style="fill: #0a00f5; stroke: #0a00f5"/>
     <use xlink:href="#m2b45b6ab51" x="266.757597" y="130.401875" style="fill: #0a00f5; stroke: #0a00f5"/>
     <use xlink:href="#m2b45b6ab51" x="277.610195" y="136.202182" style="fill: #0a00f5; stroke: #0a00f5"/>
     <use xlink:href="#m2b45b6ab51" x="288.462792" y="136.184736" style="fill: #0a00f5; stroke: #0a00f5"/>
     <use xlink:href="#m2b45b6ab51" x="299.31539" y="133.451825" style="fill: #0a00f5; stroke: #0a00f5"/>
     <use xlink:href="#m2b45b6ab51" x="310.167987" y="133.047781" style="fill: #0a00f5; stroke: #0a00f5"/>
     <use xlink:href="#m2b45b6ab51" x="321.020584" y="136.233152" style="fill: #0a00f5; stroke: #0a00f5"/>
     <use xlink:href="#m2b45b6ab51" x="331.873182" y="130.882468" style="fill: #0a00f5; stroke: #0a00f5"/>
     <use xlink:href="#m2b45b6ab51" x="342.725779" y="129.313965" style="fill: #0a00f5; stroke: #0a00f5"/>
     <use xlink:href="#m2b45b6ab51" x="353.578377" y="132.639101" style="fill: #0a00f5; stroke: #0a00f5"/>
     <use xlink:href="#m2b45b6ab51" x="364.430974" y="129.104544" style="fill: #0a00f5; stroke: #0a00f5"/>
     <use xlink:href="#m2b45b6ab51" x="375.283571" y="111.474733" style="fill: #0a00f5; stroke: #0a00f5"/>
     <use xlink:href="#m2b45b6ab51" x="386.136169" y="115.766622" style="fill: #0a00f5; stroke: #0a00f5"/>
     <use xlink:href="#m2b45b6ab51" x="396.988766" y="124.264193" style="fill: #0a00f5; stroke: #0a00f5"/>
     <use xlink:href="#m2b45b6ab51" x="407.841364" y="115.428124" style="fill: #0a00f5; stroke: #0a00f5"/>
    </g>
   </g>
   <g id="line2d_13">
    <path d="M 179.936818 131.489547 
L 190.789416 148.114654 
L 201.642013 122.431829 
L 212.49461 119.839041 
L 223.347208 140.273257 
L 234.199805 130.333231 
L 245.052403 124.000809 
L 255.905 115.802168 
L 266.757597 129.910119 
L 277.610195 128.108486 
L 288.462792 125.274472 
L 299.31539 123.751719 
L 310.167987 112.694867 
L 321.020584 126.713727 
L 331.873182 118.913857 
L 342.725779 123.624332 
L 353.578377 129.028561 
L 364.430974 109.629629 
L 375.283571 117.081139 
L 386.136169 115.570274 
L 396.988766 108.392471 
L 407.841364 111.298448 
" clip-path="url(#p615309a6a6)" style="fill: none; stroke: #1400eb; stroke-width: 1.5; stroke-linecap: square"/>
    <defs>
     <path id="mde6d66c3b9" d="M 0 3 
C 0.795609 3 1.55874 2.683901 2.12132 2.12132 
C 2.683901 1.55874 3 0.795609 3 0 
C 3 -0.795609 2.683901 -1.55874 2.12132 -2.12132 
C 1.55874 -2.683901 0.795609 -3 0 -3 
C -0.795609 -3 -1.55874 -2.683901 -2.12132 -2.12132 
C -2.683901 -1.55874 -3 -0.795609 -3 0 
C -3 0.795609 -2.683901 1.55874 -2.12132 2.12132 
C -1.55874 2.683901 -0.795609 3 0 3 
z
" style="stroke: #1400eb"/>
    </defs>
    <g clip-path="url(#p615309a6a6)">
     <use xlink:href="#mde6d66c3b9" x="179.936818" y="131.489547" style="fill: #1400eb; stroke: #1400eb"/>
     <use xlink:href="#mde6d66c3b9" x="190.789416" y="148.114654" style="fill: #1400eb; stroke: #1400eb"/>
     <use xlink:href="#mde6d66c3b9" x="201.642013" y="122.431829" style="fill: #1400eb; stroke: #1400eb"/>
     <use xlink:href="#mde6d66c3b9" x="212.49461" y="119.839041" style="fill: #1400eb; stroke: #1400eb"/>
     <use xlink:href="#mde6d66c3b9" x="223.347208" y="140.273257" style="fill: #1400eb; stroke: #1400eb"/>
     <use xlink:href="#mde6d66c3b9" x="234.199805" y="130.333231" style="fill: #1400eb; stroke: #1400eb"/>
     <use xlink:href="#mde6d66c3b9" x="245.052403" y="124.000809" style="fill: #1400eb; stroke: #1400eb"/>
     <use xlink:href="#mde6d66c3b9" x="255.905" y="115.802168" style="fill: #1400eb; stroke: #1400eb"/>
     <use xlink:href="#mde6d66c3b9" x="266.757597" y="129.910119" style="fill: #1400eb; stroke: #1400eb"/>
     <use xlink:href="#mde6d66c3b9" x="277.610195" y="128.108486" style="fill: #1400eb; stroke: #1400eb"/>
     <use xlink:href="#mde6d66c3b9" x="288.462792" y="125.274472" style="fill: #1400eb; stroke: #1400eb"/>
     <use xlink:href="#mde6d66c3b9" x="299.31539" y="123.751719" style="fill: #1400eb; stroke: #1400eb"/>
     <use xlink:href="#mde6d66c3b9" x="310.167987" y="112.694867" style="fill: #1400eb; stroke: #1400eb"/>
     <use xlink:href="#mde6d66c3b9" x="321.020584" y="126.713727" style="fill: #1400eb; stroke: #1400eb"/>
     <use xlink:href="#mde6d66c3b9" x="331.873182" y="118.913857" style="fill: #1400eb; stroke: #1400eb"/>
     <use xlink:href="#mde6d66c3b9" x="342.725779" y="123.624332" style="fill: #1400eb; stroke: #1400eb"/>
     <use xlink:href="#mde6d66c3b9" x="353.578377" y="129.028561" style="fill: #1400eb; stroke: #1400eb"/>
     <use xlink:href="#mde6d66c3b9" x="364.430974" y="109.629629" style="fill: #1400eb; stroke: #1400eb"/>
     <use xlink:href="#mde6d66c3b9" x="375.283571" y="117.081139" style="fill: #1400eb; stroke: #1400eb"/>
     <use xlink:href="#mde6d66c3b9" x="386.136169" y="115.570274" style="fill: #1400eb; stroke: #1400eb"/>
     <use xlink:href="#mde6d66c3b9" x="396.988766" y="108.392471" style="fill: #1400eb; stroke: #1400eb"/>
     <use xlink:href="#mde6d66c3b9" x="407.841364" y="111.298448" style="fill: #1400eb; stroke: #1400eb"/>
    </g>
   </g>
   <g id="line2d_14">
    <path d="M 169.084221 152.3759 
L 179.936818 153.536449 
L 190.789416 166.153846 
L 201.642013 144.010858 
L 212.49461 135.740774 
L 223.347208 140.218932 
L 234.199805 138.476641 
L 245.052403 150.953674 
L 255.905 142.304982 
L 266.757597 142.523523 
L 277.610195 138.695023 
L 288.462792 137.226887 
L 299.31539 141.519404 
L 310.167987 139.175066 
L 321.020584 135.034708 
L 331.873182 136.259974 
L 342.725779 132.59635 
L 353.578377 129.373305 
L 364.430974 131.971875 
L 375.283571 129.05356 
" clip-path="url(#p615309a6a6)" style="fill: none; stroke: #1e00e1; stroke-width: 1.5; stroke-linecap: square"/>
    <defs>
     <path id="mb6d21c1112" d="M 0 3 
C 0.795609 3 1.55874 2.683901 2.12132 2.12132 
C 2.683901 1.55874 3 0.795609 3 0 
C 3 -0.795609 2.683901 -1.55874 2.12132 -2.12132 
C 1.55874 -2.683901 0.795609 -3 0 -3 
C -0.795609 -3 -1.55874 -2.683901 -2.12132 -2.12132 
C -2.683901 -1.55874 -3 -0.795609 -3 0 
C -3 0.795609 -2.683901 1.55874 -2.12132 2.12132 
C -1.55874 2.683901 -0.795609 3 0 3 
z
" style="stroke: #1e00e1"/>
    </defs>
    <g clip-path="url(#p615309a6a6)">
     <use xlink:href="#mb6d21c1112" x="169.084221" y="152.3759" style="fill: #1e00e1; stroke: #1e00e1"/>
     <use xlink:href="#mb6d21c1112" x="179.936818" y="153.536449" style="fill: #1e00e1; stroke: #1e00e1"/>
     <use xlink:href="#mb6d21c1112" x="190.789416" y="166.153846" style="fill: #1e00e1; stroke: #1e00e1"/>
     <use xlink:href="#mb6d21c1112" x="201.642013" y="144.010858" style="fill: #1e00e1; stroke: #1e00e1"/>
     <use xlink:href="#mb6d21c1112" x="212.49461" y="135.740774" style="fill: #1e00e1; stroke: #1e00e1"/>
     <use xlink:href="#mb6d21c1112" x="223.347208" y="140.218932" style="fill: #1e00e1; stroke: #1e00e1"/>
     <use xlink:href="#mb6d21c1112" x="234.199805" y="138.476641" style="fill: #1e00e1; stroke: #1e00e1"/>
     <use xlink:href="#mb6d21c1112" x="245.052403" y="150.953674" style="fill: #1e00e1; stroke: #1e00e1"/>
     <use xlink:href="#mb6d21c1112" x="255.905" y="142.304982" style="fill: #1e00e1; stroke: #1e00e1"/>
     <use xlink:href="#mb6d21c1112" x="266.757597" y="142.523523" style="fill: #1e00e1; stroke: #1e00e1"/>
     <use xlink:href="#mb6d21c1112" x="277.610195" y="138.695023" style="fill: #1e00e1; stroke: #1e00e1"/>
     <use xlink:href="#mb6d21c1112" x="288.462792" y="137.226887" style="fill: #1e00e1; stroke: #1e00e1"/>
     <use xlink:href="#mb6d21c1112" x="299.31539" y="141.519404" style="fill: #1e00e1; stroke: #1e00e1"/>
     <use xlink:href="#mb6d21c1112" x="310.167987" y="139.175066" style="fill: #1e00e1; stroke: #1e00e1"/>
     <use xlink:href="#mb6d21c1112" x="321.020584" y="135.034708" style="fill: #1e00e1; stroke: #1e00e1"/>
     <use xlink:href="#mb6d21c1112" x="331.873182" y="136.259974" style="fill: #1e00e1; stroke: #1e00e1"/>
     <use xlink:href="#mb6d21c1112" x="342.725779" y="132.59635" style="fill: #1e00e1; stroke: #1e00e1"/>
     <use xlink:href="#mb6d21c1112" x="353.578377" y="129.373305" style="fill: #1e00e1; stroke: #1e00e1"/>
     <use xlink:href="#mb6d21c1112" x="364.430974" y="131.971875" style="fill: #1e00e1; stroke: #1e00e1"/>
     <use xlink:href="#mb6d21c1112" x="375.283571" y="129.05356" style="fill: #1e00e1; stroke: #1e00e1"/>
    </g>
   </g>
   <g id="line2d_15">
    <path d="M 158.231623 156.719285 
L 169.084221 158.646404 
L 179.936818 148.088791 
L 190.789416 160.62478 
L 201.642013 151.011423 
L 212.49461 144.998388 
L 223.347208 147.839725 
L 234.199805 145.749695 
L 245.052403 148.687187 
L 255.905 145.108694 
L 266.757597 149.609214 
L 277.610195 146.583224 
L 288.462792 149.538926 
L 299.31539 134.911402 
L 310.167987 145.003319 
L 321.020584 136.927847 
L 331.873182 132.712399 
L 342.725779 124.964002 
" clip-path="url(#p615309a6a6)" style="fill: none; stroke: #2800d7; stroke-width: 1.5; stroke-linecap: square"/>
    <defs>
     <path id="m404ce28c6c" d="M 0 3 
C 0.795609 3 1.55874 2.683901 2.12132 2.12132 
C 2.683901 1.55874 3 0.795609 3 0 
C 3 -0.795609 2.683901 -1.55874 2.12132 -2.12132 
C 1.55874 -2.683901 0.795609 -3 0 -3 
C -0.795609 -3 -1.55874 -2.683901 -2.12132 -2.12132 
C -2.683901 -1.55874 -3 -0.795609 -3 0 
C -3 0.795609 -2.683901 1.55874 -2.12132 2.12132 
C -1.55874 2.683901 -0.795609 3 0 3 
z
" style="stroke: #2800d7"/>
    </defs>
    <g clip-path="url(#p615309a6a6)">
     <use xlink:href="#m404ce28c6c" x="158.231623" y="156.719285" style="fill: #2800d7; stroke: #2800d7"/>
     <use xlink:href="#m404ce28c6c" x="169.084221" y="158.646404" style="fill: #2800d7; stroke: #2800d7"/>
     <use xlink:href="#m404ce28c6c" x="179.936818" y="148.088791" style="fill: #2800d7; stroke: #2800d7"/>
     <use xlink:href="#m404ce28c6c" x="190.789416" y="160.62478" style="fill: #2800d7; stroke: #2800d7"/>
     <use xlink:href="#m404ce28c6c" x="201.642013" y="151.011423" style="fill: #2800d7; stroke: #2800d7"/>
     <use xlink:href="#m404ce28c6c" x="212.49461" y="144.998388" style="fill: #2800d7; stroke: #2800d7"/>
     <use xlink:href="#m404ce28c6c" x="223.347208" y="147.839725" style="fill: #2800d7; stroke: #2800d7"/>
     <use xlink:href="#m404ce28c6c" x="234.199805" y="145.749695" style="fill: #2800d7; stroke: #2800d7"/>
     <use xlink:href="#m404ce28c6c" x="245.052403" y="148.687187" style="fill: #2800d7; stroke: #2800d7"/>
     <use xlink:href="#m404ce28c6c" x="255.905" y="145.108694" style="fill: #2800d7; stroke: #2800d7"/>
     <use xlink:href="#m404ce28c6c" x="266.757597" y="149.609214" style="fill: #2800d7; stroke: #2800d7"/>
     <use xlink:href="#m404ce28c6c" x="277.610195" y="146.583224" style="fill: #2800d7; stroke: #2800d7"/>
     <use xlink:href="#m404ce28c6c" x="288.462792" y="149.538926" style="fill: #2800d7; stroke: #2800d7"/>
     <use xlink:href="#m404ce28c6c" x="299.31539" y="134.911402" style="fill: #2800d7; stroke: #2800d7"/>
     <use xlink:href="#m404ce28c6c" x="310.167987" y="145.003319" style="fill: #2800d7; stroke: #2800d7"/>
     <use xlink:href="#m404ce28c6c" x="321.020584" y="136.927847" style="fill: #2800d7; stroke: #2800d7"/>
     <use xlink:href="#m404ce28c6c" x="331.873182" y="132.712399" style="fill: #2800d7; stroke: #2800d7"/>
     <use xlink:href="#m404ce28c6c" x="342.725779" y="124.964002" style="fill: #2800d7; stroke: #2800d7"/>
    </g>
   </g>
   <g id="line2d_16">
    <path d="M 147.379026 126.421215 
L 158.231623 104.166772 
L 169.084221 126.382291 
L 179.936818 100.346811 
L 190.789416 118.084118 
L 201.642013 106.670585 
L 212.49461 111.685622 
L 223.347208 73.750937 
L 234.199805 88.816168 
L 245.052403 80.956982 
L 255.905 83.003908 
L 266.757597 104.315823 
L 277.610195 112.069001 
L 288.462792 107.097775 
L 299.31539 107.810037 
L 310.167987 106.309703 
L 321.020584 91.355145 
" clip-path="url(#p615309a6a6)" style="fill: none; stroke: #3200cd; stroke-width: 1.5; stroke-linecap: square"/>
    <defs>
     <path id="m1f54888f4d" d="M 0 3 
C 0.795609 3 1.55874 2.683901 2.12132 2.12132 
C 2.683901 1.55874 3 0.795609 3 0 
C 3 -0.795609 2.683901 -1.55874 2.12132 -2.12132 
C 1.55874 -2.683901 0.795609 -3 0 -3 
C -0.795609 -3 -1.55874 -2.683901 -2.12132 -2.12132 
C -2.683901 -1.55874 -3 -0.795609 -3 0 
C -3 0.795609 -2.683901 1.55874 -2.12132 2.12132 
C -1.55874 2.683901 -0.795609 3 0 3 
z
" style="stroke: #3200cd"/>
    </defs>
    <g clip-path="url(#p615309a6a6)">
     <use xlink:href="#m1f54888f4d" x="147.379026" y="126.421215" style="fill: #3200cd; stroke: #3200cd"/>
     <use xlink:href="#m1f54888f4d" x="158.231623" y="104.166772" style="fill: #3200cd; stroke: #3200cd"/>
     <use xlink:href="#m1f54888f4d" x="169.084221" y="126.382291" style="fill: #3200cd; stroke: #3200cd"/>
     <use xlink:href="#m1f54888f4d" x="179.936818" y="100.346811" style="fill: #3200cd; stroke: #3200cd"/>
     <use xlink:href="#m1f54888f4d" x="190.789416" y="118.084118" style="fill: #3200cd; stroke: #3200cd"/>
     <use xlink:href="#m1f54888f4d" x="201.642013" y="106.670585" style="fill: #3200cd; stroke: #3200cd"/>
     <use xlink:href="#m1f54888f4d" x="212.49461" y="111.685622" style="fill: #3200cd; stroke: #3200cd"/>
     <use xlink:href="#m1f54888f4d" x="223.347208" y="73.750937" style="fill: #3200cd; stroke: #3200cd"/>
     <use xlink:href="#m1f54888f4d" x="234.199805" y="88.816168" style="fill: #3200cd; stroke: #3200cd"/>
     <use xlink:href="#m1f54888f4d" x="245.052403" y="80.956982" style="fill: #3200cd; stroke: #3200cd"/>
     <use xlink:href="#m1f54888f4d" x="255.905" y="83.003908" style="fill: #3200cd; stroke: #3200cd"/>
     <use xlink:href="#m1f54888f4d" x="266.757597" y="104.315823" style="fill: #3200cd; stroke: #3200cd"/>
     <use xlink:href="#m1f54888f4d" x="277.610195" y="112.069001" style="fill: #3200cd; stroke: #3200cd"/>
     <use xlink:href="#m1f54888f4d" x="288.462792" y="107.097775" style="fill: #3200cd; stroke: #3200cd"/>
     <use xlink:href="#m1f54888f4d" x="299.31539" y="107.810037" style="fill: #3200cd; stroke: #3200cd"/>
     <use xlink:href="#m1f54888f4d" x="310.167987" y="106.309703" style="fill: #3200cd; stroke: #3200cd"/>
     <use xlink:href="#m1f54888f4d" x="321.020584" y="91.355145" style="fill: #3200cd; stroke: #3200cd"/>
    </g>
   </g>
   <g id="line2d_17">
    <path d="M 136.526429 102.201661 
L 147.379026 110.12107 
L 158.231623 91.405738 
L 169.084221 109.506706 
L 179.936818 104.194846 
L 190.789416 110.346734 
L 201.642013 97.087747 
L 212.49461 98.861127 
L 223.347208 68.472221 
L 234.199805 67.828465 
L 245.052403 96.724576 
L 255.905 101.020128 
L 266.757597 98.051407 
L 277.610195 101.913445 
L 288.462792 71.352727 
L 299.31539 95.024383 
" clip-path="url(#p615309a6a6)" style="fill: none; stroke: #3c00c3; stroke-width: 1.5; stroke-linecap: square"/>
    <defs>
     <path id="mc4809beb5f" d="M 0 3 
C 0.795609 3 1.55874 2.683901 2.12132 2.12132 
C 2.683901 1.55874 3 0.795609 3 0 
C 3 -0.795609 2.683901 -1.55874 2.12132 -2.12132 
C 1.55874 -2.683901 0.795609 -3 0 -3 
C -0.795609 -3 -1.55874 -2.683901 -2.12132 -2.12132 
C -2.683901 -1.55874 -3 -0.795609 -3 0 
C -3 0.795609 -2.683901 1.55874 -2.12132 2.12132 
C -1.55874 2.683901 -0.795609 3 0 3 
z
" style="stroke: #3c00c3"/>
    </defs>
    <g clip-path="url(#p615309a6a6)">
     <use xlink:href="#mc4809beb5f" x="136.526429" y="102.201661" style="fill: #3c00c3; stroke: #3c00c3"/>
     <use xlink:href="#mc4809beb5f" x="147.379026" y="110.12107" style="fill: #3c00c3; stroke: #3c00c3"/>
     <use xlink:href="#mc4809beb5f" x="158.231623" y="91.405738" style="fill: #3c00c3; stroke: #3c00c3"/>
     <use xlink:href="#mc4809beb5f" x="169.084221" y="109.506706" style="fill: #3c00c3; stroke: #3c00c3"/>
     <use xlink:href="#mc4809beb5f" x="179.936818" y="104.194846" style="fill: #3c00c3; stroke: #3c00c3"/>
     <use xlink:href="#mc4809beb5f" x="190.789416" y="110.346734" style="fill: #3c00c3; stroke: #3c00c3"/>
     <use xlink:href="#mc4809beb5f" x="201.642013" y="97.087747" style="fill: #3c00c3; stroke: #3c00c3"/>
     <use xlink:href="#mc4809beb5f" x="212.49461" y="98.861127" style="fill: #3c00c3; stroke: #3c00c3"/>
     <use xlink:href="#mc4809beb5f" x="223.347208" y="68.472221" style="fill: #3c00c3; stroke: #3c00c3"/>
     <use xlink:href="#mc4809beb5f" x="234.199805" y="67.828465" style="fill: #3c00c3; stroke: #3c00c3"/>
     <use xlink:href="#mc4809beb5f" x="245.052403" y="96.724576" style="fill: #3c00c3; stroke: #3c00c3"/>
     <use xlink:href="#mc4809beb5f" x="255.905" y="101.020128" style="fill: #3c00c3; stroke: #3c00c3"/>
     <use xlink:href="#mc4809beb5f" x="266.757597" y="98.051407" style="fill: #3c00c3; stroke: #3c00c3"/>
     <use xlink:href="#mc4809beb5f" x="277.610195" y="101.913445" style="fill: #3c00c3; stroke: #3c00c3"/>
     <use xlink:href="#mc4809beb5f" x="288.462792" y="71.352727" style="fill: #3c00c3; stroke: #3c00c3"/>
     <use xlink:href="#mc4809beb5f" x="299.31539" y="95.024383" style="fill: #3c00c3; stroke: #3c00c3"/>
    </g>
   </g>
   <g id="line2d_18">
    <path d="M 136.526429 151.127419 
L 147.379026 138.394841 
L 158.231623 138.704707 
L 169.084221 137.017908 
L 179.936818 140.878232 
L 190.789416 138.233264 
L 201.642013 143.068545 
L 212.49461 129.180742 
L 223.347208 110.429032 
L 234.199805 131.352486 
L 245.052403 132.220791 
L 255.905 123.825412 
L 266.757597 125.963944 
L 277.610195 128.237265 
L 288.462792 132.705849 
" clip-path="url(#p615309a6a6)" style="fill: none; stroke: #4600b9; stroke-width: 1.5; stroke-linecap: square"/>
    <defs>
     <path id="m9b70882d8c" d="M 0 3 
C 0.795609 3 1.55874 2.683901 2.12132 2.12132 
C 2.683901 1.55874 3 0.795609 3 0 
C 3 -0.795609 2.683901 -1.55874 2.12132 -2.12132 
C 1.55874 -2.683901 0.795609 -3 0 -3 
C -0.795609 -3 -1.55874 -2.683901 -2.12132 -2.12132 
C -2.683901 -1.55874 -3 -0.795609 -3 0 
C -3 0.795609 -2.683901 1.55874 -2.12132 2.12132 
C -1.55874 2.683901 -0.795609 3 0 3 
z
" style="stroke: #4600b9"/>
    </defs>
    <g clip-path="url(#p615309a6a6)">
     <use xlink:href="#m9b70882d8c" x="136.526429" y="151.127419" style="fill: #4600b9; stroke: #4600b9"/>
     <use xlink:href="#m9b70882d8c" x="147.379026" y="138.394841" style="fill: #4600b9; stroke: #4600b9"/>
     <use xlink:href="#m9b70882d8c" x="158.231623" y="138.704707" style="fill: #4600b9; stroke: #4600b9"/>
     <use xlink:href="#m9b70882d8c" x="169.084221" y="137.017908" style="fill: #4600b9; stroke: #4600b9"/>
     <use xlink:href="#m9b70882d8c" x="179.936818" y="140.878232" style="fill: #4600b9; stroke: #4600b9"/>
     <use xlink:href="#m9b70882d8c" x="190.789416" y="138.233264" style="fill: #4600b9; stroke: #4600b9"/>
     <use xlink:href="#m9b70882d8c" x="201.642013" y="143.068545" style="fill: #4600b9; stroke: #4600b9"/>
     <use xlink:href="#m9b70882d8c" x="212.49461" y="129.180742" style="fill: #4600b9; stroke: #4600b9"/>
     <use xlink:href="#m9b70882d8c" x="223.347208" y="110.429032" style="fill: #4600b9; stroke: #4600b9"/>
     <use xlink:href="#m9b70882d8c" x="234.199805" y="131.352486" style="fill: #4600b9; stroke: #4600b9"/>
     <use xlink:href="#m9b70882d8c" x="245.052403" y="132.220791" style="fill: #4600b9; stroke: #4600b9"/>
     <use xlink:href="#m9b70882d8c" x="255.905" y="123.825412" style="fill: #4600b9; stroke: #4600b9"/>
     <use xlink:href="#m9b70882d8c" x="266.757597" y="125.963944" style="fill: #4600b9; stroke: #4600b9"/>
     <use xlink:href="#m9b70882d8c" x="277.610195" y="128.237265" style="fill: #4600b9; stroke: #4600b9"/>
     <use xlink:href="#m9b70882d8c" x="288.462792" y="132.705849" style="fill: #4600b9; stroke: #4600b9"/>
    </g>
   </g>
   <g id="line2d_19">
    <path d="M 136.526429 164.751297 
L 147.379026 141.706808 
L 158.231623 142.541071 
L 169.084221 133.217088 
L 179.936818 142.655842 
L 190.789416 155.221805 
L 201.642013 145.231341 
L 212.49461 131.922087 
L 223.347208 118.751326 
L 234.199805 125.194469 
L 245.052403 136.910724 
L 255.905 128.550032 
L 266.757597 142.781172 
" clip-path="url(#p615309a6a6)" style="fill: none; stroke: #5000af; stroke-width: 1.5; stroke-linecap: square"/>
    <defs>
     <path id="m239cda6bfd" d="M 0 3 
C 0.795609 3 1.55874 2.683901 2.12132 2.12132 
C 2.683901 1.55874 3 0.795609 3 0 
C 3 -0.795609 2.683901 -1.55874 2.12132 -2.12132 
C 1.55874 -2.683901 0.795609 -3 0 -3 
C -0.795609 -3 -1.55874 -2.683901 -2.12132 -2.12132 
C -2.683901 -1.55874 -3 -0.795609 -3 0 
C -3 0.795609 -2.683901 1.55874 -2.12132 2.12132 
C -1.55874 2.683901 -0.795609 3 0 3 
z
" style="stroke: #5000af"/>
    </defs>
    <g clip-path="url(#p615309a6a6)">
     <use xlink:href="#m239cda6bfd" x="136.526429" y="164.751297" style="fill: #5000af; stroke: #5000af"/>
     <use xlink:href="#m239cda6bfd" x="147.379026" y="141.706808" style="fill: #5000af; stroke: #5000af"/>
     <use xlink:href="#m239cda6bfd" x="158.231623" y="142.541071" style="fill: #5000af; stroke: #5000af"/>
     <use xlink:href="#m239cda6bfd" x="169.084221" y="133.217088" style="fill: #5000af; stroke: #5000af"/>
     <use xlink:href="#m239cda6bfd" x="179.936818" y="142.655842" style="fill: #5000af; stroke: #5000af"/>
     <use xlink:href="#m239cda6bfd" x="190.789416" y="155.221805" style="fill: #5000af; stroke: #5000af"/>
     <use xlink:href="#m239cda6bfd" x="201.642013" y="145.231341" style="fill: #5000af; stroke: #5000af"/>
     <use xlink:href="#m239cda6bfd" x="212.49461" y="131.922087" style="fill: #5000af; stroke: #5000af"/>
     <use xlink:href="#m239cda6bfd" x="223.347208" y="118.751326" style="fill: #5000af; stroke: #5000af"/>
     <use xlink:href="#m239cda6bfd" x="234.199805" y="125.194469" style="fill: #5000af; stroke: #5000af"/>
     <use xlink:href="#m239cda6bfd" x="245.052403" y="136.910724" style="fill: #5000af; stroke: #5000af"/>
     <use xlink:href="#m239cda6bfd" x="255.905" y="128.550032" style="fill: #5000af; stroke: #5000af"/>
     <use xlink:href="#m239cda6bfd" x="266.757597" y="142.781172" style="fill: #5000af; stroke: #5000af"/>
    </g>
   </g>
   <g id="line2d_20">
    <path d="M 125.673831 147.074475 
L 136.526429 133.830176 
L 147.379026 140.146632 
L 158.231623 129.947522 
L 169.084221 127.558988 
L 179.936818 128.961088 
L 190.789416 127.432217 
L 201.642013 133.943737 
L 212.49461 105.817303 
L 223.347208 103.197384 
L 234.199805 111.647675 
L 245.052403 128.007059 
L 255.905 118.29078 
" clip-path="url(#p615309a6a6)" style="fill: none; stroke: #5a00a5; stroke-width: 1.5; stroke-linecap: square"/>
    <defs>
     <path id="me00ea34640" d="M 0 3 
C 0.795609 3 1.55874 2.683901 2.12132 2.12132 
C 2.683901 1.55874 3 0.795609 3 0 
C 3 -0.795609 2.683901 -1.55874 2.12132 -2.12132 
C 1.55874 -2.683901 0.795609 -3 0 -3 
C -0.795609 -3 -1.55874 -2.683901 -2.12132 -2.12132 
C -2.683901 -1.55874 -3 -0.795609 -3 0 
C -3 0.795609 -2.683901 1.55874 -2.12132 2.12132 
C -1.55874 2.683901 -0.795609 3 0 3 
z
" style="stroke: #5a00a5"/>
    </defs>
    <g clip-path="url(#p615309a6a6)">
     <use xlink:href="#me00ea34640" x="125.673831" y="147.074475" style="fill: #5a00a5; stroke: #5a00a5"/>
     <use xlink:href="#me00ea34640" x="136.526429" y="133.830176" style="fill: #5a00a5; stroke: #5a00a5"/>
     <use xlink:href="#me00ea34640" x="147.379026" y="140.146632" style="fill: #5a00a5; stroke: #5a00a5"/>
     <use xlink:href="#me00ea34640" x="158.231623" y="129.947522" style="fill: #5a00a5; stroke: #5a00a5"/>
     <use xlink:href="#me00ea34640" x="169.084221" y="127.558988" style="fill: #5a00a5; stroke: #5a00a5"/>
     <use xlink:href="#me00ea34640" x="179.936818" y="128.961088" style="fill: #5a00a5; stroke: #5a00a5"/>
     <use xlink:href="#me00ea34640" x="190.789416" y="127.432217" style="fill: #5a00a5; stroke: #5a00a5"/>
     <use xlink:href="#me00ea34640" x="201.642013" y="133.943737" style="fill: #5a00a5; stroke: #5a00a5"/>
     <use xlink:href="#me00ea34640" x="212.49461" y="105.817303" style="fill: #5a00a5; stroke: #5a00a5"/>
     <use xlink:href="#me00ea34640" x="223.347208" y="103.197384" style="fill: #5a00a5; stroke: #5a00a5"/>
     <use xlink:href="#me00ea34640" x="234.199805" y="111.647675" style="fill: #5a00a5; stroke: #5a00a5"/>
     <use xlink:href="#me00ea34640" x="245.052403" y="128.007059" style="fill: #5a00a5; stroke: #5a00a5"/>
     <use xlink:href="#me00ea34640" x="255.905" y="118.29078" style="fill: #5a00a5; stroke: #5a00a5"/>
    </g>
   </g>
   <g id="line2d_21">
    <path d="M 125.673831 78.351076 
L 136.526429 97.105833 
L 147.379026 89.454734 
L 158.231623 83.801306 
L 169.084221 59.701944 
L 179.936818 61.475788 
L 190.789416 85.740072 
L 201.642013 28.964202 
L 212.49461 36.905174 
L 223.347208 64.558597 
L 234.199805 72.711407 
L 245.052403 63.164557 
" clip-path="url(#p615309a6a6)" style="fill: none; stroke: #64009b; stroke-width: 1.5; stroke-linecap: square"/>
    <defs>
     <path id="m8ff16875e5" d="M 0 3 
C 0.795609 3 1.55874 2.683901 2.12132 2.12132 
C 2.683901 1.55874 3 0.795609 3 0 
C 3 -0.795609 2.683901 -1.55874 2.12132 -2.12132 
C 1.55874 -2.683901 0.795609 -3 0 -3 
C -0.795609 -3 -1.55874 -2.683901 -2.12132 -2.12132 
C -2.683901 -1.55874 -3 -0.795609 -3 0 
C -3 0.795609 -2.683901 1.55874 -2.12132 2.12132 
C -1.55874 2.683901 -0.795609 3 0 3 
z
" style="stroke: #64009b"/>
    </defs>
    <g clip-path="url(#p615309a6a6)">
     <use xlink:href="#m8ff16875e5" x="125.673831" y="78.351076" style="fill: #64009b; stroke: #64009b"/>
     <use xlink:href="#m8ff16875e5" x="136.526429" y="97.105833" style="fill: #64009b; stroke: #64009b"/>
     <use xlink:href="#m8ff16875e5" x="147.379026" y="89.454734" style="fill: #64009b; stroke: #64009b"/>
     <use xlink:href="#m8ff16875e5" x="158.231623" y="83.801306" style="fill: #64009b; stroke: #64009b"/>
     <use xlink:href="#m8ff16875e5" x="169.084221" y="59.701944" style="fill: #64009b; stroke: #64009b"/>
     <use xlink:href="#m8ff16875e5" x="179.936818" y="61.475788" style="fill: #64009b; stroke: #64009b"/>
     <use xlink:href="#m8ff16875e5" x="190.789416" y="85.740072" style="fill: #64009b; stroke: #64009b"/>
     <use xlink:href="#m8ff16875e5" x="201.642013" y="28.964202" style="fill: #64009b; stroke: #64009b"/>
     <use xlink:href="#m8ff16875e5" x="212.49461" y="36.905174" style="fill: #64009b; stroke: #64009b"/>
     <use xlink:href="#m8ff16875e5" x="223.347208" y="64.558597" style="fill: #64009b; stroke: #64009b"/>
     <use xlink:href="#m8ff16875e5" x="234.199805" y="72.711407" style="fill: #64009b; stroke: #64009b"/>
     <use xlink:href="#m8ff16875e5" x="245.052403" y="63.164557" style="fill: #64009b; stroke: #64009b"/>
    </g>
   </g>
   <g id="line2d_22">
    <path d="M 125.673831 150.299335 
L 136.526429 162.223304 
L 147.379026 155.705703 
L 158.231623 161.728831 
L 169.084221 146.115628 
L 179.936818 152.382414 
L 190.789416 169.056557 
L 201.642013 145.30872 
L 212.49461 147.668418 
L 223.347208 138.630636 
L 234.199805 161.772009 
" clip-path="url(#p615309a6a6)" style="fill: none; stroke: #6e0091; stroke-width: 1.5; stroke-linecap: square"/>
    <defs>
     <path id="mdd5d92ee60" d="M 0 3 
C 0.795609 3 1.55874 2.683901 2.12132 2.12132 
C 2.683901 1.55874 3 0.795609 3 0 
C 3 -0.795609 2.683901 -1.55874 2.12132 -2.12132 
C 1.55874 -2.683901 0.795609 -3 0 -3 
C -0.795609 -3 -1.55874 -2.683901 -2.12132 -2.12132 
C -2.683901 -1.55874 -3 -0.795609 -3 0 
C -3 0.795609 -2.683901 1.55874 -2.12132 2.12132 
C -1.55874 2.683901 -0.795609 3 0 3 
z
" style="stroke: #6e0091"/>
    </defs>
    <g clip-path="url(#p615309a6a6)">
     <use xlink:href="#mdd5d92ee60" x="125.673831" y="150.299335" style="fill: #6e0091; stroke: #6e0091"/>
     <use xlink:href="#mdd5d92ee60" x="136.526429" y="162.223304" style="fill: #6e0091; stroke: #6e0091"/>
     <use xlink:href="#mdd5d92ee60" x="147.379026" y="155.705703" style="fill: #6e0091; stroke: #6e0091"/>
     <use xlink:href="#mdd5d92ee60" x="158.231623" y="161.728831" style="fill: #6e0091; stroke: #6e0091"/>
     <use xlink:href="#mdd5d92ee60" x="169.084221" y="146.115628" style="fill: #6e0091; stroke: #6e0091"/>
     <use xlink:href="#mdd5d92ee60" x="179.936818" y="152.382414" style="fill: #6e0091; stroke: #6e0091"/>
     <use xlink:href="#mdd5d92ee60" x="190.789416" y="169.056557" style="fill: #6e0091; stroke: #6e0091"/>
     <use xlink:href="#mdd5d92ee60" x="201.642013" y="145.30872" style="fill: #6e0091; stroke: #6e0091"/>
     <use xlink:href="#mdd5d92ee60" x="212.49461" y="147.668418" style="fill: #6e0091; stroke: #6e0091"/>
     <use xlink:href="#mdd5d92ee60" x="223.347208" y="138.630636" style="fill: #6e0091; stroke: #6e0091"/>
     <use xlink:href="#mdd5d92ee60" x="234.199805" y="161.772009" style="fill: #6e0091; stroke: #6e0091"/>
    </g>
   </g>
   <g id="line2d_23">
    <path d="M 125.673831 157.218303 
L 136.526429 172.402611 
L 147.379026 154.776156 
L 158.231623 159.765398 
L 169.084221 161.982387 
L 179.936818 156.196393 
L 190.789416 161.629589 
L 201.642013 130.55444 
L 212.49461 147.514923 
L 223.347208 147.311025 
" clip-path="url(#p615309a6a6)" style="fill: none; stroke: #780087; stroke-width: 1.5; stroke-linecap: square"/>
    <defs>
     <path id="mb337596cca" d="M 0 3 
C 0.795609 3 1.55874 2.683901 2.12132 2.12132 
C 2.683901 1.55874 3 0.795609 3 0 
C 3 -0.795609 2.683901 -1.55874 2.12132 -2.12132 
C 1.55874 -2.683901 0.795609 -3 0 -3 
C -0.795609 -3 -1.55874 -2.683901 -2.12132 -2.12132 
C -2.683901 -1.55874 -3 -0.795609 -3 0 
C -3 0.795609 -2.683901 1.55874 -2.12132 2.12132 
C -1.55874 2.683901 -0.795609 3 0 3 
z
" style="stroke: #780087"/>
    </defs>
    <g clip-path="url(#p615309a6a6)">
     <use xlink:href="#mb337596cca" x="125.673831" y="157.218303" style="fill: #780087; stroke: #780087"/>
     <use xlink:href="#mb337596cca" x="136.526429" y="172.402611" style="fill: #780087; stroke: #780087"/>
     <use xlink:href="#mb337596cca" x="147.379026" y="154.776156" style="fill: #780087; stroke: #780087"/>
     <use xlink:href="#mb337596cca" x="158.231623" y="159.765398" style="fill: #780087; stroke: #780087"/>
     <use xlink:href="#mb337596cca" x="169.084221" y="161.982387" style="fill: #780087; stroke: #780087"/>
     <use xlink:href="#mb337596cca" x="179.936818" y="156.196393" style="fill: #780087; stroke: #780087"/>
     <use xlink:href="#mb337596cca" x="190.789416" y="161.629589" style="fill: #780087; stroke: #780087"/>
     <use xlink:href="#mb337596cca" x="201.642013" y="130.55444" style="fill: #780087; stroke: #780087"/>
     <use xlink:href="#mb337596cca" x="212.49461" y="147.514923" style="fill: #780087; stroke: #780087"/>
     <use xlink:href="#mb337596cca" x="223.347208" y="147.311025" style="fill: #780087; stroke: #780087"/>
    </g>
   </g>
   <g id="line2d_24">
    <path d="M 114.821234 201.355272 
L 125.673831 139.092859 
L 136.526429 205.643636 
L 147.379026 205.150385 
L 158.231623 201.531483 
L 169.084221 205.136114 
L 179.936818 198.913474 
L 190.789416 195.735777 
L 201.642013 179.83718 
L 212.49461 197.547312 
L 223.347208 205.502814 
" clip-path="url(#p615309a6a6)" style="fill: none; stroke: #82007d; stroke-width: 1.5; stroke-linecap: square"/>
    <defs>
     <path id="m13037b4812" d="M 0 3 
C 0.795609 3 1.55874 2.683901 2.12132 2.12132 
C 2.683901 1.55874 3 0.795609 3 0 
C 3 -0.795609 2.683901 -1.55874 2.12132 -2.12132 
C 1.55874 -2.683901 0.795609 -3 0 -3 
C -0.795609 -3 -1.55874 -2.683901 -2.12132 -2.12132 
C -2.683901 -1.55874 -3 -0.795609 -3 0 
C -3 0.795609 -2.683901 1.55874 -2.12132 2.12132 
C -1.55874 2.683901 -0.795609 3 0 3 
z
" style="stroke: #82007d"/>
    </defs>
    <g clip-path="url(#p615309a6a6)">
     <use xlink:href="#m13037b4812" x="114.821234" y="201.355272" style="fill: #82007d; stroke: #82007d"/>
     <use xlink:href="#m13037b4812" x="125.673831" y="139.092859" style="fill: #82007d; stroke: #82007d"/>
     <use xlink:href="#m13037b4812" x="136.526429" y="205.643636" style="fill: #82007d; stroke: #82007d"/>
     <use xlink:href="#m13037b4812" x="147.379026" y="205.150385" style="fill: #82007d; stroke: #82007d"/>
     <use xlink:href="#m13037b4812" x="158.231623" y="201.531483" style="fill: #82007d; stroke: #82007d"/>
     <use xlink:href="#m13037b4812" x="169.084221" y="205.136114" style="fill: #82007d; stroke: #82007d"/>
     <use xlink:href="#m13037b4812" x="179.936818" y="198.913474" style="fill: #82007d; stroke: #82007d"/>
     <use xlink:href="#m13037b4812" x="190.789416" y="195.735777" style="fill: #82007d; stroke: #82007d"/>
     <use xlink:href="#m13037b4812" x="201.642013" y="179.83718" style="fill: #82007d; stroke: #82007d"/>
     <use xlink:href="#m13037b4812" x="212.49461" y="197.547312" style="fill: #82007d; stroke: #82007d"/>
     <use xlink:href="#m13037b4812" x="223.347208" y="205.502814" style="fill: #82007d; stroke: #82007d"/>
    </g>
   </g>
   <g id="line2d_25">
    <path d="M 114.821234 201.768686 
L 125.673831 165.241157 
L 136.526429 203.611658 
L 147.379026 182.212884 
L 158.231623 200.604436 
L 169.084221 204.55539 
L 179.936818 199.831569 
L 190.789416 205.291268 
L 201.642013 191.677146 
L 212.49461 194.050378 
" clip-path="url(#p615309a6a6)" style="fill: none; stroke: #8c0073; stroke-width: 1.5; stroke-linecap: square"/>
    <defs>
     <path id="m0793a3b2ce" d="M 0 3 
C 0.795609 3 1.55874 2.683901 2.12132 2.12132 
C 2.683901 1.55874 3 0.795609 3 0 
C 3 -0.795609 2.683901 -1.55874 2.12132 -2.12132 
C 1.55874 -2.683901 0.795609 -3 0 -3 
C -0.795609 -3 -1.55874 -2.683901 -2.12132 -2.12132 
C -2.683901 -1.55874 -3 -0.795609 -3 0 
C -3 0.795609 -2.683901 1.55874 -2.12132 2.12132 
C -1.55874 2.683901 -0.795609 3 0 3 
z
" style="stroke: #8c0073"/>
    </defs>
    <g clip-path="url(#p615309a6a6)">
     <use xlink:href="#m0793a3b2ce" x="114.821234" y="201.768686" style="fill: #8c0073; stroke: #8c0073"/>
     <use xlink:href="#m0793a3b2ce" x="125.673831" y="165.241157" style="fill: #8c0073; stroke: #8c0073"/>
     <use xlink:href="#m0793a3b2ce" x="136.526429" y="203.611658" style="fill: #8c0073; stroke: #8c0073"/>
     <use xlink:href="#m0793a3b2ce" x="147.379026" y="182.212884" style="fill: #8c0073; stroke: #8c0073"/>
     <use xlink:href="#m0793a3b2ce" x="158.231623" y="200.604436" style="fill: #8c0073; stroke: #8c0073"/>
     <use xlink:href="#m0793a3b2ce" x="169.084221" y="204.55539" style="fill: #8c0073; stroke: #8c0073"/>
     <use xlink:href="#m0793a3b2ce" x="179.936818" y="199.831569" style="fill: #8c0073; stroke: #8c0073"/>
     <use xlink:href="#m0793a3b2ce" x="190.789416" y="205.291268" style="fill: #8c0073; stroke: #8c0073"/>
     <use xlink:href="#m0793a3b2ce" x="201.642013" y="191.677146" style="fill: #8c0073; stroke: #8c0073"/>
     <use xlink:href="#m0793a3b2ce" x="212.49461" y="194.050378" style="fill: #8c0073; stroke: #8c0073"/>
    </g>
   </g>
   <g id="line2d_26">
    <path d="M 114.821234 130.330431 
L 125.673831 120.710152 
L 136.526429 126.447056 
L 147.379026 114.041836 
L 158.231623 113.750861 
L 169.084221 128.806321 
L 179.936818 132.495778 
L 190.789416 109.379953 
L 201.642013 133.479189 
" clip-path="url(#p615309a6a6)" style="fill: none; stroke: #960069; stroke-width: 1.5; stroke-linecap: square"/>
    <defs>
     <path id="m4e4f5f6c8b" d="M 0 3 
C 0.795609 3 1.55874 2.683901 2.12132 2.12132 
C 2.683901 1.55874 3 0.795609 3 0 
C 3 -0.795609 2.683901 -1.55874 2.12132 -2.12132 
C 1.55874 -2.683901 0.795609 -3 0 -3 
C -0.795609 -3 -1.55874 -2.683901 -2.12132 -2.12132 
C -2.683901 -1.55874 -3 -0.795609 -3 0 
C -3 0.795609 -2.683901 1.55874 -2.12132 2.12132 
C -1.55874 2.683901 -0.795609 3 0 3 
z
" style="stroke: #960069"/>
    </defs>
    <g clip-path="url(#p615309a6a6)">
     <use xlink:href="#m4e4f5f6c8b" x="114.821234" y="130.330431" style="fill: #960069; stroke: #960069"/>
     <use xlink:href="#m4e4f5f6c8b" x="125.673831" y="120.710152" style="fill: #960069; stroke: #960069"/>
     <use xlink:href="#m4e4f5f6c8b" x="136.526429" y="126.447056" style="fill: #960069; stroke: #960069"/>
     <use xlink:href="#m4e4f5f6c8b" x="147.379026" y="114.041836" style="fill: #960069; stroke: #960069"/>
     <use xlink:href="#m4e4f5f6c8b" x="158.231623" y="113.750861" style="fill: #960069; stroke: #960069"/>
     <use xlink:href="#m4e4f5f6c8b" x="169.084221" y="128.806321" style="fill: #960069; stroke: #960069"/>
     <use xlink:href="#m4e4f5f6c8b" x="179.936818" y="132.495778" style="fill: #960069; stroke: #960069"/>
     <use xlink:href="#m4e4f5f6c8b" x="190.789416" y="109.379953" style="fill: #960069; stroke: #960069"/>
     <use xlink:href="#m4e4f5f6c8b" x="201.642013" y="133.479189" style="fill: #960069; stroke: #960069"/>
    </g>
   </g>
   <g id="line2d_27">
    <path d="M 114.821234 130.209359 
L 125.673831 136.309285 
L 136.526429 141.100162 
L 147.379026 119.940628 
L 158.231623 130.358267 
L 169.084221 118.669832 
L 179.936818 121.757831 
L 190.789416 117.178882 
L 201.642013 122.910781 
" clip-path="url(#p615309a6a6)" style="fill: none; stroke: #a0005f; stroke-width: 1.5; stroke-linecap: square"/>
    <defs>
     <path id="m3afb3ff281" d="M 0 3 
C 0.795609 3 1.55874 2.683901 2.12132 2.12132 
C 2.683901 1.55874 3 0.795609 3 0 
C 3 -0.795609 2.683901 -1.55874 2.12132 -2.12132 
C 1.55874 -2.683901 0.795609 -3 0 -3 
C -0.795609 -3 -1.55874 -2.683901 -2.12132 -2.12132 
C -2.683901 -1.55874 -3 -0.795609 -3 0 
C -3 0.795609 -2.683901 1.55874 -2.12132 2.12132 
C -1.55874 2.683901 -0.795609 3 0 3 
z
" style="stroke: #a0005f"/>
    </defs>
    <g clip-path="url(#p615309a6a6)">
     <use xlink:href="#m3afb3ff281" x="114.821234" y="130.209359" style="fill: #a0005f; stroke: #a0005f"/>
     <use xlink:href="#m3afb3ff281" x="125.673831" y="136.309285" style="fill: #a0005f; stroke: #a0005f"/>
     <use xlink:href="#m3afb3ff281" x="136.526429" y="141.100162" style="fill: #a0005f; stroke: #a0005f"/>
     <use xlink:href="#m3afb3ff281" x="147.379026" y="119.940628" style="fill: #a0005f; stroke: #a0005f"/>
     <use xlink:href="#m3afb3ff281" x="158.231623" y="130.358267" style="fill: #a0005f; stroke: #a0005f"/>
     <use xlink:href="#m3afb3ff281" x="169.084221" y="118.669832" style="fill: #a0005f; stroke: #a0005f"/>
     <use xlink:href="#m3afb3ff281" x="179.936818" y="121.757831" style="fill: #a0005f; stroke: #a0005f"/>
     <use xlink:href="#m3afb3ff281" x="190.789416" y="117.178882" style="fill: #a0005f; stroke: #a0005f"/>
     <use xlink:href="#m3afb3ff281" x="201.642013" y="122.910781" style="fill: #a0005f; stroke: #a0005f"/>
    </g>
   </g>
   <g id="line2d_28">
    <path d="M 114.821234 110.953593 
L 125.673831 69.27038 
L 136.526429 95.459854 
L 147.379026 86.024421 
L 158.231623 82.101489 
L 169.084221 64.333699 
L 179.936818 85.412303 
L 190.789416 96.64604 
" clip-path="url(#p615309a6a6)" style="fill: none; stroke: #aa0055; stroke-width: 1.5; stroke-linecap: square"/>
    <defs>
     <path id="m2899663d54" d="M 0 3 
C 0.795609 3 1.55874 2.683901 2.12132 2.12132 
C 2.683901 1.55874 3 0.795609 3 0 
C 3 -0.795609 2.683901 -1.55874 2.12132 -2.12132 
C 1.55874 -2.683901 0.795609 -3 0 -3 
C -0.795609 -3 -1.55874 -2.683901 -2.12132 -2.12132 
C -2.683901 -1.55874 -3 -0.795609 -3 0 
C -3 0.795609 -2.683901 1.55874 -2.12132 2.12132 
C -1.55874 2.683901 -0.795609 3 0 3 
z
" style="stroke: #aa0055"/>
    </defs>
    <g clip-path="url(#p615309a6a6)">
     <use xlink:href="#m2899663d54" x="114.821234" y="110.953593" style="fill: #aa0055; stroke: #aa0055"/>
     <use xlink:href="#m2899663d54" x="125.673831" y="69.27038" style="fill: #aa0055; stroke: #aa0055"/>
     <use xlink:href="#m2899663d54" x="136.526429" y="95.459854" style="fill: #aa0055; stroke: #aa0055"/>
     <use xlink:href="#m2899663d54" x="147.379026" y="86.024421" style="fill: #aa0055; stroke: #aa0055"/>
     <use xlink:href="#m2899663d54" x="158.231623" y="82.101489" style="fill: #aa0055; stroke: #aa0055"/>
     <use xlink:href="#m2899663d54" x="169.084221" y="64.333699" style="fill: #aa0055; stroke: #aa0055"/>
     <use xlink:href="#m2899663d54" x="179.936818" y="85.412303" style="fill: #aa0055; stroke: #aa0055"/>
     <use xlink:href="#m2899663d54" x="190.789416" y="96.64604" style="fill: #aa0055; stroke: #aa0055"/>
    </g>
   </g>
   <g id="line2d_29">
    <path d="M 114.821234 110.475438 
L 125.673831 108.155875 
L 136.526429 108.161328 
L 147.379026 108.194654 
L 158.231623 74.057084 
L 169.084221 80.512366 
L 179.936818 94.607295 
L 190.789416 101.110125 
" clip-path="url(#p615309a6a6)" style="fill: none; stroke: #b4004b; stroke-width: 1.5; stroke-linecap: square"/>
    <defs>
     <path id="m3ad139de54" d="M 0 3 
C 0.795609 3 1.55874 2.683901 2.12132 2.12132 
C 2.683901 1.55874 3 0.795609 3 0 
C 3 -0.795609 2.683901 -1.55874 2.12132 -2.12132 
C 1.55874 -2.683901 0.795609 -3 0 -3 
C -0.795609 -3 -1.55874 -2.683901 -2.12132 -2.12132 
C -2.683901 -1.55874 -3 -0.795609 -3 0 
C -3 0.795609 -2.683901 1.55874 -2.12132 2.12132 
C -1.55874 2.683901 -0.795609 3 0 3 
z
" style="stroke: #b4004b"/>
    </defs>
    <g clip-path="url(#p615309a6a6)">
     <use xlink:href="#m3ad139de54" x="114.821234" y="110.475438" style="fill: #b4004b; stroke: #b4004b"/>
     <use xlink:href="#m3ad139de54" x="125.673831" y="108.155875" style="fill: #b4004b; stroke: #b4004b"/>
     <use xlink:href="#m3ad139de54" x="136.526429" y="108.161328" style="fill: #b4004b; stroke: #b4004b"/>
     <use xlink:href="#m3ad139de54" x="147.379026" y="108.194654" style="fill: #b4004b; stroke: #b4004b"/>
     <use xlink:href="#m3ad139de54" x="158.231623" y="74.057084" style="fill: #b4004b; stroke: #b4004b"/>
     <use xlink:href="#m3ad139de54" x="169.084221" y="80.512366" style="fill: #b4004b; stroke: #b4004b"/>
     <use xlink:href="#m3ad139de54" x="179.936818" y="94.607295" style="fill: #b4004b; stroke: #b4004b"/>
     <use xlink:href="#m3ad139de54" x="190.789416" y="101.110125" style="fill: #b4004b; stroke: #b4004b"/>
    </g>
   </g>
   <g id="line2d_30">
    <path d="M 114.821234 142.684784 
L 125.673831 133.760541 
L 136.526429 145.074603 
L 147.379026 122.442898 
L 158.231623 126.213937 
L 169.084221 113.950075 
L 179.936818 109.789742 
" clip-path="url(#p615309a6a6)" style="fill: none; stroke: #be0041; stroke-width: 1.5; stroke-linecap: square"/>
    <defs>
     <path id="m00845529bc" d="M 0 3 
C 0.795609 3 1.55874 2.683901 2.12132 2.12132 
C 2.683901 1.55874 3 0.795609 3 0 
C 3 -0.795609 2.683901 -1.55874 2.12132 -2.12132 
C 1.55874 -2.683901 0.795609 -3 0 -3 
C -0.795609 -3 -1.55874 -2.683901 -2.12132 -2.12132 
C -2.683901 -1.55874 -3 -0.795609 -3 0 
C -3 0.795609 -2.683901 1.55874 -2.12132 2.12132 
C -1.55874 2.683901 -0.795609 3 0 3 
z
" style="stroke: #be0041"/>
    </defs>
    <g clip-path="url(#p615309a6a6)">
     <use xlink:href="#m00845529bc" x="114.821234" y="142.684784" style="fill: #be0041; stroke: #be0041"/>
     <use xlink:href="#m00845529bc" x="125.673831" y="133.760541" style="fill: #be0041; stroke: #be0041"/>
     <use xlink:href="#m00845529bc" x="136.526429" y="145.074603" style="fill: #be0041; stroke: #be0041"/>
     <use xlink:href="#m00845529bc" x="147.379026" y="122.442898" style="fill: #be0041; stroke: #be0041"/>
     <use xlink:href="#m00845529bc" x="158.231623" y="126.213937" style="fill: #be0041; stroke: #be0041"/>
     <use xlink:href="#m00845529bc" x="169.084221" y="113.950075" style="fill: #be0041; stroke: #be0041"/>
     <use xlink:href="#m00845529bc" x="179.936818" y="109.789742" style="fill: #be0041; stroke: #be0041"/>
    </g>
   </g>
   <g id="line2d_31">
    <path d="M 114.821234 69.774093 
L 125.673831 14.516364 
L 136.526429 47.890882 
L 147.379026 90.158892 
L 158.231623 76.763084 
L 169.084221 16.449402 
L 179.936818 49.507202 
" clip-path="url(#p615309a6a6)" style="fill: none; stroke: #c80037; stroke-width: 1.5; stroke-linecap: square"/>
    <defs>
     <path id="m159c55bb35" d="M 0 3 
C 0.795609 3 1.55874 2.683901 2.12132 2.12132 
C 2.683901 1.55874 3 0.795609 3 0 
C 3 -0.795609 2.683901 -1.55874 2.12132 -2.12132 
C 1.55874 -2.683901 0.795609 -3 0 -3 
C -0.795609 -3 -1.55874 -2.683901 -2.12132 -2.12132 
C -2.683901 -1.55874 -3 -0.795609 -3 0 
C -3 0.795609 -2.683901 1.55874 -2.12132 2.12132 
C -1.55874 2.683901 -0.795609 3 0 3 
z
" style="stroke: #c80037"/>
    </defs>
    <g clip-path="url(#p615309a6a6)">
     <use xlink:href="#m159c55bb35" x="114.821234" y="69.774093" style="fill: #c80037; stroke: #c80037"/>
     <use xlink:href="#m159c55bb35" x="125.673831" y="14.516364" style="fill: #c80037; stroke: #c80037"/>
     <use xlink:href="#m159c55bb35" x="136.526429" y="47.890882" style="fill: #c80037; stroke: #c80037"/>
     <use xlink:href="#m159c55bb35" x="147.379026" y="90.158892" style="fill: #c80037; stroke: #c80037"/>
     <use xlink:href="#m159c55bb35" x="158.231623" y="76.763084" style="fill: #c80037; stroke: #c80037"/>
     <use xlink:href="#m159c55bb35" x="169.084221" y="16.449402" style="fill: #c80037; stroke: #c80037"/>
     <use xlink:href="#m159c55bb35" x="179.936818" y="49.507202" style="fill: #c80037; stroke: #c80037"/>
    </g>
   </g>
   <g id="line2d_32">
    <path d="M 103.968636 101.907643 
L 114.821234 95.553958 
L 125.673831 118.413297 
L 136.526429 92.630555 
L 147.379026 79.528836 
L 158.231623 93.227412 
L 169.084221 111.488907 
L 179.936818 106.656431 
" clip-path="url(#p615309a6a6)" style="fill: none; stroke: #d2002d; stroke-width: 1.5; stroke-linecap: square"/>
    <defs>
     <path id="m1df9d10d33" d="M 0 3 
C 0.795609 3 1.55874 2.683901 2.12132 2.12132 
C 2.683901 1.55874 3 0.795609 3 0 
C 3 -0.795609 2.683901 -1.55874 2.12132 -2.12132 
C 1.55874 -2.683901 0.795609 -3 0 -3 
C -0.795609 -3 -1.55874 -2.683901 -2.12132 -2.12132 
C -2.683901 -1.55874 -3 -0.795609 -3 0 
C -3 0.795609 -2.683901 1.55874 -2.12132 2.12132 
C -1.55874 2.683901 -0.795609 3 0 3 
z
" style="stroke: #d2002d"/>
    </defs>
    <g clip-path="url(#p615309a6a6)">
     <use xlink:href="#m1df9d10d33" x="103.968636" y="101.907643" style="fill: #d2002d; stroke: #d2002d"/>
     <use xlink:href="#m1df9d10d33" x="114.821234" y="95.553958" style="fill: #d2002d; stroke: #d2002d"/>
     <use xlink:href="#m1df9d10d33" x="125.673831" y="118.413297" style="fill: #d2002d; stroke: #d2002d"/>
     <use xlink:href="#m1df9d10d33" x="136.526429" y="92.630555" style="fill: #d2002d; stroke: #d2002d"/>
     <use xlink:href="#m1df9d10d33" x="147.379026" y="79.528836" style="fill: #d2002d; stroke: #d2002d"/>
     <use xlink:href="#m1df9d10d33" x="158.231623" y="93.227412" style="fill: #d2002d; stroke: #d2002d"/>
     <use xlink:href="#m1df9d10d33" x="169.084221" y="111.488907" style="fill: #d2002d; stroke: #d2002d"/>
     <use xlink:href="#m1df9d10d33" x="179.936818" y="106.656431" style="fill: #d2002d; stroke: #d2002d"/>
    </g>
   </g>
   <g id="line2d_33">
    <path d="M 103.968636 121.76268 
L 114.821234 116.66325 
L 125.673831 107.685001 
L 136.526429 98.639017 
L 147.379026 76.380525 
L 158.231623 74.141633 
L 169.084221 68.327776 
" clip-path="url(#p615309a6a6)" style="fill: none; stroke: #dc0023; stroke-width: 1.5; stroke-linecap: square"/>
    <defs>
     <path id="m8fa99a5f90" d="M 0 3 
C 0.795609 3 1.55874 2.683901 2.12132 2.12132 
C 2.683901 1.55874 3 0.795609 3 0 
C 3 -0.795609 2.683901 -1.55874 2.12132 -2.12132 
C 1.55874 -2.683901 0.795609 -3 0 -3 
C -0.795609 -3 -1.55874 -2.683901 -2.12132 -2.12132 
C -2.683901 -1.55874 -3 -0.795609 -3 0 
C -3 0.795609 -2.683901 1.55874 -2.12132 2.12132 
C -1.55874 2.683901 -0.795609 3 0 3 
z
" style="stroke: #dc0023"/>
    </defs>
    <g clip-path="url(#p615309a6a6)">
     <use xlink:href="#m8fa99a5f90" x="103.968636" y="121.76268" style="fill: #dc0023; stroke: #dc0023"/>
     <use xlink:href="#m8fa99a5f90" x="114.821234" y="116.66325" style="fill: #dc0023; stroke: #dc0023"/>
     <use xlink:href="#m8fa99a5f90" x="125.673831" y="107.685001" style="fill: #dc0023; stroke: #dc0023"/>
     <use xlink:href="#m8fa99a5f90" x="136.526429" y="98.639017" style="fill: #dc0023; stroke: #dc0023"/>
     <use xlink:href="#m8fa99a5f90" x="147.379026" y="76.380525" style="fill: #dc0023; stroke: #dc0023"/>
     <use xlink:href="#m8fa99a5f90" x="158.231623" y="74.141633" style="fill: #dc0023; stroke: #dc0023"/>
     <use xlink:href="#m8fa99a5f90" x="169.084221" y="68.327776" style="fill: #dc0023; stroke: #dc0023"/>
    </g>
   </g>
   <g id="line2d_34">
    <path d="M 103.968636 45.763147 
L 114.821234 55.630548 
L 125.673831 91.404942 
L 136.526429 53.486231 
L 147.379026 24.061208 
L 158.231623 46.894555 
L 169.084221 15.707041 
" clip-path="url(#p615309a6a6)" style="fill: none; stroke: #e60019; stroke-width: 1.5; stroke-linecap: square"/>
    <defs>
     <path id="mf0c6d3f024" d="M 0 3 
C 0.795609 3 1.55874 2.683901 2.12132 2.12132 
C 2.683901 1.55874 3 0.795609 3 0 
C 3 -0.795609 2.683901 -1.55874 2.12132 -2.12132 
C 1.55874 -2.683901 0.795609 -3 0 -3 
C -0.795609 -3 -1.55874 -2.683901 -2.12132 -2.12132 
C -2.683901 -1.55874 -3 -0.795609 -3 0 
C -3 0.795609 -2.683901 1.55874 -2.12132 2.12132 
C -1.55874 2.683901 -0.795609 3 0 3 
z
" style="stroke: #e60019"/>
    </defs>
    <g clip-path="url(#p615309a6a6)">
     <use xlink:href="#mf0c6d3f024" x="103.968636" y="45.763147" style="fill: #e60019; stroke: #e60019"/>
     <use xlink:href="#mf0c6d3f024" x="114.821234" y="55.630548" style="fill: #e60019; stroke: #e60019"/>
     <use xlink:href="#mf0c6d3f024" x="125.673831" y="91.404942" style="fill: #e60019; stroke: #e60019"/>
     <use xlink:href="#mf0c6d3f024" x="136.526429" y="53.486231" style="fill: #e60019; stroke: #e60019"/>
     <use xlink:href="#mf0c6d3f024" x="147.379026" y="24.061208" style="fill: #e60019; stroke: #e60019"/>
     <use xlink:href="#mf0c6d3f024" x="158.231623" y="46.894555" style="fill: #e60019; stroke: #e60019"/>
     <use xlink:href="#mf0c6d3f024" x="169.084221" y="15.707041" style="fill: #e60019; stroke: #e60019"/>
    </g>
   </g>
   <g id="line2d_35">
    <path d="M 103.968636 60.66763 
L 114.821234 89.370683 
L 125.673831 115.02096 
L 136.526429 98.469962 
L 147.379026 32.631388 
L 158.231623 80.170325 
L 169.084221 62.592843 
" clip-path="url(#p615309a6a6)" style="fill: none; stroke: #f0000f; stroke-width: 1.5; stroke-linecap: square"/>
    <defs>
     <path id="ma6b5a66d27" d="M 0 3 
C 0.795609 3 1.55874 2.683901 2.12132 2.12132 
C 2.683901 1.55874 3 0.795609 3 0 
C 3 -0.795609 2.683901 -1.55874 2.12132 -2.12132 
C 1.55874 -2.683901 0.795609 -3 0 -3 
C -0.795609 -3 -1.55874 -2.683901 -2.12132 -2.12132 
C -2.683901 -1.55874 -3 -0.795609 -3 0 
C -3 0.795609 -2.683901 1.55874 -2.12132 2.12132 
C -1.55874 2.683901 -0.795609 3 0 3 
z
" style="stroke: #f0000f"/>
    </defs>
    <g clip-path="url(#p615309a6a6)">
     <use xlink:href="#ma6b5a66d27" x="103.968636" y="60.66763" style="fill: #f0000f; stroke: #f0000f"/>
     <use xlink:href="#ma6b5a66d27" x="114.821234" y="89.370683" style="fill: #f0000f; stroke: #f0000f"/>
     <use xlink:href="#ma6b5a66d27" x="125.673831" y="115.02096" style="fill: #f0000f; stroke: #f0000f"/>
     <use xlink:href="#ma6b5a66d27" x="136.526429" y="98.469962" style="fill: #f0000f; stroke: #f0000f"/>
     <use xlink:href="#ma6b5a66d27" x="147.379026" y="32.631388" style="fill: #f0000f; stroke: #f0000f"/>
     <use xlink:href="#ma6b5a66d27" x="158.231623" y="80.170325" style="fill: #f0000f; stroke: #f0000f"/>
     <use xlink:href="#ma6b5a66d27" x="169.084221" y="62.592843" style="fill: #f0000f; stroke: #f0000f"/>
    </g>
   </g>
   <g id="line2d_36">
    <path d="M 103.968636 117.578637 
L 114.821234 120.849222 
L 125.673831 99.938197 
L 136.526429 131.435709 
L 147.379026 74.040469 
L 158.231623 104.967367 
L 169.084221 111.945636 
" clip-path="url(#p615309a6a6)" style="fill: none; stroke: #fa0005; stroke-width: 1.5; stroke-linecap: square"/>
    <defs>
     <path id="md7373aa5be" d="M 0 3 
C 0.795609 3 1.55874 2.683901 2.12132 2.12132 
C 2.683901 1.55874 3 0.795609 3 0 
C 3 -0.795609 2.683901 -1.55874 2.12132 -2.12132 
C 1.55874 -2.683901 0.795609 -3 0 -3 
C -0.795609 -3 -1.55874 -2.683901 -2.12132 -2.12132 
C -2.683901 -1.55874 -3 -0.795609 -3 0 
C -3 0.795609 -2.683901 1.55874 -2.12132 2.12132 
C -1.55874 2.683901 -0.795609 3 0 3 
z
" style="stroke: #fa0005"/>
    </defs>
    <g clip-path="url(#p615309a6a6)">
     <use xlink:href="#md7373aa5be" x="103.968636" y="117.578637" style="fill: #fa0005; stroke: #fa0005"/>
     <use xlink:href="#md7373aa5be" x="114.821234" y="120.849222" style="fill: #fa0005; stroke: #fa0005"/>
     <use xlink:href="#md7373aa5be" x="125.673831" y="99.938197" style="fill: #fa0005; stroke: #fa0005"/>
     <use xlink:href="#md7373aa5be" x="136.526429" y="131.435709" style="fill: #fa0005; stroke: #fa0005"/>
     <use xlink:href="#md7373aa5be" x="147.379026" y="74.040469" style="fill: #fa0005; stroke: #fa0005"/>
     <use xlink:href="#md7373aa5be" x="158.231623" y="104.967367" style="fill: #fa0005; stroke: #fa0005"/>
     <use xlink:href="#md7373aa5be" x="169.084221" y="111.945636" style="fill: #fa0005; stroke: #fa0005"/>
    </g>
   </g>
   <g id="patch_3">
    <path d="M 88.775 215.2 
L 88.775 4.96 
" style="fill: none; stroke: #000000; stroke-width: 0.8; stroke-linejoin: miter; stroke-linecap: square"/>
   </g>
   <g id="patch_4">
    <path d="M 423.035 215.2 
L 423.035 4.96 
" style="fill: none; stroke: #000000; stroke-width: 0.8; stroke-linejoin: miter; stroke-linecap: square"/>
   </g>
   <g id="patch_5">
    <path d="M 88.775 215.2 
L 423.035 215.2 
" style="fill: none; stroke: #000000; stroke-width: 0.8; stroke-linejoin: miter; stroke-linecap: square"/>
   </g>
   <g id="patch_6">
    <path d="M 88.775 4.96 
L 423.035 4.96 
" style="fill: none; stroke: #000000; stroke-width: 0.8; stroke-linejoin: miter; stroke-linecap: square"/>
   </g>
   <g id="legend_1">
    <g id="patch_7">
     <path d="M 325.314687 101.02875 
L 416.035 101.02875 
Q 418.035 101.02875 418.035 99.02875 
L 418.035 11.96 
Q 418.035 9.96 416.035 9.96 
L 325.314687 9.96 
Q 323.314687 9.96 323.314687 11.96 
L 323.314687 99.02875 
Q 323.314687 101.02875 325.314687 101.02875 
z
" style="fill: #ffffff; opacity: 0.8"/>
    </g>
    <g id="line2d_37">
     <path d="M 327.314687 18.058438 
L 337.314687 18.058438 
L 347.314687 18.058438 
" style="fill: none; stroke: #0000ff; stroke-width: 1.5; stroke-linecap: square"/>
     <g>
      <use xlink:href="#maa2a03abb0" x="337.314687" y="18.058438" style="fill: #0000ff; stroke: #0000ff"/>
     </g>
    </g>
    <g id="text_13">
     <!-- 5-9 teeth -->
     <g transform="translate(355.314687 21.558438) scale(0.1 -0.1)">
      <defs>
       <path id="DejaVuSans-2d" d="M 313 2009 
L 1997 2009 
L 1997 1497 
L 313 1497 
L 313 2009 
z
" transform="scale(0.015625)"/>
       <path id="DejaVuSans-39" d="M 703 97 
L 703 672 
Q 941 559 1184 500 
Q 1428 441 1663 441 
Q 2288 441 2617 861 
Q 2947 1281 2994 2138 
Q 2813 1869 2534 1725 
Q 2256 1581 1919 1581 
Q 1219 1581 811 2004 
Q 403 2428 403 3163 
Q 403 3881 828 4315 
Q 1253 4750 1959 4750 
Q 2769 4750 3195 4129 
Q 3622 3509 3622 2328 
Q 3622 1225 3098 567 
Q 2575 -91 1691 -91 
Q 1453 -91 1209 -44 
Q 966 3 703 97 
z
M 1959 2075 
Q 2384 2075 2632 2365 
Q 2881 2656 2881 3163 
Q 2881 3666 2632 3958 
Q 2384 4250 1959 4250 
Q 1534 4250 1286 3958 
Q 1038 3666 1038 3163 
Q 1038 2656 1286 2365 
Q 1534 2075 1959 2075 
z
" transform="scale(0.015625)"/>
       <path id="DejaVuSans-68" d="M 3513 2113 
L 3513 0 
L 2938 0 
L 2938 2094 
Q 2938 2591 2744 2837 
Q 2550 3084 2163 3084 
Q 1697 3084 1428 2787 
Q 1159 2491 1159 1978 
L 1159 0 
L 581 0 
L 581 4863 
L 1159 4863 
L 1159 2956 
Q 1366 3272 1645 3428 
Q 1925 3584 2291 3584 
Q 2894 3584 3203 3211 
Q 3513 2838 3513 2113 
z
" transform="scale(0.015625)"/>
      </defs>
      <use xlink:href="#DejaVuSans-35"/>
      <use xlink:href="#DejaVuSans-2d" transform="translate(63.623047 0)"/>
      <use xlink:href="#DejaVuSans-39" transform="translate(99.707031 0)"/>
      <use xlink:href="#DejaVuSans-20" transform="translate(163.330078 0)"/>
      <use xlink:href="#DejaVuSans-74" transform="translate(195.117188 0)"/>
      <use xlink:href="#DejaVuSans-65" transform="translate(234.326172 0)"/>
      <use xlink:href="#DejaVuSans-65" transform="translate(295.849609 0)"/>
      <use xlink:href="#DejaVuSans-74" transform="translate(357.373047 0)"/>
      <use xlink:href="#DejaVuSans-68" transform="translate(396.582031 0)"/>
     </g>
    </g>
    <g id="line2d_38">
     <path d="M 327.314687 32.736563 
L 337.314687 32.736563 
L 347.314687 32.736563 
" style="fill: none; stroke: #3200cd; stroke-width: 1.5; stroke-linecap: square"/>
     <g>
      <use xlink:href="#m1f54888f4d" x="337.314687" y="32.736563" style="fill: #3200cd; stroke: #3200cd"/>
     </g>
    </g>
    <g id="text_14">
     <!-- 10-14 teeth -->
     <g transform="translate(355.314687 36.236563) scale(0.1 -0.1)">
      <use xlink:href="#DejaVuSans-31"/>
      <use xlink:href="#DejaVuSans-30" transform="translate(63.623047 0)"/>
      <use xlink:href="#DejaVuSans-2d" transform="translate(127.246094 0)"/>
      <use xlink:href="#DejaVuSans-31" transform="translate(163.330078 0)"/>
      <use xlink:href="#DejaVuSans-34" transform="translate(226.953125 0)"/>
      <use xlink:href="#DejaVuSans-20" transform="translate(290.576172 0)"/>
      <use xlink:href="#DejaVuSans-74" transform="translate(322.363281 0)"/>
      <use xlink:href="#DejaVuSans-65" transform="translate(361.572266 0)"/>
      <use xlink:href="#DejaVuSans-65" transform="translate(423.095703 0)"/>
      <use xlink:href="#DejaVuSans-74" transform="translate(484.619141 0)"/>
      <use xlink:href="#DejaVuSans-68" transform="translate(523.828125 0)"/>
     </g>
    </g>
    <g id="line2d_39">
     <path d="M 327.314687 47.414688 
L 337.314687 47.414688 
L 347.314687 47.414688 
" style="fill: none; stroke: #64009b; stroke-width: 1.5; stroke-linecap: square"/>
     <g>
      <use xlink:href="#m8ff16875e5" x="337.314687" y="47.414688" style="fill: #64009b; stroke: #64009b"/>
     </g>
    </g>
    <g id="text_15">
     <!-- 15-19 teeth -->
     <g transform="translate(355.314687 50.914688) scale(0.1 -0.1)">
      <use xlink:href="#DejaVuSans-31"/>
      <use xlink:href="#DejaVuSans-35" transform="translate(63.623047 0)"/>
      <use xlink:href="#DejaVuSans-2d" transform="translate(127.246094 0)"/>
      <use xlink:href="#DejaVuSans-31" transform="translate(163.330078 0)"/>
      <use xlink:href="#DejaVuSans-39" transform="translate(226.953125 0)"/>
      <use xlink:href="#DejaVuSans-20" transform="translate(290.576172 0)"/>
      <use xlink:href="#DejaVuSans-74" transform="translate(322.363281 0)"/>
      <use xlink:href="#DejaVuSans-65" transform="translate(361.572266 0)"/>
      <use xlink:href="#DejaVuSans-65" transform="translate(423.095703 0)"/>
      <use xlink:href="#DejaVuSans-74" transform="translate(484.619141 0)"/>
      <use xlink:href="#DejaVuSans-68" transform="translate(523.828125 0)"/>
     </g>
    </g>
    <g id="line2d_40">
     <path d="M 327.314687 62.092813 
L 337.314687 62.092813 
L 347.314687 62.092813 
" style="fill: none; stroke: #960069; stroke-width: 1.5; stroke-linecap: square"/>
     <g>
      <use xlink:href="#m4e4f5f6c8b" x="337.314687" y="62.092813" style="fill: #960069; stroke: #960069"/>
     </g>
    </g>
    <g id="text_16">
     <!-- 20-24 teeth -->
     <g transform="translate(355.314687 65.592813) scale(0.1 -0.1)">
      <use xlink:href="#DejaVuSans-32"/>
      <use xlink:href="#DejaVuSans-30" transform="translate(63.623047 0)"/>
      <use xlink:href="#DejaVuSans-2d" transform="translate(127.246094 0)"/>
      <use xlink:href="#DejaVuSans-32" transform="translate(163.330078 0)"/>
      <use xlink:href="#DejaVuSans-34" transform="translate(226.953125 0)"/>
      <use xlink:href="#DejaVuSans-20" transform="translate(290.576172 0)"/>
      <use xlink:href="#DejaVuSans-74" transform="translate(322.363281 0)"/>
      <use xlink:href="#DejaVuSans-65" transform="translate(361.572266 0)"/>
      <use xlink:href="#DejaVuSans-65" transform="translate(423.095703 0)"/>
      <use xlink:href="#DejaVuSans-74" transform="translate(484.619141 0)"/>
      <use xlink:href="#DejaVuSans-68" transform="translate(523.828125 0)"/>
     </g>
    </g>
    <g id="line2d_41">
     <path d="M 327.314687 76.770938 
L 337.314687 76.770938 
L 347.314687 76.770938 
" style="fill: none; stroke: #c80037; stroke-width: 1.5; stroke-linecap: square"/>
     <g>
      <use xlink:href="#m159c55bb35" x="337.314687" y="76.770938" style="fill: #c80037; stroke: #c80037"/>
     </g>
    </g>
    <g id="text_17">
     <!-- 25-29 teeth -->
     <g transform="translate(355.314687 80.270938) scale(0.1 -0.1)">
      <use xlink:href="#DejaVuSans-32"/>
      <use xlink:href="#DejaVuSans-35" transform="translate(63.623047 0)"/>
      <use xlink:href="#DejaVuSans-2d" transform="translate(127.246094 0)"/>
      <use xlink:href="#DejaVuSans-32" transform="translate(163.330078 0)"/>
      <use xlink:href="#DejaVuSans-39" transform="translate(226.953125 0)"/>
      <use xlink:href="#DejaVuSans-20" transform="translate(290.576172 0)"/>
      <use xlink:href="#DejaVuSans-74" transform="translate(322.363281 0)"/>
      <use xlink:href="#DejaVuSans-65" transform="translate(361.572266 0)"/>
      <use xlink:href="#DejaVuSans-65" transform="translate(423.095703 0)"/>
      <use xlink:href="#DejaVuSans-74" transform="translate(484.619141 0)"/>
      <use xlink:href="#DejaVuSans-68" transform="translate(523.828125 0)"/>
     </g>
    </g>
    <g id="line2d_42">
     <path d="M 327.314687 91.449063 
L 337.314687 91.449063 
L 347.314687 91.449063 
" style="fill: none; stroke: #fa0005; stroke-width: 1.5; stroke-linecap: square"/>
     <g>
      <use xlink:href="#md7373aa5be" x="337.314687" y="91.449063" style="fill: #fa0005; stroke: #fa0005"/>
     </g>
    </g>
    <g id="text_18">
     <!-- 30 teeth -->
     <g transform="translate(355.314687 94.949063) scale(0.1 -0.1)">
      <use xlink:href="#DejaVuSans-33"/>
      <use xlink:href="#DejaVuSans-30" transform="translate(63.623047 0)"/>
      <use xlink:href="#DejaVuSans-20" transform="translate(127.246094 0)"/>
      <use xlink:href="#DejaVuSans-74" transform="translate(159.033203 0)"/>
      <use xlink:href="#DejaVuSans-65" transform="translate(198.242188 0)"/>
      <use xlink:href="#DejaVuSans-65" transform="translate(259.765625 0)"/>
      <use xlink:href="#DejaVuSans-74" transform="translate(321.289062 0)"/>
      <use xlink:href="#DejaVuSans-68" transform="translate(360.498047 0)"/>
     </g>
    </g>
   </g>
  </g>
 </g>
 <defs>
  <clipPath id="p615309a6a6">
   <rect x="88.775" y="4.96" width="334.26" height="210.24"/>
  </clipPath>
 </defs>
</svg>
